<svg class="toggle-close" data-wa-link="clsb-close" width="31" height="31" viewBox="0 0 31 31" fill="none" data-tracking="" data-ui-access-point="sidebar-close" data-ui-object-detail="Close" data-object="content" data-ui-object="link_icon" data-action="interacted" data-ui-action="interacted" xmlns="http://www.w3.org/2000/svg">
          <path d="M19.158 11.8519C18.9158 11.6097 18.5873 11.4737 18.2448 11.4737C17.9023 11.4737 17.5738 11.6097 17.3316 11.8519L15.5 13.6731L13.6787 11.8429C13.5598 11.7193 13.4174 11.6207 13.2599 11.5528C13.1024 11.4849 12.9329 11.4491 12.7614 11.4473C12.59 11.4456 12.4198 11.478 12.261 11.5428C12.1022 11.6075 11.9578 11.7032 11.8364 11.8243C11.7149 11.9454 11.6188 12.0895 11.5537 12.2481C11.4885 12.4068 11.4556 12.5768 11.4568 12.7483C11.458 12.9198 11.4934 13.0893 11.5609 13.247C11.6284 13.4047 11.7265 13.5474 11.8497 13.6667L13.6736 15.4996L11.8446 17.3208C11.721 17.4398 11.6224 17.5822 11.5545 17.7397C11.4866 17.8972 11.4508 18.0666 11.449 18.2381C11.4473 18.4096 11.4798 18.5797 11.5445 18.7385C11.6092 18.8974 11.7049 19.0417 11.826 19.1632C11.9471 19.2846 12.0912 19.3807 12.2498 19.4459C12.4085 19.5111 12.5785 19.544 12.75 19.5427C12.9215 19.5415 13.091 19.5061 13.2487 19.4387C13.4064 19.3712 13.5491 19.273 13.6684 19.1498L15.5 17.326L17.3212 19.155C17.4402 19.2785 17.5826 19.3771 17.7401 19.445C17.8976 19.5129 18.067 19.5488 18.2385 19.5505C18.41 19.5522 18.5801 19.5198 18.739 19.4551C18.8978 19.3903 19.0421 19.2946 19.1636 19.1735C19.285 19.0524 19.3811 18.9084 19.4463 18.7497C19.5115 18.5911 19.5444 18.421 19.5432 18.2495C19.5419 18.078 19.5065 17.9085 19.4391 17.7508C19.3716 17.5931 19.2734 17.4505 19.1502 17.3311L17.3264 15.4996L19.1554 13.6783C19.3979 13.4364 19.5344 13.1081 19.5349 12.7656C19.5354 12.4231 19.3998 12.0945 19.158 11.8519Z" fill="#0e8900"></path>
          <path d="M24.6476 6.38052C23.453 5.17539 22.0312 4.21921 20.4646 3.56736C18.8979 2.91551 17.2175 2.58094 15.5207 2.58302H15.5C12.0743 2.58028 8.7878 3.93851 6.36351 6.35891C3.93923 8.77932 2.57574 12.0636 2.573 15.4894C2.57026 18.9151 3.92849 22.2016 6.3489 24.6258C8.76931 27.0501 12.0536 28.4136 15.4793 28.4163H15.5C18.0529 28.4163 20.5486 27.6598 22.6719 26.2422C24.7951 24.8247 26.4507 22.8098 27.4295 20.4519C28.4083 18.0941 28.6664 15.4991 28.1713 12.9946C27.6761 10.4901 26.45 8.18854 24.6476 6.38052ZM22.7953 22.817C21.8386 23.7764 20.7014 24.5369 19.4493 25.0545C18.1972 25.5722 16.8549 25.8368 15.5 25.833H15.4832C12.7426 25.8308 10.1152 24.74 8.1789 22.8005C6.2426 20.8611 5.15605 18.2319 5.15827 15.4913C5.1605 12.7507 6.25132 10.1233 8.19077 8.18698C10.1302 6.25068 12.7594 5.16412 15.5 5.16635H15.5155C17.5591 5.16959 19.5559 5.77872 21.2533 6.91673C22.9508 8.05473 24.2726 9.6705 25.0518 11.5597C25.831 13.449 26.0326 15.5268 25.6309 17.5306C25.2293 19.5343 24.2425 21.374 22.7953 22.817Z" fill="#0e8900"></path>
        </svg>