<svg xmlns="http://www.w3.org/2000/svg" width="27" height="27" fill="none">
              <circle cx="13.858" cy="13.143" r="7.667" fill="#fff"></circle>
              <path fill="#FF9331" fill-rule="evenodd" d="M13.858 2.19c6.048 0 10.952 4.904 10.952 10.953 0 6.049-4.904 10.952-10.952 10.952-6.05 0-10.953-4.903-10.953-10.952S7.81 2.19 13.858 2.19Zm0 14.239a1.095 1.095 0 1 0 0 2.19 1.095 1.095 0 0 0 0-2.19Zm0-8.762c-.605 0-1.096.49-1.096 1.095v5.476l.008.128a1.095 1.095 0 0 0 2.183-.128V8.762l-.007-.128a1.096 1.096 0 0 0-1.088-.967Z" clip-rule="evenodd"></path>
            </svg>