<svg class="toggle-close" data-wa="clpu-close" width="24" height="24" viewBox="0 0 24 24" fill="none" xmlns="http://www.w3.org/2000/svg" data-tracking="" data-ui-access-point="pricing-popup-close" data-ui-object-detail="Close" data-object="content" data-ui-object="link_icon" data-action="interacted" data-ui-action="interacted">
      <path d="M14.2668 11.9746L22.6585 3.60672C22.8099 3.46087 22.9308 3.28633 23.014 3.09328C23.0973 2.90023 23.1412 2.69253 23.1433 2.48231C23.1455 2.27209 23.1057 2.06355 23.0264 1.86886C22.947 1.67417 22.8297 1.49722 22.6813 1.34836C22.5328 1.19949 22.3562 1.08167 22.1617 1.00179C21.9673 0.921901 21.7588 0.881542 21.5486 0.883065C21.3384 0.884589 21.1306 0.927964 20.9373 1.01066C20.744 1.09336 20.5691 1.21372 20.4228 1.36472L12.0312 9.73264L3.66325 1.34097C3.51835 1.18602 3.34377 1.06177 3.14991 0.975597C2.95604 0.889427 2.74684 0.843097 2.53472 0.839357C2.3226 0.835618 2.11189 0.874545 1.91511 0.953828C1.71833 1.03311 1.53949 1.15113 1.38921 1.30088C1.23893 1.45063 1.12027 1.62905 1.04029 1.82555C0.960316 2.02205 0.920644 2.23262 0.923633 2.44475C0.926623 2.65689 0.972213 2.86625 1.0577 3.06042C1.14318 3.25459 1.26681 3.4296 1.42125 3.57505L9.78917 11.9667L1.39117 20.3362C1.23975 20.4821 1.1189 20.6566 1.03565 20.8497C0.952412 21.0427 0.908448 21.2504 0.90633 21.4606C0.904212 21.6709 0.943982 21.8794 1.02332 22.0741C1.10265 22.2688 1.21997 22.4457 1.36842 22.5946C1.51686 22.7435 1.69347 22.8613 1.88794 22.9412C2.0824 23.021 2.29083 23.0614 2.50106 23.0599C2.71129 23.0584 2.91911 23.015 3.11239 22.9323C3.30568 22.8496 3.48056 22.7292 3.62684 22.5782L12.0185 14.2103L20.3912 22.6083C20.537 22.7597 20.7116 22.8806 20.9046 22.9638C21.0977 23.0471 21.3054 23.091 21.5156 23.0931C21.7258 23.0953 21.9343 23.0555 22.129 22.9762C22.3237 22.8968 22.5007 22.7795 22.6495 22.6311C22.7984 22.4826 22.9162 22.306 22.9961 22.1115C23.076 21.9171 23.1164 21.7086 23.1148 21.4984C23.1133 21.2882 23.0699 21.0804 22.9872 20.8871C22.9045 20.6938 22.7842 20.5189 22.6332 20.3726L14.2668 11.9746Z" fill="#0D333F"></path>
    </svg>