<svg xmlns="http://www.w3.org/2000/svg" width="24" height="24" fill="none" viewBox="0 0 24 24">
  <path fill="#6B6C72" d="M20.122 2.904a2.973 2.973 0 00-2.116-.88L6.024 2.006h-.006a2.996 2.996 0 00-2.996 2.996l-.02 14.008a2.995 2.995 0 002.976 3l.994.016h.018a.999.999 0 00.016-1.997l-1.009-.016a.998.998 0 01-.998-.998l.02-14.009a.998.998 0 01.998-.998l11.982.018a.999.999 0 01.998.998l-.02 14.006a.999.999 0 01-.998.999h-1.967a.999.999 0 000 1.997h1.969a2.996 2.996 0 002.995-2.995l.02-14.008a2.976 2.976 0 00-.874-2.12z"/>
  <path fill="#6B6C72" d="M10.011 7.005a.998.998 0 100-1.998H7.015a.999.999 0 000 1.998h2.996zM6.008 11.982a1.997 1.997 0 001.997 1.997l4.992.008h2.996a1.997 1.997 0 001.997-1.997v-1.987a1.997 1.997 0 00-1.997-1.997h-2.995l-4.993-.007a1.997 1.997 0 00-1.997 1.997v1.986zm7.988-1.975h1.997v1.987h-1.997v-1.987zm-5.991-.008l3.994.006v1.987l-3.994-.006V9.999zM14.953 17.267a.999.999 0 00-1.412 0l-2.29 2.29-.792-.792a.999.999 0 00-1.412 1.412l1.498 1.497a.998.998 0 001.412 0l2.996-2.995a.999.999 0 000-1.412z"/>
</svg>
