<svg width="21" height="20" viewBox="0 0 21 20" fill="none" xmlns="http://www.w3.org/2000/svg"><path d="M10.5 1.66666C8.85182 1.66666 7.24065 2.1554 5.87024 3.07108C4.49983 3.98675 3.43173 5.28824 2.801 6.81096C2.17027 8.33368 2.00524 10.0092 2.32678 11.6257C2.64833 13.2423 3.442 14.7271 4.60744 15.8925C5.77287 17.058 7.25773 17.8517 8.87424 18.1732C10.4907 18.4947 12.1663 18.3297 13.689 17.699C15.2117 17.0683 16.5132 16.0002 17.4289 14.6297C18.3446 13.2593 18.8333 11.6482 18.8333 9.99999C18.8309 7.7906 17.9521 5.67239 16.3899 4.11011C14.8276 2.54784 12.7094 1.66908 10.5 1.66666ZM16.265 6.66666H14.2542C14.0296 5.73324 13.7096 4.8254 13.2992 3.95749C14.5413 4.53632 15.5764 5.48179 16.265 6.66666ZM17.1667 9.99999C17.1646 10.5626 17.091 11.1227 16.9475 11.6667H14.5567C14.6254 11.1137 14.6621 10.5572 14.6667 9.99999C14.6621 9.44278 14.6254 8.8863 14.5567 8.33332H16.9475C17.0911 8.87731 17.1647 9.43738 17.1667 9.99999ZM8.12416 11.6667C8.04666 11.1144 8.00518 10.5577 7.99999 9.99999C8.00512 9.44233 8.0466 8.88559 8.12416 8.33332H12.8742C12.9522 8.88556 12.9943 9.44229 13 9.99999C12.9948 10.5577 12.9533 11.1144 12.8758 11.6667H8.12416ZM3.83333 9.99999C3.83528 9.43738 3.90893 8.87731 4.05249 8.33332H6.44333C6.37458 8.8863 6.33785 9.44278 6.33333 9.99999C6.33785 10.5572 6.37458 11.1137 6.44333 11.6667H4.05249C3.90899 11.1227 3.83534 10.5626 3.83333 9.99999ZM11.0783 3.36249C11.7261 4.38575 12.2189 5.49919 12.5408 6.66666H8.45749C8.77942 5.49919 9.27225 4.38575 9.91999 3.36249C10.1108 3.34582 10.3033 3.33332 10.4983 3.33332C10.6933 3.33332 10.8875 3.34582 11.0783 3.36249ZM7.70166 3.95749C7.29251 4.82558 6.97362 5.7334 6.74999 6.66666H4.73499C5.42369 5.48157 6.45908 4.53604 7.70166 3.95749ZM4.73499 13.3333H6.74999C6.97447 14.2669 7.29478 15.1748 7.70583 16.0425C6.4617 15.4646 5.42478 14.5191 4.73499 13.3333ZM9.92166 16.6375C9.27403 15.6142 8.7812 14.5008 8.45916 13.3333H12.5425C12.2202 14.5008 11.7271 15.6142 11.0792 16.6375C10.8883 16.6542 10.6958 16.6667 10.5008 16.6667C10.3058 16.6667 10.1125 16.6542 9.92166 16.6375ZM13.2992 16.0425C13.7093 15.1745 14.0294 14.2667 14.2542 13.3333H16.265C15.5764 14.5182 14.5413 15.4637 13.2992 16.0425Z" fill="white"></path></svg>