<svg xmlns="http://www.w3.org/2000/svg" width="24" height="24" fill="none" viewBox="0 0 24 24">
  <path fill="#6B6C72" d="M21.13 4.9a2.974 2.974 0 00-2.12-.882L5.01 4a3 3 0 00-3 3l-.012 8a2.98 2.98 0 00.876 2.123c.04.04.088.07.13.108V18a3 3 0 003 3H18a3 3 0 003-3v-.763c.036-.032.078-.057.112-.092a2.975 2.975 0 00.882-2.12l.012-8A2.98 2.98 0 0021.13 4.9zM4.993 16a1 1 0 01-1-1v-1a2 2 0 012 2h-1zm3 0A4.005 4.005 0 004 12v-2h.006a4 4 0 004-3.993l8 .012A4 4 0 0020 10.022v2h-.006a4 4 0 00-4 3.994L7.993 16zm12-1.982v1a1 1 0 01-1 1h-1a2 2 0 012-1.996v-.004zm-.279-7.707a.99.99 0 01.292.707v1a2 2 0 01-2-2h1a.992.992 0 01.708.297v-.004zM5.006 6h1a2 2 0 01-2 2H4V7a1 1 0 011.006-1zM18 19H6a1 1 0 01-1-1l13.989.021H19A1 1 0 0118 19z"/>
  <path fill="#6B6C72" d="M14.2 8.621a2.827 2.827 0 00-2.193-1.11H12a2.825 2.825 0 00-2.192 1.1A3.828 3.828 0 009 11.006a3.284 3.284 0 002.994 3.5 3.285 3.285 0 003-3.5 3.835 3.835 0 00-.794-2.385zm-2.2 3.89c-.533 0-1-.7-1-1.5a1.856 1.856 0 01.368-1.143.861.861 0 01.632-.357.858.858 0 01.633.357c.246.33.375.732.367 1.144 0 .799-.469 1.499-1 1.499z"/>
</svg>
