<svg xmlns="http://www.w3.org/2000/svg" width="24" height="24" fill="none" viewBox="0 0 24 24">
  <path fill="#6B6C72" d="M16 9a1 1 0 00.707-.293l4-4a1 1 0 10-1.414-1.414l-4 4A1 1 0 0016 9zM16.707 4.707a1 1 0 10-1.414-1.414 1 1 0 001.414 1.414zM19.293 7.293a1 1 0 101.414 1.414 1 1 0 00-1.414-1.414zM19 17h-2.787a2.237 2.237 0 00-.64-1.841l-3.28-3.28A2.978 2.978 0 0010.172 11H6a1 1 0 00-1-1H3a1 1 0 000 2h1v6H3a1 1 0 000 2h2a1 1 0 001-1h.586l2.121 2.121a2.976 2.976 0 002.121.879H20.5a1.5 1.5 0 001.5-1.5V20a3 3 0 00-3-3zm-8.172 3a.992.992 0 01-.707-.293l-2.414-2.414A1 1 0 007 17H6v-4h4.172c.265.001.519.106.707.293l3.28 3.28a.25.25 0 01-.177.427h-.568l-1.707-1.707a1 1 0 00-1.414 1.414l2 2A1 1 0 0013 19h6a1 1 0 011 1h-9.172z"/>
</svg>
