<svg xmlns="http://www.w3.org/2000/svg" width="24" height="24" fill="none" viewBox="0 0 24 24">
  <path fill="#6B6C72" d="M21.714 8.8l-2.306-4.968a3.046 3.046 0 00-4.053-1.481L6.1 6.689a3.042 3.042 0 00-1.691 2.188l-2.116 2.115A1 1 0 002 11.7v7.178a3.056 3.056 0 003.046 3.059h11.388a3.056 3.056 0 003.046-3.059V13.22l.764-.358a3.065 3.065 0 001.47-4.062zM17 4.126a1.046 1.046 0 01.594.548l.044.094a1.346 1.346 0 01-.853 0 1.37 1.37 0 01-.67-.562l.09-.043A1.04 1.04 0 0117 4.126zM6.946 8.5l.1-.046a1.4 1.4 0 01-.555 1.559l-.05-.1A1.064 1.064 0 016.946 8.5zM17.48 18.878a1.054 1.054 0 01-1.046 1.059H5.046A1.054 1.054 0 014 18.878v-6.764l.864-.864.936 1.964a.98.98 0 00-.48.465 1 1 0 00.48 1.33l3.95 1.856c.034.016.07.03.106.042a2.838 2.838 0 001.8 0c.036-.012.071-.026.106-.042l4.018-1.884a1 1 0 00-.848-1.81l-3.957 1.854a.82.82 0 01-.434 0l-2.137-1-1.05-2.2A3.39 3.39 0 008.858 7.6l5.428-2.54a3.3 3.3 0 004.2 1.538l.523 1.126a3.4 3.4 0 00-1.461 4.41l.076-.035a.976.976 0 00-.144.485v6.294zm1.92-7.826l-.1.046a1.4 1.4 0 01.556-1.56l.049.1a1.064 1.064 0 01-.505 1.414z"/>
  <path fill="#6B6C72" d="M13.75 7a2.389 2.389 0 00-1.845.061 2.83 2.83 0 00-1.082 3.815c.345.772.98 1.376 1.768 1.682.277.102.57.155.865.156.339 0 .674-.074.981-.217a2.829 2.829 0 001.081-3.815A3.21 3.21 0 0013.75 7zm-.162 3.686a.42.42 0 01-.314-.007 1.226 1.226 0 01-.637-.645c-.238-.513-.133-1.046.116-1.162a.306.306 0 01.132-.027c.062 0 .123.013.181.035.288.125.516.356.639.645.237.508.132 1.041-.117 1.158v.003z"/>
</svg>
