<svg xmlns="http://www.w3.org/2000/svg" width="24" height="24" fill="none" viewBox="0 0 24 24">
  <path fill="#6B6C72" d="M21.005 17.474h-1.498v-1.498a.999.999 0 10-1.997 0v1.498h-1.498a.999.999 0 000 1.997h1.498v1.498a.998.998 0 001.997 0V19.47h1.497a.998.998 0 100-1.997z"/>
  <path fill="#6B6C72" d="M12.998 19.97h-5.99a.998.998 0 01-.999-.998v-.999a.998.998 0 100-1.997V12.98a.998.998 0 100-1.997V7.988a.999.999 0 000-1.997v-.999a.999.999 0 01.998-.998h10.984a.999.999 0 01.998.998v7.988a.998.998 0 101.997 0V4.992a2.996 2.996 0 00-2.995-2.995H7.007a2.996 2.996 0 00-2.995 2.995v.999a.998.998 0 100 1.997v2.995a.999.999 0 000 1.997v2.996a.999.999 0 000 1.997v.998a2.995 2.995 0 002.995 2.996H13a.999.999 0 000-1.997z"/>
  <path fill="#6B6C72" d="M10.039 7.701a.998.998 0 000 1.997h4.992a.999.999 0 100-1.997H10.04z"/>
</svg>
