<svg xmlns="http://www.w3.org/2000/svg" width="24" height="24" fill="none" viewBox="0 0 24 24">
  <path fill="#6B6C72" d="M16 14.97a1 1 0 001-1v-1.993a.928.928 0 01.917-.919l.651-.006-.354.357a1.001 1.001 0 00.713 1.715 1 1 0 00.709-.309l2.059-2.08a1.01 1.01 0 00.291-.711c0-.014-.008-.026-.009-.041a.822.822 0 00-.229-.574.72.72 0 00-.059-.088l-2.081-2.06a1 1 0 00-1.408 1.42l.375.371-.676.006A2.938 2.938 0 0015 11.97v2a1 1 0 001 1zM9 1.97a4.995 4.995 0 00-5 5v2a5 5 0 001.258 3.312A5.009 5.009 0 002 16.97v3a2 2 0 002 2h9a1 1 0 000-2H4v-3a3 3 0 013-3 1 1 0 001-1v-.54a1 1 0 00-.5-.868A3 3 0 016 8.97v-2c0-.793.314-1.555.872-2.118a3.089 3.089 0 014.246-.01c.564.565.88 1.33.882 2.128v2a3 3 0 01-.863 2.109c-.19.185-.401.347-.63.481a1 1 0 00-.507.87v.54a1 1 0 001 1 3.014 3.014 0 011.5.406 1 1 0 101-1.732 4.955 4.955 0 00-.756-.357A5 5 0 0014 8.97v-2a4.993 4.993 0 00-5-5zM21 13.97a1 1 0 00-1 1v2.069a.919.919 0 01-.916.905l-.665.006.354-.358a1.002 1.002 0 00-.318-1.654.999.999 0 00-1.103.248l-2.061 2.082c-.186.19-.29.444-.289.71 0 .021.011.039.013.06.004.11.027.217.067.319.049.11.116.209.2.294.008.009.011.02.019.029l2.082 2.06a1 1 0 001.407-1.422l-.374-.37.687-.006A2.914 2.914 0 0022 17.06v-2.089a1 1 0 00-1-1.001z"/>
</svg>
