<svg xmlns="http://www.w3.org/2000/svg" width="24" height="24" fill="none" viewBox="0 0 24 24">
  <path fill="#6B6C72" d="M21 10.011l.006-4a3 3 0 00-3-3.005L6.121 2.991h-.005a3.082 3.082 0 00-3.065 2.5 5.917 5.917 0 00-.042.5l-.018 12a3 3 0 003 3l12 .018h.006a3 3 0 003-3l.006-4v-4l-.003.002zm-2 3v3l-5-.007a1 1 0 01-1-1v-2a1 1 0 011-1l5 .007v1zM6.116 4.991l11.893.018a1 1 0 011 1V7.19a2.982 2.982 0 00-1-.183l-12-.018a1 1 0 01-.984-1.177 1.085 1.085 0 011.091-.821zm11.875 14.018l-12-.018a1 1 0 01-1-1l.014-9h1l12 .018a1 1 0 011 1L14 10a3 3 0 00-3 3v2a3 3 0 003 3l5 .007a1 1 0 01-1 1l-.009.002z"/>
  <path fill="#6B6C72" d="M16 13.006a1 1 0 100 2 1 1 0 000-2z"/>
</svg>
