<svg width="273" height="130" viewBox="0 0 273 130" fill="none" xmlns="http://www.w3.org/2000/svg">
<mask id="mask0_158_850" style="mask-type:alpha" maskUnits="userSpaceOnUse" x="0" y="0" width="273" height="130">
<path d="M0 8C0 3.58172 3.58172 0 8 0H265C269.418 0 273 3.58172 273 8V130H0V8Z" fill="#717171"/>
</mask>
<g mask="url(#mask0_158_850)">
<rect x="-150" y="-81" width="511" height="333" fill="#0D333F"/>
<circle cx="136" cy="65" r="30" fill="white"/>
</g>
<path d="M134.792 81.5834H121.125C120.219 81.5834 119.35 81.2234 118.709 80.5827C118.068 79.9419 117.708 79.0729 117.708 78.1667V76.783C117.709 75.3408 118.129 73.93 118.918 72.7226C119.706 71.5152 120.829 70.5636 122.15 69.9838C121.117 68.6749 120.555 67.056 120.554 65.3884V62.5355C120.56 60.5785 121.337 58.7028 122.717 57.3148C124.124 55.9631 125.999 55.2073 127.951 55.2051C129.902 55.2029 131.779 55.9544 133.189 57.3028C134.572 58.6941 135.35 60.5742 135.355 62.5355V65.3884C135.358 67.057 134.797 68.6775 133.763 69.9872C135.084 70.5655 136.208 71.5163 136.998 72.7232C137.787 73.9301 138.208 75.3408 138.208 76.783V78.1667C138.208 79.0729 137.848 79.9419 137.208 80.5827C136.567 81.2234 135.698 81.5834 134.792 81.5834ZM127.958 58.5551C127.435 58.5546 126.918 58.6573 126.434 58.8571C125.951 59.057 125.512 59.3502 125.143 59.7199C124.773 60.0896 124.48 60.5286 124.28 61.0117C124.08 61.4948 123.977 62.0126 123.978 62.5355V65.3884C123.975 66.0841 124.156 66.7681 124.503 67.3714C124.849 67.9747 125.349 68.4757 125.951 68.8238C126.211 68.9742 126.428 69.1907 126.578 69.4513C126.728 69.712 126.806 70.0077 126.805 70.3084V71.0771C126.805 71.5302 126.625 71.9647 126.305 72.2851C125.984 72.6055 125.55 72.7855 125.097 72.7855C124.041 72.7913 123.03 73.2152 122.286 73.9643C121.541 74.7135 121.124 75.7269 121.125 76.783V78.1667H134.792V76.783C134.792 75.7254 134.374 74.7107 133.628 73.9613C132.882 73.212 131.869 72.7891 130.811 72.7855C130.358 72.7855 129.924 72.6055 129.603 72.2851C129.283 71.9647 129.103 71.5302 129.103 71.0771V70.3084C129.103 70.0054 129.184 69.7079 129.337 69.4464C129.49 69.1849 129.71 68.9689 129.974 68.8204C130.278 68.6428 130.559 68.4288 130.811 68.1832C131.538 67.4349 131.943 66.4316 131.939 65.3884V62.5355C131.939 62.0126 131.836 61.4948 131.637 61.0117C131.437 60.5286 131.144 60.0896 130.774 59.7199C130.404 59.3502 129.965 59.057 129.482 58.8571C128.999 58.6573 128.481 58.5546 127.958 58.5551V58.5551Z" fill="#0D333F"/>
<path d="M138.208 67.9166C137.917 67.9165 137.631 67.8419 137.377 67.7001C137.123 67.5583 136.909 67.3538 136.756 67.1062C136.603 66.8586 136.516 66.5759 136.503 66.2852C136.49 65.9944 136.551 65.7051 136.681 65.4447L138.389 62.028C138.531 61.7443 138.749 61.5056 139.019 61.3388C139.289 61.1719 139.599 61.0835 139.917 61.0833H150.73C151.034 61.0828 151.325 60.9621 151.539 60.7476C151.754 60.533 151.875 60.2421 151.875 59.9387V51.9779C151.875 51.6745 151.754 51.3836 151.539 51.169C151.325 50.9545 151.034 50.8337 150.73 50.8333H135.936C135.633 50.8337 135.342 50.9545 135.127 51.169C134.913 51.3836 134.792 51.6745 134.792 51.9779V52.5416C134.792 52.9947 134.612 53.4292 134.291 53.7496C133.971 54.07 133.536 54.25 133.083 54.25C132.63 54.25 132.196 54.07 131.875 53.7496C131.555 53.4292 131.375 52.9947 131.375 52.5416V51.9779C131.376 50.7684 131.857 49.6088 132.712 48.7536C133.567 47.8984 134.727 47.4175 135.936 47.4166H150.73C151.94 47.4175 153.1 47.8984 153.955 48.7536C154.81 49.6088 155.291 50.7684 155.292 51.9779V59.9387C155.291 61.1482 154.81 62.3078 153.955 63.163C153.1 64.0182 151.94 64.4991 150.73 64.5H140.972L139.746 66.9719C139.603 67.2572 139.384 67.4969 139.112 67.6638C138.84 67.8308 138.527 67.9184 138.208 67.9166V67.9166Z" fill="#0FD46C"/>
<path d="M138.208 57.6667C139.152 57.6667 139.917 56.9018 139.917 55.9583C139.917 55.0148 139.152 54.25 138.208 54.25C137.265 54.25 136.5 55.0148 136.5 55.9583C136.5 56.9018 137.265 57.6667 138.208 57.6667Z" fill="#AFBCC0"/>
<path d="M143.333 57.6667C144.277 57.6667 145.042 56.9018 145.042 55.9583C145.042 55.0148 144.277 54.25 143.333 54.25C142.39 54.25 141.625 55.0148 141.625 55.9583C141.625 56.9018 142.39 57.6667 143.333 57.6667Z" fill="#AFBCC0"/>
<path d="M148.458 57.6667C149.402 57.6667 150.167 56.9018 150.167 55.9583C150.167 55.0148 149.402 54.25 148.458 54.25C147.515 54.25 146.75 55.0148 146.75 55.9583C146.75 56.9018 147.515 57.6667 148.458 57.6667Z" fill="#AFBCC0"/>
</svg>
