<svg xmlns="http://www.w3.org/2000/svg" width="24" height="24" fill="none" viewBox="0 0 24 24">
  <path fill="#6B6C72" d="M14.563 22.093a6.953 6.953 0 01-4.949-2.05l-5.657-5.657a7.01 7.01 0 010-9.9l1.994-1.993a2 2 0 013.041.251l2.358 3.3a1.993 1.993 0 01-.213 2.577l-.816.815a1 1 0 000 1.414l2.828 2.829a1.024 1.024 0 001.414 0l.816-.815a1.993 1.993 0 012.577-.213l3.3 2.356a2 2 0 01.252 3.043l-1.993 1.993a6.955 6.955 0 01-4.952 2.05zM7.365 3.908L5.371 5.9a5.006 5.006 0 000 7.071l5.657 5.657a4.998 4.998 0 007.072 0l1.993-1.994-3.3-2.357-.815.815a3.075 3.075 0 01-4.243 0l-2.828-2.83a3 3 0 010-4.242l.816-.815-2.358-3.297z"/>
</svg>
