<svg xmlns="http://www.w3.org/2000/svg" width="24" height="24" fill="none" viewBox="0 0 24 24">
  <path fill="#6B6C72" d="M20 3h-3.172A7.885 7.885 0 0012 4.674 7.77 7.77 0 007.171 3H4a2 2 0 00-2 2v13a2 2 0 002 2h3.764a8.51 8.51 0 013.788.894c.015.008.033.005.049.012.125.059.26.091.399.094.138-.003.274-.035.4-.093.015-.007.032 0 .048-.012A8.51 8.51 0 0116.236 20H20a2 2 0 002-2V5a2 2 0 00-2-2zM7.764 18H4V5h3.171A5.79 5.79 0 0111 6.433v12.08A10.517 10.517 0 007.764 18zM20 18h-3.764c-1.099.001-2.19.174-3.236.513V6.434A5.872 5.872 0 0116.828 5H20v13z"/>
</svg>
