<svg xmlns="http://www.w3.org/2000/svg" width="24" height="24" fill="none" viewBox="0 0 24 24">
  <path fill="#6B6C72" d="M8.1 20H5a1 1 0 01-1-1V7a1 1 0 011-1h1v1a1 1 0 001 1h6a1 1 0 001-1V6h1a1 1 0 011 1v1.27a1 1 0 002 0V7a3 3 0 00-3-3h-1.184A3 3 0 0011 2H9a3 3 0 00-2.816 2H5a3 3 0 00-3 3v12a3 3 0 003 3h3.1a1 1 0 000-2zM9 4h2a1 1 0 011 1v1H8V5a1 1 0 011-1z"/>
  <path fill="#6B6C72" d="M22.414 11.1L21 9.686a2.047 2.047 0 00-2.828 0L11.1 16.758a1 1 0 00-.274.51L10.12 20.8a1 1 0 001.18 1.18l3.536-.707a1 1 0 00.51-.273l7.071-7.071a2 2 0 00-.003-2.829zm-8.271 8.271l-1.768.354.354-1.767 6.857-6.858L21 12.514l-6.857 6.857zM6.717 10.278l-.035-.035a.964.964 0 00-1.364 0l-.035.035a.963.963 0 000 1.364l.035.036a.966.966 0 001.364 0l.035-.036a.963.963 0 000-1.364zM6.717 13.278l-.035-.035a.964.964 0 00-1.364 0l-.035.035a.963.963 0 000 1.364l.035.036a.966.966 0 001.364 0l.035-.036a.963.963 0 000-1.364zM6.682 16.243a.964.964 0 00-1.364 0l-.035.035a.963.963 0 000 1.364l.035.036a.966.966 0 001.364 0l.035-.036a.963.963 0 000-1.364l-.035-.035z"/>
</svg>
