<svg xmlns="http://www.w3.org/2000/svg" width="24" height="24" fill="none" viewBox="0 0 24 24">
  <path fill="#6B6C72" d="M14.108 20.009l-8.121-.018a1 1 0 01-1-1l.02-14a1 1 0 011-1l12 .018a1 1 0 011 1l-.014 5a1 1 0 002 0l.014-5a3 3 0 00-3-3.005l-12-.018a3.005 3.005 0 00-3 3l-.02 14a3 3 0 002.994 3l8.119.018a1 1 0 100-2l.008.005z"/>
  <path fill="#6B6C72" d="M10.007 7a1 1 0 100-2h-3a1 1 0 000 2h3zM14 10h2a1 1 0 002 0 2 2 0 00-2-2l-8-.012a2 2 0 00-2 2v2.4a2 2 0 002 2l5 .012a1 1 0 001-1V10zm-6-.006L12 10v2.4H8V9.994z"/>
  <path fill="#6B6C72" d="M20.231 16.557l.921-3.795a.402.402 0 00-.388-.516l-4.809.007a.4.4 0 00-.4.36l-.586 5.2a.32.32 0 00.317.356h1.709l-.418 3.713a.32.32 0 00.55.255l5.263-5.577-2.159-.003z"/>
</svg>
