<svg xmlns="http://www.w3.org/2000/svg" width="24" height="24" fill="none" viewBox="0 0 24 24">
  <path fill="#6B6C72" d="M19.862 8h-5.724A3.12 3.12 0 0013 8.221V7A5 5 0 003 7v2a5.007 5.007 0 001.258 3.313A5.006 5.006 0 001 17v3a2 2 0 002 2h11c.016 0 .03-.008.046-.009.031 0 .06.009.092.009h5.724A3.142 3.142 0 0023 18.862v-7.724A3.142 3.142 0 0019.862 8zM3 17a3 3 0 013-3 1 1 0 001-1v-.54a1 1 0 00-.5-.867A3 3 0 015 9V7c0-.793.314-1.554.872-2.118a3.089 3.089 0 014.246-.01c.564.565.88 1.33.882 2.128v2a3 3 0 01-.862 2.108c-.19.186-.401.348-.631.482a1 1 0 00-.507.87V13a1 1 0 001 1c.342.008.68.075 1 .2v4.665c.002.389.077.774.221 1.135H3v-3zm18 1.862A1.14 1.14 0 0119.862 20h-5.724A1.14 1.14 0 0113 18.862v-7.724A1.14 1.14 0 0114.138 10h5.724A1.14 1.14 0 0121 11.138v7.724z"/>
  <path fill="#6B6C72" d="M19 11h-4a1 1 0 000 2h4a1 1 0 000-2zm-3.318 3.243a.964.964 0 00-1.364 0l-.036.035a.966.966 0 000 1.364l.036.035a.964.964 0 001.364 0l.035-.035a.963.963 0 000-1.364l-.035-.035zm4 0a.964.964 0 00-1.364 0l-.036.035a.966.966 0 000 1.364l.036.035a.964.964 0 001.364 0l.035-.035a.963.963 0 000-1.364l-.035-.035zm-4 3a.964.964 0 00-1.364 0l-.036.035a.966.966 0 000 1.364l.036.035a.964.964 0 001.364 0l.035-.035a.963.963 0 000-1.364l-.035-.035zm4 0a.964.964 0 00-1.364 0l-.036.035a.966.966 0 000 1.364l.036.035a.964.964 0 001.364 0l.035-.035a.963.963 0 000-1.364l-.035-.035zm-10.22-2.434A.5.5 0 009 14.5H7a.5.5 0 00-.354.854l.532.531-.652 1.957a.5.5 0 00.12.512l1 1a.5.5 0 00.708 0l1-1a.5.5 0 00.12-.512l-.652-1.957.532-.531a.5.5 0 00.108-.545z"/>
</svg>
