<svg xmlns="http://www.w3.org/2000/svg" width="24" height="24" fill="none" viewBox="0 0 24 24">
  <path fill="#6B6C72" d="M18.26 3H17a1 1 0 00-2 0H9a1 1 0 00-2 0H5.81A2.77 2.77 0 003 5.729V18.26A2.78 2.78 0 005.81 21h12.45A2.791 2.791 0 0021 18.26V5.81A2.78 2.78 0 0018.26 3zM5.81 5H7a1 1 0 002 0h6a1 1 0 002 0h1.22a.77.77 0 01.78.76V7H5V5.81A.76.76 0 015.81 5zm12.45 14H5.81a.771.771 0 01-.81-.728V9h14v9.22a.779.779 0 01-.74.78z"/>
  <path fill="#6B6C72" d="M14 17.54a.527.527 0 01-.24-.06L12 16.57l-1.72.91a.5.5 0 01-.69-.48l.33-2-1.39-1.31a.528.528 0 01-.12-.52.489.489 0 01.4-.34l1.92-.28.86-1.74a.517.517 0 01.714-.176.53.53 0 01.176.176l.86 1.74 1.92.28a.51.51 0 01.41.34.53.53 0 01-.13.52L14.15 15l.33 2a.509.509 0 01-.2.49.53.53 0 01-.28.05z"/>
</svg>
