<svg width="650" height="739" viewBox="0 0 650 739" fill="none" xmlns="http://www.w3.org/2000/svg">
<g filter="url(#filter0_d_1_2358)">
<g clip-path="url(#clip0_1_2358)">
<rect x="45" y="34" width="560" height="649" rx="26" fill="white"/>
<path d="M187.8 129H180.92V100.68H187.8V129ZM219.414 129H211.654L200.254 110.48H200.134L200.294 129H193.654V100.68H201.454L212.814 119.16H212.934L212.774 100.68H219.414V129ZM250.216 100.68L239.296 129H232.456L221.736 100.68H229.416L235.976 120.76H236.136L242.656 100.68H250.216ZM281.573 114.72C281.573 123.68 275.013 129.76 266.133 129.76C257.293 129.76 250.733 123.68 250.733 114.72C250.733 105.64 257.293 99.92 266.133 99.92C275.013 99.92 281.573 105.64 281.573 114.72ZM274.253 114.72C274.253 109.76 270.933 106.08 266.133 106.08C261.333 106.08 258.053 109.76 258.053 114.72C258.053 119.84 261.373 123.52 266.133 123.52C270.893 123.52 274.253 119.84 274.253 114.72ZM292.956 129H286.076V100.68H292.956V129ZM323.731 125.08C321.251 127.96 317.491 129.76 312.731 129.76C304.011 129.76 297.491 123.68 297.491 114.8C297.491 105.72 304.211 99.92 312.851 99.92C316.811 99.92 321.091 101.36 323.451 104.08L318.811 108.72C317.531 106.96 315.251 106.12 313.091 106.12C308.331 106.12 304.931 109.8 304.931 114.8C304.931 119.96 308.251 123.48 312.971 123.48C315.651 123.48 317.771 122.28 318.971 120.6L323.731 125.08ZM346.422 129H326.662V100.68H345.702V106.48H333.262V111.8H345.022V117.28H333.262V123.16H346.422V129ZM380.279 103.44L375.919 108.04C374.759 106.56 372.639 105.6 370.879 105.6C369.119 105.6 366.919 106.2 366.919 108.44C366.919 110.32 368.599 110.92 371.279 111.76C375.119 113 380.079 114.64 380.079 120.28C380.079 126.8 374.839 129.72 369.239 129.72C365.199 129.72 361.119 128.24 358.639 125.64L363.119 121.08C364.479 122.8 366.999 124.08 369.239 124.08C371.319 124.08 373.159 123.28 373.159 121C373.159 118.84 370.999 118.16 367.279 116.96C363.679 115.8 360.039 113.96 360.039 108.84C360.039 102.56 365.719 99.96 370.999 99.96C374.199 99.96 377.799 101.16 380.279 103.44ZM404.352 129H384.592V100.68H403.632V106.48H391.192V111.8H402.952V117.28H391.192V123.16H404.352V129ZM434.649 129H426.889L415.489 110.48H415.369L415.529 129H408.889V100.68H416.689L428.049 119.16H428.169L428.009 100.68H434.649V129ZM460.61 106.52H452.61V129H445.77V106.52H437.77V100.68H460.61V106.52Z" fill="#393A3D"/>
<rect x="63" y="169.762" width="526.349" height="0.763408" fill="#D4D7DC"/>
<rect x="63" y="399.762" width="526.349" height="0.763408" fill="#D4D7DC"/>
<rect x="83.8889" y="556" width="480.278" height="62.2222" rx="15.5556" fill="#0D333F"/>
<path d="M254.261 596V578.103H260.1C264.195 578.103 266.849 579.544 266.849 583.285C266.849 587.229 263.689 588.594 259.898 588.594H257.446V596H254.261ZM257.446 585.914H259.67C261.743 585.914 263.639 585.409 263.639 583.285C263.639 581.162 261.743 580.783 259.771 580.783H257.446V585.914ZM268.377 596V583.867H271.284V585.889H271.335C271.992 584.499 273.281 583.513 274.874 583.513C275.101 583.513 275.404 583.538 275.607 583.589V586.369C275.202 586.268 274.949 586.243 274.671 586.243C271.941 586.243 271.411 588.619 271.411 589.504V596H268.377ZM277.635 596V583.867H280.669V596H277.635ZM277.206 579.746C277.206 578.786 278.015 577.926 279.127 577.926C280.239 577.926 281.098 578.71 281.098 579.746C281.098 580.783 280.239 581.566 279.127 581.566C278.015 581.566 277.206 580.707 277.206 579.746ZM284.349 596V583.867H287.23V585.813H287.281C287.812 584.6 289.253 583.513 291.047 583.513C294.207 583.513 295.521 585.939 295.521 588.417V596H292.488V589.276C292.488 587.835 292.159 586.041 290.213 586.041C288.292 586.041 287.382 587.709 287.382 589.327V596H284.349ZM299.44 586.293H297.317V583.867H299.44V580.353H302.423V583.867H305.456V586.293H302.423V591.93C302.423 593.017 302.676 593.801 304.016 593.801C304.42 593.801 304.951 593.725 305.305 593.548L305.406 595.924C304.875 596.126 304.066 596.253 303.384 596.253C300.173 596.253 299.44 594.281 299.44 591.956V586.293ZM313.263 589.883C313.263 586.066 316.195 583.513 319.861 583.513C323.526 583.513 326.458 586.066 326.458 589.883C326.458 593.7 323.526 596.354 319.861 596.354C316.195 596.354 313.263 593.7 313.263 589.883ZM316.347 589.883C316.347 591.779 317.459 593.826 319.861 593.826C322.262 593.826 323.374 591.779 323.374 589.883C323.374 587.987 322.262 585.99 319.861 585.99C317.459 585.99 316.347 587.987 316.347 589.883ZM329.399 596V583.867H332.306V585.889H332.357C333.014 584.499 334.303 583.513 335.896 583.513C336.123 583.513 336.427 583.538 336.629 583.589V586.369C336.224 586.268 335.972 586.243 335.694 586.243C332.964 586.243 332.433 588.619 332.433 589.504V596H329.399ZM353.546 585.358L351.575 587.102C351.044 586.394 350.033 585.788 348.92 585.788C347.96 585.788 346.974 586.142 346.974 587.102C346.974 588.037 347.909 588.29 349.603 588.695C351.398 589.124 353.521 589.933 353.521 592.309C353.521 595.267 351.12 596.354 348.465 596.354C346.595 596.354 344.648 595.646 343.486 594.357L345.483 592.486C346.14 593.346 347.277 594.003 348.592 594.003C349.476 594.003 350.538 593.649 350.538 592.562C350.538 591.551 349.603 591.248 347.758 590.818C345.963 590.388 344.168 589.655 344.168 587.38C344.168 584.676 346.595 583.513 348.996 583.513C350.74 583.513 352.56 584.119 353.546 585.358ZM363.691 596V594.458H363.615C363.009 595.52 361.568 596.303 359.849 596.303C357.902 596.303 355.299 595.368 355.299 592.537C355.299 588.922 359.849 588.417 363.64 588.417V588.113C363.64 586.622 362.377 585.889 360.86 585.889C359.571 585.889 358.332 586.496 357.549 587.279L355.981 585.434C357.346 584.17 359.267 583.513 361.113 583.513C365.46 583.513 366.522 586.192 366.522 588.619V596H363.691ZM363.64 590.894V590.464H362.958C361.037 590.464 358.332 590.692 358.332 592.486C358.332 593.649 359.419 594.003 360.455 594.003C362.528 594.003 363.64 592.815 363.64 590.894ZM373.14 596L368.236 583.867H371.548L374.733 592.714H374.783L377.993 583.867H381.204L376.376 596H373.14ZM385.341 588.72H391.56C391.56 587.153 390.675 585.788 388.703 585.788C386.909 585.788 385.468 587.026 385.341 588.72ZM394.593 590.085C394.593 590.363 394.593 590.616 394.568 590.894H385.341C385.468 592.613 387.035 593.877 388.805 593.877C390.321 593.877 391.332 593.27 392.015 592.309L394.037 593.927C392.849 595.545 391.13 596.354 388.83 596.354C385.089 596.354 382.308 593.953 382.308 590.009C382.308 586.091 385.063 583.513 388.729 583.513C392.116 583.513 394.593 585.712 394.593 590.085Z" fill="white"/>
<mask id="mask0_1_2358" style="mask-type:luminance" maskUnits="userSpaceOnUse" x="84" y="76" width="66" height="66">
<path fill-rule="evenodd" clip-rule="evenodd" d="M84 76H150V142H84V76Z" fill="white"/>
</mask>
<g mask="url(#mask0_1_2358)">
<path fill-rule="evenodd" clip-rule="evenodd" d="M117.066 76H117C98.8171 76 84.0331 90.784 84.0001 108.934C83.9671 127.15 98.7511 141.967 116.934 142H117C135.183 142 149.967 127.216 150 109.066C150.033 90.85 135.249 76.033 117.066 76Z" fill="url(#paint0_linear_1_2358)"/>
</g>
<path d="M135.267 96.2128C134.782 95.7285 134.125 95.4564 133.44 95.4564C132.755 95.4564 132.098 95.7285 131.614 96.2128L111.521 116.306L102.386 107.174C101.899 106.703 101.246 106.443 100.569 106.449C99.8916 106.455 99.2437 106.726 98.7647 107.205C98.2857 107.684 98.014 108.332 98.0082 109.01C98.0023 109.687 98.2627 110.339 98.7332 110.827L109.694 121.788C110.179 122.272 110.836 122.544 111.521 122.544C112.206 122.544 112.863 122.272 113.347 121.788L135.267 99.8656C135.751 99.3812 136.023 98.7242 136.023 98.0392C136.023 97.3542 135.751 96.6972 135.267 96.2128Z" fill="white"/>
<path d="M218.39 333.528C218.39 340.612 212.18 343.004 205.97 343.004H192.998V310.436H205.97C211.03 310.436 217.056 312.23 217.056 318.808C217.056 322.396 214.894 324.788 211.72 325.846V325.938C215.446 326.582 218.39 329.25 218.39 333.528ZM209.466 319.866C209.466 317.658 207.764 316.692 204.452 316.692H200.588V323.408H204.82C207.764 323.408 209.466 322.166 209.466 319.866ZM210.524 332.792C210.524 330.078 208.316 329.204 204.958 329.204H200.588V336.656H205.004C207.488 336.656 210.524 335.966 210.524 332.792ZM236.699 333.804V333.022H235.733C232.421 333.022 228.695 333.436 228.695 336.15C228.695 337.898 230.443 338.496 231.961 338.496C234.997 338.496 236.699 336.656 236.699 333.804ZM226.671 327.318L222.853 323.224C225.521 320.694 229.339 319.36 233.065 319.36C240.747 319.36 243.599 323.132 243.599 331.458V343.004H236.699V340.566H236.561C235.411 342.452 232.789 343.556 230.075 343.556C226.441 343.556 221.749 341.762 221.749 336.38C221.749 329.756 229.799 328.652 236.469 328.652V328.284C236.469 326.03 234.675 324.972 232.329 324.972C230.167 324.972 228.051 326.03 226.671 327.318ZM256.958 343.004H249.322V308.228H256.958V343.004ZM276.455 333.804V333.022H275.489C272.177 333.022 268.451 333.436 268.451 336.15C268.451 337.898 270.199 338.496 271.717 338.496C274.753 338.496 276.455 336.656 276.455 333.804ZM266.427 327.318L262.609 323.224C265.277 320.694 269.095 319.36 272.821 319.36C280.503 319.36 283.355 323.132 283.355 331.458V343.004H276.455V340.566H276.317C275.167 342.452 272.545 343.556 269.831 343.556C266.197 343.556 261.505 341.762 261.505 336.38C261.505 329.756 269.555 328.652 276.225 328.652V328.284C276.225 326.03 274.431 324.972 272.085 324.972C269.923 324.972 267.807 326.03 266.427 327.318ZM311.618 343.004H304.028V330.492C304.028 327.962 303.338 325.662 300.624 325.662C297.956 325.662 296.576 327.962 296.576 330.584V343.004H288.986V320.096H296.3V323.27H296.392C297.45 321.246 300.072 319.452 303.246 319.452C309.41 319.452 311.618 324.236 311.618 328.836V343.004ZM337.48 322.442L333.11 327.502C332.282 326.398 330.626 325.662 329.108 325.662C325.934 325.662 323.818 328.376 323.818 331.55C323.818 334.724 325.888 337.392 329.2 337.392C330.718 337.392 332.374 336.794 333.294 335.69L337.48 340.796C335.594 342.636 332.374 343.74 329.016 343.74C321.794 343.74 316.182 339.14 316.182 331.55C316.182 324.098 321.84 319.36 328.97 319.36C332.236 319.36 335.686 320.602 337.48 322.442ZM346.539 328.928H356.245C356.245 326.536 354.727 324.558 351.737 324.558C348.839 324.558 346.723 326.582 346.539 328.928ZM363.191 331.826C363.191 332.424 363.191 333.068 363.145 333.62H346.539C346.769 336.15 349.299 337.944 352.013 337.944C354.405 337.944 356.061 336.932 357.073 335.552L362.317 338.864C360.155 341.992 356.567 343.74 351.921 343.74C345.021 343.74 339.317 339.37 339.317 331.642C339.317 324.144 344.745 319.36 351.691 319.36C358.453 319.36 363.191 324.006 363.191 331.826ZM403.657 343.004H396.711V340.014H396.619C395.147 342.314 392.157 343.648 389.121 343.648C382.221 343.648 378.219 337.852 378.219 331.458C378.219 325.064 382.359 319.452 389.029 319.452C392.387 319.452 394.733 321.016 396.021 322.534H396.113V308.228H403.657V343.004ZM396.435 331.504C396.435 328.606 394.319 325.616 390.915 325.616C387.327 325.616 385.487 328.514 385.487 331.458C385.487 334.448 387.327 337.392 390.915 337.392C394.319 337.392 396.435 334.494 396.435 331.504ZM432.002 343.004H424.734V339.83H424.642C423.584 341.854 420.962 343.648 417.742 343.648C411.578 343.648 409.416 338.864 409.416 334.264V320.096H417.006V332.516C417.006 335.092 417.65 337.392 420.41 337.392C423.032 337.392 424.458 335.092 424.458 332.47V320.096H432.002V343.004ZM443.974 328.928H453.68C453.68 326.536 452.162 324.558 449.172 324.558C446.274 324.558 444.158 326.582 443.974 328.928ZM460.626 331.826C460.626 332.424 460.626 333.068 460.58 333.62H443.974C444.204 336.15 446.734 337.944 449.448 337.944C451.84 337.944 453.496 336.932 454.508 335.552L459.752 338.864C457.59 341.992 454.002 343.74 449.356 343.74C442.456 343.74 436.752 339.37 436.752 331.642C436.752 324.144 442.18 319.36 449.126 319.36C455.888 319.36 460.626 324.006 460.626 331.826Z" fill="#0D333F"/>
<path d="M211.945 439.98V444.74C217.195 444.88 223.285 446.56 227.625 450.06C225.385 452.65 223.145 455.17 220.835 457.69C218.525 455.38 214.885 453.98 211.945 453.91V465.11C219.155 467.28 227.835 470.36 227.835 480.37C227.835 490.59 219.855 495.42 211.665 495.7V500.81H206.485V495.7C200.465 495.49 193.815 493.39 189.195 489.26C191.645 486.74 194.165 484.15 196.545 481.56C199.065 484.29 203.405 486.32 206.485 486.39V474.14C198.435 471.97 191.225 468.89 191.225 459.51C191.225 450.34 199.485 445.16 206.835 444.81V439.98H211.945ZM206.835 463.92V453.77C204.315 454.05 201.935 455.66 201.935 458.74C201.935 461.68 203.895 463.15 206.835 463.92ZM211.665 475.4V486.46C214.815 486.32 216.775 484.22 216.775 481C216.775 477.78 214.605 476.31 211.665 475.4ZM272.599 495H236.759V485.2L256.079 467.7C258.529 465.39 260.139 463.08 260.139 460.07C260.139 456.57 257.689 454.12 253.979 454.12C250.059 454.12 247.469 457.2 246.979 461.61L235.709 460.07C236.829 450.06 244.949 444.11 254.609 444.11C263.709 444.11 272.529 448.94 272.529 459.3C272.529 466.37 268.399 470.5 263.849 474.56L252.369 484.78H272.599V495ZM319.323 478.34C319.323 489.61 310.503 496.33 299.793 496.33C289.013 496.33 280.263 489.47 280.263 478.62C280.263 472.74 282.503 468.19 285.793 463.29L297.763 445.44H311.973L299.793 462.38L299.583 462.73C300.493 462.38 301.963 462.17 303.083 462.17C311.763 462.17 319.323 468.68 319.323 478.34ZM307.563 478.62C307.563 474.14 304.483 470.85 299.863 470.85C295.243 470.85 292.023 474.07 292.023 478.69C292.023 482.96 295.103 486.53 299.793 486.53C304.413 486.53 307.563 483.31 307.563 478.62ZM363.247 478.62C363.247 490.66 353.867 496.33 344.137 496.33C335.107 496.33 327.617 491.57 325.307 483.73L336.017 480.44C337.067 483.87 340.147 486.39 343.997 486.39C347.987 486.39 351.417 483.94 351.417 479.18C351.417 473.3 346.097 471.62 341.267 471.62C337.767 471.62 332.657 472.53 329.157 473.79L330.347 445.44H360.727V455.52H340.777L340.357 463.36C341.827 463.01 343.857 462.87 345.327 462.87C355.267 462.87 363.247 468.19 363.247 478.62ZM385.331 488.84C385.331 492.69 382.111 495.7 378.331 495.7C374.481 495.7 371.191 492.76 371.191 488.91C371.191 485.13 374.411 481.98 378.331 481.98C382.111 481.98 385.331 484.99 385.331 488.84ZM430.747 470.08C430.747 484.15 425.427 496.33 411.427 496.33C397.357 496.33 391.967 484.15 391.967 470.08C391.967 456.08 397.357 444.11 411.427 444.11C425.427 444.11 430.747 456.08 430.747 470.08ZM418.707 470.08C418.707 463.85 417.587 454.05 411.427 454.05C405.197 454.05 404.007 463.85 404.007 470.08C404.007 476.45 405.197 486.25 411.427 486.25C417.587 486.25 418.707 476.45 418.707 470.08ZM476.001 470.08C476.001 484.15 470.681 496.33 456.681 496.33C442.611 496.33 437.221 484.15 437.221 470.08C437.221 456.08 442.611 444.11 456.681 444.11C470.681 444.11 476.001 456.08 476.001 470.08ZM463.961 470.08C463.961 463.85 462.841 454.05 456.681 454.05C450.451 454.05 449.261 463.85 449.261 470.08C449.261 476.45 450.451 486.25 456.681 486.25C462.841 486.25 463.961 476.45 463.961 470.08Z" fill="#2CA01C"/>
<path d="M356.835 232.169C356.815 231.864 356.753 231.563 356.652 231.275C356.62 231.167 356.581 231.061 356.537 230.957C356.381 230.607 356.163 230.288 355.896 230.013V229.996L335.646 209.746C335.367 209.478 335.044 209.26 334.691 209.101C334.587 209.054 334.475 209.027 334.354 208.986C334.071 208.889 333.777 208.83 333.479 208.811C333.392 208.787 333.328 208.75 333.25 208.75H306.25C303.565 208.75 300.989 209.817 299.091 211.716C297.192 213.614 296.125 216.19 296.125 218.875V266.125C296.125 268.81 297.192 271.386 299.091 273.284C300.989 275.183 303.565 276.25 306.25 276.25H346.75C349.435 276.25 352.011 275.183 353.909 273.284C355.808 271.386 356.875 268.81 356.875 266.125V232.375C356.875 232.301 356.838 232.24 356.835 232.169ZM336.625 220.272L345.353 229H340C339.105 229 338.246 228.644 337.614 228.011C336.981 227.379 336.625 226.52 336.625 225.625V220.272ZM346.75 269.5H306.25C305.355 269.5 304.496 269.144 303.864 268.511C303.231 267.879 302.875 267.02 302.875 266.125V218.875C302.875 217.98 303.231 217.121 303.864 216.489C304.496 215.856 305.355 215.5 306.25 215.5H329.875V225.625C329.875 228.31 330.942 230.886 332.841 232.784C334.739 234.683 337.315 235.75 340 235.75H350.125V266.125C350.125 267.02 349.769 267.879 349.136 268.511C348.504 269.144 347.645 269.5 346.75 269.5Z" fill="#0D333F"/>
<path d="M309.625 235.75H319.75C320.645 235.75 321.504 235.394 322.136 234.761C322.769 234.129 323.125 233.27 323.125 232.375C323.125 231.48 322.769 230.621 322.136 229.989C321.504 229.356 320.645 229 319.75 229H309.625C308.73 229 307.871 229.356 307.239 229.989C306.606 230.621 306.25 231.48 306.25 232.375C306.25 233.27 306.606 234.129 307.239 234.761C307.871 235.394 308.73 235.75 309.625 235.75Z" fill="#0D333F"/>
<path d="M333.25 245.875H309.625C308.73 245.875 307.871 246.231 307.239 246.864C306.606 247.496 306.25 248.355 306.25 249.25C306.25 250.145 306.606 251.004 307.239 251.636C307.871 252.269 308.73 252.625 309.625 252.625H333.25C334.145 252.625 335.004 252.269 335.636 251.636C336.269 251.004 336.625 250.145 336.625 249.25C336.625 248.355 336.269 247.496 335.636 246.864C335.004 246.231 334.145 245.875 333.25 245.875Z" fill="#0D333F"/>
<path d="M333.25 256H309.625C308.73 256 307.871 256.356 307.239 256.989C306.606 257.621 306.25 258.48 306.25 259.375C306.25 260.27 306.606 261.129 307.239 261.761C307.871 262.394 308.73 262.75 309.625 262.75H333.25C334.145 262.75 335.004 262.394 335.636 261.761C336.269 261.129 336.625 260.27 336.625 259.375C336.625 258.48 336.269 257.621 335.636 256.989C335.004 256.356 334.145 256 333.25 256Z" fill="#0D333F"/>
</g>
</g>
<defs>
<filter id="filter0_d_1_2358" x="0" y="0" width="650" height="739" filterUnits="userSpaceOnUse" color-interpolation-filters="sRGB">
<feFlood flood-opacity="0" result="BackgroundImageFix"/>
<feColorMatrix in="SourceAlpha" type="matrix" values="0 0 0 0 0 0 0 0 0 0 0 0 0 0 0 0 0 0 127 0" result="hardAlpha"/>
<feOffset dy="11"/>
<feGaussianBlur stdDeviation="22.5"/>
<feComposite in2="hardAlpha" operator="out"/>
<feColorMatrix type="matrix" values="0 0 0 0 0 0 0 0 0 0 0 0 0 0 0 0 0 0 0.2 0"/>
<feBlend mode="normal" in2="BackgroundImageFix" result="effect1_dropShadow_1_2358"/>
<feBlend mode="normal" in="SourceGraphic" in2="effect1_dropShadow_1_2358" result="shape"/>
</filter>
<linearGradient id="paint0_linear_1_2358" x1="117" y1="175" x2="183" y2="109" gradientUnits="userSpaceOnUse">
<stop stop-color="#53B700"/>
<stop offset="1" stop-color="#00C1BF"/>
</linearGradient>
<clipPath id="clip0_1_2358">
<rect x="45" y="34" width="560" height="649" rx="26" fill="white"/>
</clipPath>
</defs>
</svg>
