<svg width="650" height="739" viewBox="0 0 650 739" fill="none" xmlns="http://www.w3.org/2000/svg">
<g filter="url(#filter0_d_1_2359)">
<g clip-path="url(#clip0_1_2359)">
<rect x="45" y="34" width="560" height="649" rx="26" fill="white"/>
<path d="M122.976 303.512C119.504 307.544 114.24 310.064 107.576 310.064C95.368 310.064 86.24 301.552 86.24 289.12C86.24 276.408 95.648 268.288 107.744 268.288C113.288 268.288 119.28 270.304 122.584 274.112L116.088 280.608C114.296 278.144 111.104 276.968 108.08 276.968C101.416 276.968 96.656 282.12 96.656 289.12C96.656 296.344 101.304 301.272 107.912 301.272C111.664 301.272 114.632 299.592 116.312 297.24L122.976 303.512ZM155.488 294.944C155.488 304.072 148.432 309.896 139.976 309.896C131.576 309.896 124.52 304.072 124.52 294.944C124.52 285.816 131.576 280.216 139.976 280.216C148.432 280.216 155.488 285.816 155.488 294.944ZM146.64 294.944C146.64 291.36 144.288 287.832 139.976 287.832C135.664 287.832 133.424 291.36 133.424 294.944C133.424 298.528 135.72 302.168 140.032 302.168C144.344 302.168 146.64 298.528 146.64 294.944ZM188.855 309H179.615V293.768C179.615 290.688 178.775 287.888 175.471 287.888C172.223 287.888 170.543 290.688 170.543 293.88V309H161.303V281.112H170.207V284.976H170.319C171.607 282.512 174.799 280.328 178.663 280.328C186.167 280.328 188.855 286.152 188.855 291.752V309ZM225.379 306.368C225.379 317.288 218.883 322.44 208.971 322.44C204.099 322.44 198.387 320.872 194.635 318.072L199.227 311.52C201.915 313.872 205.331 315.048 208.467 315.048C213.843 315.048 216.363 311.912 216.363 307.264V305.584H216.195C214.459 307.824 211.435 309.28 207.739 309.28C199.283 309.28 194.411 302.672 194.411 294.944C194.411 287.216 199.283 280.328 207.683 280.328C211.155 280.328 214.627 281.728 216.587 284.696H216.699V281.112H225.379V306.368ZM216.643 294.888C216.643 291.08 214.011 287.832 209.867 287.832C205.723 287.832 203.315 291.024 203.315 294.888C203.315 298.584 205.723 302 209.867 302C214.067 302 216.643 298.696 216.643 294.888ZM251.15 280.552L250.758 288.616C249.918 288.392 249.134 288.336 248.406 288.336C243.478 288.336 241.854 292.368 241.854 294.664V309H232.67V281.112H241.518V285.144H241.63C243.03 282.344 245.774 280.328 249.19 280.328C249.918 280.328 250.702 280.384 251.15 280.552ZM270.462 297.8V296.848H269.286C265.254 296.848 260.718 297.352 260.718 300.656C260.718 302.784 262.846 303.512 264.694 303.512C268.39 303.512 270.462 301.272 270.462 297.8ZM258.254 289.904L253.606 284.92C256.854 281.84 261.502 280.216 266.038 280.216C275.39 280.216 278.862 284.808 278.862 294.944V309H270.462V306.032H270.294C268.894 308.328 265.702 309.672 262.398 309.672C257.974 309.672 252.262 307.488 252.262 300.936C252.262 292.872 262.062 291.528 270.182 291.528V291.08C270.182 288.336 267.998 287.048 265.142 287.048C262.51 287.048 259.934 288.336 258.254 289.904ZM301.69 288H295.138V298.64C295.138 301.216 295.978 302.56 298.61 302.56C299.506 302.56 300.626 302.392 301.298 302.112L301.41 308.832C300.178 309.28 298.05 309.672 296.09 309.672C288.642 309.672 286.178 305.696 286.178 299.76V288H281.698V281.112H286.122V273.776H295.138V281.112H301.69V288ZM333.222 309H324.374V305.136H324.262C322.974 307.6 319.782 309.784 315.862 309.784C308.358 309.784 305.726 303.96 305.726 298.36V281.112H314.966V296.232C314.966 299.368 315.75 302.168 319.11 302.168C322.302 302.168 324.038 299.368 324.038 296.176V281.112H333.222V309ZM349.812 309H340.516V266.664H349.812V309ZM373.548 297.8V296.848H372.372C368.34 296.848 363.804 297.352 363.804 300.656C363.804 302.784 365.932 303.512 367.78 303.512C371.476 303.512 373.548 301.272 373.548 297.8ZM361.34 289.904L356.692 284.92C359.94 281.84 364.588 280.216 369.124 280.216C378.476 280.216 381.948 284.808 381.948 294.944V309H373.548V306.032H373.38C371.98 308.328 368.788 309.672 365.484 309.672C361.06 309.672 355.348 307.488 355.348 300.936C355.348 292.872 365.148 291.528 373.268 291.528V291.08C373.268 288.336 371.084 287.048 368.228 287.048C365.596 287.048 363.02 288.336 361.34 289.904ZM404.776 288H398.224V298.64C398.224 301.216 399.064 302.56 401.696 302.56C402.592 302.56 403.712 302.392 404.384 302.112L404.496 308.832C403.264 309.28 401.136 309.672 399.176 309.672C391.728 309.672 389.264 305.696 389.264 299.76V288H384.784V281.112H389.208V273.776H398.224V281.112H404.776V288ZM419.06 272.208C419.06 275.064 416.708 277.248 413.796 277.248C410.828 277.248 408.532 274.952 408.532 272.208C408.532 269.52 410.828 267.168 413.796 267.168C416.708 267.168 419.06 269.408 419.06 272.208ZM418.388 309H409.204V281.112H418.388V309ZM455.23 294.944C455.23 304.072 448.174 309.896 439.718 309.896C431.318 309.896 424.262 304.072 424.262 294.944C424.262 285.816 431.318 280.216 439.718 280.216C448.174 280.216 455.23 285.816 455.23 294.944ZM446.382 294.944C446.382 291.36 444.03 287.832 439.718 287.832C435.406 287.832 433.166 291.36 433.166 294.944C433.166 298.528 435.462 302.168 439.774 302.168C444.086 302.168 446.382 298.528 446.382 294.944ZM488.597 309H479.357V293.768C479.357 290.688 478.517 287.888 475.213 287.888C471.965 287.888 470.285 290.688 470.285 293.88V309H461.045V281.112H469.949V284.976H470.061C471.349 282.512 474.541 280.328 478.405 280.328C485.909 280.328 488.597 286.152 488.597 291.752V309ZM517.001 284.136L511.961 289.344C510.505 287.944 508.377 286.824 506.137 286.824C504.401 286.824 502.665 287.44 502.665 289.064C502.665 290.632 504.177 291.08 507.761 291.864C512.017 292.816 516.665 294.944 516.665 300.376C516.665 307.432 510.449 309.896 504.737 309.896C500.201 309.896 495.497 308.384 492.585 305.584L497.737 300.152C499.361 301.944 501.881 303.288 504.569 303.288C506.081 303.288 507.873 302.672 507.873 300.88C507.873 299.144 506.137 298.584 502.329 297.688C498.465 296.792 494.209 294.832 494.209 289.568C494.209 282.904 500.481 280.216 505.801 280.216C509.945 280.216 514.257 281.56 517.001 284.136ZM533.055 295.728H523.647V269.352H533.055V295.728ZM533.839 304.24C533.839 307.208 531.375 309.56 528.351 309.56C525.439 309.56 522.919 307.264 522.919 304.296C522.919 301.384 525.327 298.976 528.351 298.976C531.375 298.976 533.839 301.328 533.839 304.24Z" fill="#0D333F"/>
<rect x="83.8889" y="556" width="480.278" height="62.2222" rx="15.5556" fill="#53B700"/>
<path d="M218.518 580.378L216.091 582.299C215.156 581.01 213.463 580.454 212.022 580.454C208.331 580.454 205.829 583.311 205.829 587.001C205.829 590.894 208.205 593.599 211.895 593.599C213.816 593.599 215.333 592.764 216.243 591.526L218.796 593.321C217.229 595.292 214.903 596.455 211.87 596.455C206.284 596.455 202.315 592.588 202.315 587.001C202.315 581.263 206.511 577.648 212.022 577.648C214.347 577.648 217.103 578.508 218.518 580.378ZM219.619 589.883C219.619 586.066 222.552 583.513 226.217 583.513C229.882 583.513 232.814 586.066 232.814 589.883C232.814 593.7 229.882 596.354 226.217 596.354C222.552 596.354 219.619 593.7 219.619 589.883ZM222.703 589.883C222.703 591.779 223.816 593.826 226.217 593.826C228.618 593.826 229.731 591.779 229.731 589.883C229.731 587.987 228.618 585.99 226.217 585.99C223.816 585.99 222.703 587.987 222.703 589.883ZM250.24 583.513C253.399 583.513 254.714 585.939 254.714 588.417V596H251.681V589.276C251.681 587.835 251.352 586.041 249.406 586.041C247.51 586.041 246.726 587.81 246.726 589.377V596H243.693V588.669C243.693 587.178 242.985 586.041 241.443 586.041C239.623 586.041 238.789 587.709 238.789 589.327V596H235.756V583.867H238.637V585.813H238.688C239.219 584.625 240.508 583.513 242.454 583.513C244.325 583.513 245.563 584.448 246.246 585.813C247.055 584.347 248.42 583.513 250.24 583.513ZM258.244 583.867H261.151V585.56H261.227C261.833 584.6 263.198 583.513 265.423 583.513C268.886 583.513 271.313 586.293 271.313 589.883C271.313 593.422 269.038 596.354 265.347 596.354C263.653 596.354 262.111 595.596 261.328 594.382H261.277V602.067H258.244V583.867ZM268.229 589.883C268.229 587.987 267.091 585.99 264.74 585.99C262.516 585.99 261.176 588.037 261.176 589.933C261.176 591.829 262.516 593.826 264.74 593.826C267.091 593.826 268.229 591.779 268.229 589.883ZM274.291 596V576.89H277.324V596H274.291ZM283.329 588.72H289.548C289.548 587.153 288.663 585.788 286.691 585.788C284.897 585.788 283.456 587.026 283.329 588.72ZM292.581 590.085C292.581 590.363 292.581 590.616 292.556 590.894H283.329C283.456 592.613 285.023 593.877 286.792 593.877C288.309 593.877 289.32 593.27 290.003 592.309L292.025 593.927C290.837 595.545 289.118 596.354 286.818 596.354C283.077 596.354 280.296 593.953 280.296 590.009C280.296 586.091 283.051 583.513 286.717 583.513C290.104 583.513 292.581 585.712 292.581 590.085ZM295.898 586.293H293.775V583.867H295.898V580.353H298.881V583.867H301.914V586.293H298.881V591.93C298.881 593.017 299.133 593.801 300.473 593.801C300.878 593.801 301.408 593.725 301.762 593.548L301.863 595.924C301.333 596.126 300.524 596.253 299.841 596.253C296.631 596.253 295.898 594.281 295.898 591.956V586.293ZM306.435 588.72H312.653C312.653 587.153 311.768 585.788 309.797 585.788C308.002 585.788 306.561 587.026 306.435 588.72ZM315.686 590.085C315.686 590.363 315.686 590.616 315.661 590.894H306.435C306.561 592.613 308.128 593.877 309.898 593.877C311.415 593.877 312.426 593.27 313.108 592.309L315.13 593.927C313.942 595.545 312.223 596.354 309.923 596.354C306.182 596.354 303.401 593.953 303.401 590.009C303.401 586.091 306.157 583.513 309.822 583.513C313.209 583.513 315.686 585.712 315.686 590.085ZM328.331 596L323.124 583.867H326.486L329.873 592.689H329.923L332.931 583.867H336.091L330.353 598.604C329.494 600.803 328.432 602.067 325.753 602.067C325.247 602.067 324.716 602.016 324.185 601.89L324.438 599.261C324.843 599.387 325.247 599.438 325.576 599.438C326.865 599.438 327.219 598.806 327.724 597.542L328.331 596ZM337.196 589.883C337.196 586.066 340.128 583.513 343.793 583.513C347.458 583.513 350.391 586.066 350.391 589.883C350.391 593.7 347.458 596.354 343.793 596.354C340.128 596.354 337.196 593.7 337.196 589.883ZM340.28 589.883C340.28 591.779 341.392 593.826 343.793 593.826C346.195 593.826 347.307 591.779 347.307 589.883C347.307 587.987 346.195 585.99 343.793 585.99C341.392 585.99 340.28 587.987 340.28 589.883ZM364.403 583.867V596H361.522V594.054H361.471C360.94 595.267 359.5 596.354 357.705 596.354C354.545 596.354 353.231 593.927 353.231 591.45V583.867H356.264V590.591C356.264 592.031 356.593 593.826 358.539 593.826C360.46 593.826 361.37 592.158 361.37 590.54V583.867H364.403ZM368.044 596V583.867H370.951V585.889H371.002C371.659 584.499 372.948 583.513 374.541 583.513C374.768 583.513 375.071 583.538 375.274 583.589V586.369C374.869 586.268 374.616 586.243 374.338 586.243C371.608 586.243 371.078 588.619 371.078 589.504V596H368.044ZM392.191 585.358L390.219 587.102C389.689 586.394 388.677 585.788 387.565 585.788C386.605 585.788 385.619 586.142 385.619 587.102C385.619 588.037 386.554 588.29 388.248 588.695C390.042 589.124 392.166 589.933 392.166 592.309C392.166 595.267 389.764 596.354 387.11 596.354C385.24 596.354 383.293 595.646 382.131 594.357L384.127 592.486C384.785 593.346 385.922 594.003 387.237 594.003C388.121 594.003 389.183 593.649 389.183 592.562C389.183 591.551 388.248 591.248 386.402 590.818C384.608 590.388 382.813 589.655 382.813 587.38C382.813 584.676 385.24 583.513 387.641 583.513C389.385 583.513 391.205 584.119 392.191 585.358ZM397.129 588.72H403.347C403.347 587.153 402.462 585.788 400.491 585.788C398.696 585.788 397.255 587.026 397.129 588.72ZM406.38 590.085C406.38 590.363 406.38 590.616 406.355 590.894H397.129C397.255 592.613 398.822 593.877 400.592 593.877C402.108 593.877 403.12 593.27 403.802 592.309L405.824 593.927C404.636 595.545 402.917 596.354 400.617 596.354C396.876 596.354 394.095 593.953 394.095 590.009C394.095 586.091 396.851 583.513 400.516 583.513C403.903 583.513 406.38 585.712 406.38 590.085ZM409.697 586.293H407.574V583.867H409.697V580.353H412.68V583.867H415.713V586.293H412.68V591.93C412.68 593.017 412.933 593.801 414.273 593.801C414.677 593.801 415.208 593.725 415.562 593.548L415.663 595.924C415.132 596.126 414.323 596.253 413.641 596.253C410.43 596.253 409.697 594.281 409.697 591.956V586.293ZM428.98 583.867V596H426.099V594.054H426.048C425.517 595.267 424.076 596.354 422.282 596.354C419.122 596.354 417.808 593.927 417.808 591.45V583.867H420.841V590.591C420.841 592.031 421.169 593.826 423.116 593.826C425.037 593.826 425.947 592.158 425.947 590.54V583.867H428.98ZM432.621 583.867H435.528V585.56H435.604C436.211 584.6 437.576 583.513 439.8 583.513C443.263 583.513 445.69 586.293 445.69 589.883C445.69 593.422 443.415 596.354 439.724 596.354C438.031 596.354 436.489 595.596 435.705 594.382H435.654V602.067H432.621V583.867ZM442.606 589.883C442.606 587.987 441.468 585.99 439.117 585.99C436.893 585.99 435.553 588.037 435.553 589.933C435.553 591.829 436.893 593.826 439.117 593.826C441.468 593.826 442.606 591.779 442.606 589.883Z" fill="white"/>
<path d="M97.756 385.372V397H93.956V385.372L83.886 370.096H88.522L95.97 382.256L103.456 370.096H107.826L97.756 385.372ZM125.506 387.956C125.506 393.504 121.288 397.494 115.778 397.494C110.268 397.494 106.088 393.504 106.088 387.956C106.088 382.408 110.268 378.494 115.778 378.494C121.288 378.494 125.506 382.408 125.506 387.956ZM121.782 387.956C121.782 384.536 119.654 381.458 115.778 381.458C111.94 381.458 109.773 384.536 109.773 387.956C109.773 391.376 111.94 394.492 115.778 394.492C119.654 394.492 121.782 391.376 121.782 387.956ZM146.533 397H143.151C143.075 396.088 142.999 394.796 142.999 394.036H142.923C142.011 395.936 139.655 397.494 137.033 397.494C132.397 397.494 130.307 394.188 130.307 390.16V378.988H133.879V388.944C133.879 391.908 134.677 394.492 137.983 394.492C140.833 394.492 142.809 392.136 142.809 388.564V378.988H146.381V393.124C146.381 394.074 146.419 395.822 146.533 397ZM152.576 382.864C152.576 381.914 152.538 380.166 152.424 378.988H155.806C155.882 379.9 155.958 381.268 155.958 382.028H156.072C157.06 379.938 159.15 378.494 161.582 378.494C162.076 378.494 162.57 378.532 162.988 378.646L162.836 381.952C162.38 381.838 161.772 381.762 161.202 381.762C157.782 381.762 156.148 384.536 156.148 387.538V397H152.576V382.864ZM190.208 394.15C188.84 396.316 186.256 397.494 183.71 397.494C178.162 397.494 174.628 393.238 174.628 387.956C174.628 382.636 178.276 378.494 183.672 378.494C186.598 378.494 188.84 379.938 190.094 381.686H190.17V368.272H193.742V397H190.284V394.15H190.208ZM178.352 387.956C178.352 391.338 180.404 394.492 184.318 394.492C187.966 394.492 190.398 391.452 190.398 387.994C190.398 384.536 187.966 381.458 184.318 381.458C180.404 381.458 178.352 384.574 178.352 387.956ZM211.175 385.828V385.334C211.175 382.674 209.389 381.382 206.729 381.382C204.715 381.382 202.815 382.256 201.599 383.472L199.699 381.192C201.447 379.52 204.145 378.494 207.071 378.494C212.239 378.494 214.595 381.572 214.595 385.562V393.428C214.595 394.644 214.671 396.126 214.861 397H211.631C211.441 396.202 211.327 395.252 211.327 394.416H211.213C209.921 396.354 207.869 397.456 205.171 397.456C202.321 397.456 198.635 396.05 198.635 391.908C198.635 386.474 205.095 385.828 211.175 385.828ZM211.175 388.412H210.301C206.767 388.412 202.283 388.792 202.283 391.832C202.283 393.96 204.183 394.644 205.969 394.644C209.313 394.644 211.175 392.402 211.175 389.362V388.412ZM229.005 378.988V381.914H224.217V391.3C224.217 393.466 224.977 394.34 226.763 394.34C227.409 394.34 228.245 394.188 228.853 393.884L228.967 396.81C228.131 397.114 227.029 397.304 225.927 397.304C222.545 397.304 220.683 395.404 220.683 391.68V381.914H217.225V378.988H220.683V373.82H224.217V378.988H229.005ZM243.905 385.828V385.334C243.905 382.674 242.119 381.382 239.459 381.382C237.445 381.382 235.545 382.256 234.329 383.472L232.429 381.192C234.177 379.52 236.875 378.494 239.801 378.494C244.969 378.494 247.325 381.572 247.325 385.562V393.428C247.325 394.644 247.401 396.126 247.591 397H244.361C244.171 396.202 244.057 395.252 244.057 394.416H243.943C242.651 396.354 240.599 397.456 237.901 397.456C235.051 397.456 231.365 396.05 231.365 391.908C231.365 386.474 237.825 385.828 243.905 385.828ZM243.905 388.412H243.031C239.497 388.412 235.013 388.792 235.013 391.832C235.013 393.96 236.913 394.644 238.699 394.644C242.043 394.644 243.905 392.402 243.905 389.362V388.412ZM266.401 378.988V397H262.829V378.988H266.401ZM267.009 372.49C267.009 373.782 265.907 374.77 264.615 374.77C263.323 374.77 262.259 373.744 262.259 372.49C262.259 371.198 263.323 370.172 264.615 370.172C265.907 370.172 267.009 371.16 267.009 372.49ZM284.823 381.458L282.353 383.548C281.555 382.256 279.997 381.306 278.173 381.306C276.539 381.306 274.829 381.952 274.829 383.662C274.829 385.182 276.197 385.752 278.933 386.36C282.353 387.12 284.975 388.526 284.975 391.68C284.975 395.936 281.441 397.494 277.793 397.494C275.057 397.494 272.245 396.43 270.535 394.264L273.081 392.098C274.031 393.504 275.855 394.606 277.869 394.606C279.655 394.606 281.441 393.96 281.441 391.984C281.441 390.312 279.807 389.704 276.729 388.982C274.335 388.412 271.485 387.386 271.485 384.004C271.485 380.128 274.867 378.494 278.287 378.494C280.833 378.494 283.531 379.52 284.823 381.458ZM298.858 378.988H302.24C302.316 379.9 302.392 381.192 302.392 381.952H302.506C303.38 380.014 305.774 378.494 308.358 378.494C312.994 378.494 315.084 381.8 315.084 385.828V397H311.512V387.006C311.512 384.08 310.714 381.496 307.408 381.496C304.596 381.496 302.582 383.852 302.582 387.424V397H299.01V382.864C299.01 381.914 298.972 380.166 298.858 378.988ZM339.367 387.956C339.367 393.504 335.149 397.494 329.639 397.494C324.129 397.494 319.949 393.504 319.949 387.956C319.949 382.408 324.129 378.494 329.639 378.494C335.149 378.494 339.367 382.408 339.367 387.956ZM335.643 387.956C335.643 384.536 333.515 381.458 329.639 381.458C325.801 381.458 323.635 384.536 323.635 387.956C323.635 391.376 325.801 394.492 329.639 394.492C333.515 394.492 335.643 391.376 335.643 387.956ZM341.774 378.988H345.65L349.716 392.744H349.792L354.086 378.988H357.848L362.218 392.744H362.294L366.36 378.988H370.122L364.156 397H360.432L355.986 383.472H355.91L351.502 397H347.778L341.774 378.988ZM394.421 385.828V385.334C394.421 382.674 392.635 381.382 389.975 381.382C387.961 381.382 386.061 382.256 384.845 383.472L382.945 381.192C384.693 379.52 387.391 378.494 390.317 378.494C395.485 378.494 397.841 381.572 397.841 385.562V393.428C397.841 394.644 397.917 396.126 398.107 397H394.877C394.687 396.202 394.573 395.252 394.573 394.416H394.459C393.167 396.354 391.115 397.456 388.417 397.456C385.567 397.456 381.881 396.05 381.881 391.908C381.881 386.474 388.341 385.828 394.421 385.828ZM394.421 388.412H393.547C390.013 388.412 385.529 388.792 385.529 391.832C385.529 393.96 387.429 394.644 389.215 394.644C392.559 394.644 394.421 392.402 394.421 389.362V388.412ZM419.501 378.988L412.281 397H408.405L401.071 378.988H405.023L410.305 393.162H410.381L415.701 378.988H419.501ZM434.165 385.828V385.334C434.165 382.674 432.379 381.382 429.719 381.382C427.705 381.382 425.805 382.256 424.589 383.472L422.689 381.192C424.437 379.52 427.135 378.494 430.061 378.494C435.229 378.494 437.585 381.572 437.585 385.562V393.428C437.585 394.644 437.661 396.126 437.851 397H434.621C434.431 396.202 434.317 395.252 434.317 394.416H434.203C432.911 396.354 430.859 397.456 428.161 397.456C425.311 397.456 421.625 396.05 421.625 391.908C421.625 386.474 428.085 385.828 434.165 385.828ZM434.165 388.412H433.291C429.757 388.412 425.273 388.792 425.273 391.832C425.273 393.96 427.173 394.644 428.959 394.644C432.303 394.644 434.165 392.402 434.165 389.362V388.412ZM447.161 378.988V397H443.589V378.988H447.161ZM447.769 372.49C447.769 373.782 446.667 374.77 445.375 374.77C444.083 374.77 443.019 373.744 443.019 372.49C443.019 371.198 444.083 370.172 445.375 370.172C446.667 370.172 447.769 371.16 447.769 372.49ZM457.033 368.272V397H453.461V368.272H457.033ZM474.466 385.828V385.334C474.466 382.674 472.68 381.382 470.02 381.382C468.006 381.382 466.106 382.256 464.89 383.472L462.99 381.192C464.738 379.52 467.436 378.494 470.362 378.494C475.53 378.494 477.886 381.572 477.886 385.562V393.428C477.886 394.644 477.962 396.126 478.152 397H474.922C474.732 396.202 474.618 395.252 474.618 394.416H474.504C473.212 396.354 471.16 397.456 468.462 397.456C465.612 397.456 461.926 396.05 461.926 391.908C461.926 386.474 468.386 385.828 474.466 385.828ZM474.466 388.412H473.592C470.058 388.412 465.574 388.792 465.574 391.832C465.574 393.96 467.474 394.644 469.26 394.644C472.604 394.644 474.466 392.402 474.466 389.362V388.412ZM487.461 394.15H487.385V397H483.927V368.272H487.499V381.686H487.613C488.829 379.938 491.071 378.494 494.035 378.494C499.393 378.494 503.041 382.636 503.041 387.956C503.041 393.238 499.507 397.494 493.959 397.494C491.413 397.494 488.867 396.316 487.461 394.15ZM499.355 387.956C499.355 384.574 497.265 381.458 493.351 381.458C489.703 381.458 487.271 384.536 487.271 387.994C487.271 391.452 489.703 394.492 493.351 394.492C497.265 394.492 499.355 391.338 499.355 387.956ZM511.658 368.272V397H508.086V368.272H511.658ZM520.351 386.398H531.067C530.991 383.548 529.319 381.306 526.013 381.306C522.935 381.306 520.579 383.586 520.351 386.398ZM534.677 387.842C534.677 388.222 534.677 388.64 534.639 389.058H520.351C520.465 392.136 523.049 394.53 526.203 394.53C528.635 394.53 530.421 393.314 531.447 391.794L533.955 393.808C532.017 396.316 529.395 397.494 526.203 397.494C520.731 397.494 516.703 393.694 516.703 388.032C516.703 382.408 520.731 378.494 526.013 378.494C531.333 378.494 534.677 382.104 534.677 387.842ZM105.318 440.956C105.318 446.504 101.1 450.494 95.59 450.494C90.08 450.494 85.9 446.504 85.9 440.956C85.9 435.408 90.08 431.494 95.59 431.494C101.1 431.494 105.318 435.408 105.318 440.956ZM101.594 440.956C101.594 437.536 99.466 434.458 95.59 434.458C91.752 434.458 89.586 437.536 89.586 440.956C89.586 444.376 91.752 447.492 95.59 447.492C99.466 447.492 101.594 444.376 101.594 440.956ZM110.119 431.988H113.501C113.577 432.9 113.653 434.192 113.653 434.952H113.767C114.641 433.014 117.035 431.494 119.619 431.494C124.255 431.494 126.345 434.8 126.345 438.828V450H122.773V440.006C122.773 437.08 121.975 434.496 118.669 434.496C115.857 434.496 113.843 436.852 113.843 440.424V450H110.271V435.864C110.271 434.914 110.233 433.166 110.119 431.988ZM170.503 446.846V450H154.695C146.487 450 140.711 444.566 140.711 436.206C140.711 428.112 146.677 422.412 154.733 422.412C162.713 422.412 168.641 428.112 168.641 436.206C168.641 440.994 166.399 444.718 163.093 446.77V446.846H170.503ZM144.777 436.206C144.777 442.096 148.653 446.694 154.695 446.694C160.623 446.694 164.613 442.096 164.613 436.206C164.613 430.468 160.813 425.718 154.733 425.718C148.691 425.718 144.777 430.468 144.777 436.206ZM190.099 450H186.717C186.641 449.088 186.565 447.796 186.565 447.036H186.489C185.577 448.936 183.221 450.494 180.599 450.494C175.963 450.494 173.873 447.188 173.873 443.16V431.988H177.445V441.944C177.445 444.908 178.243 447.492 181.549 447.492C184.399 447.492 186.375 445.136 186.375 441.564V431.988H189.947V446.124C189.947 447.074 189.985 448.822 190.099 450ZM199.752 431.988V450H196.18V431.988H199.752ZM200.36 425.49C200.36 426.782 199.258 427.77 197.966 427.77C196.674 427.77 195.61 426.744 195.61 425.49C195.61 424.198 196.674 423.172 197.966 423.172C199.258 423.172 200.36 424.16 200.36 425.49ZM221.176 434.458L218.592 436.548C217.832 435.37 216.16 434.496 214.45 434.496C210.726 434.496 208.56 437.536 208.56 440.994C208.56 444.414 210.726 447.492 214.488 447.492C216.312 447.492 217.87 446.732 218.82 445.516L221.214 447.682C219.694 449.43 217.376 450.494 214.488 450.494C208.94 450.494 204.798 446.732 204.798 440.994C204.798 435.332 208.902 431.494 214.412 431.494C216.958 431.494 219.694 432.52 221.176 434.458ZM228.402 421.272V439.816H228.516L236.078 431.988H240.866L232.43 440.158L241.588 450H236.648L228.516 440.652H228.402V450H224.83V421.272H228.402ZM244.983 450V423.096H254.255C258.321 423.096 262.691 424.768 262.691 429.898C262.691 432.862 260.791 434.99 257.979 435.75V435.826C261.437 436.244 263.945 438.6 263.945 442.362C263.945 447.53 259.461 450 253.837 450H244.983ZM248.745 426.25V434.458H253.647C256.535 434.458 258.929 433.204 258.929 430.278C258.929 427.39 256.611 426.25 253.039 426.25H248.745ZM248.745 437.65V446.808H253.457C256.649 446.808 260.145 445.82 260.145 442.172C260.145 439.018 257.903 437.65 253.799 437.65H248.745ZM287.414 440.956C287.414 446.504 283.196 450.494 277.686 450.494C272.176 450.494 267.996 446.504 267.996 440.956C267.996 435.408 272.176 431.494 277.686 431.494C283.196 431.494 287.414 435.408 287.414 440.956ZM283.69 440.956C283.69 437.536 281.562 434.458 277.686 434.458C273.848 434.458 271.682 437.536 271.682 440.956C271.682 444.376 273.848 447.492 277.686 447.492C281.562 447.492 283.69 444.376 283.69 440.956ZM310.607 440.956C310.607 446.504 306.389 450.494 300.879 450.494C295.369 450.494 291.189 446.504 291.189 440.956C291.189 435.408 295.369 431.494 300.879 431.494C306.389 431.494 310.607 435.408 310.607 440.956ZM306.883 440.956C306.883 437.536 304.755 434.458 300.879 434.458C297.041 434.458 294.875 437.536 294.875 440.956C294.875 444.376 297.041 447.492 300.879 447.492C304.755 447.492 306.883 444.376 306.883 440.956ZM319.208 421.272V439.816H319.322L326.884 431.988H331.672L323.236 440.158L332.394 450H327.454L319.322 440.652H319.208V450H315.636V421.272H319.208ZM347.575 434.458L345.105 436.548C344.307 435.256 342.749 434.306 340.925 434.306C339.291 434.306 337.581 434.952 337.581 436.662C337.581 438.182 338.949 438.752 341.685 439.36C345.105 440.12 347.727 441.526 347.727 444.68C347.727 448.936 344.193 450.494 340.545 450.494C337.809 450.494 334.997 449.43 333.287 447.264L335.833 445.098C336.783 446.504 338.607 447.606 340.621 447.606C342.407 447.606 344.193 446.96 344.193 444.984C344.193 443.312 342.559 442.704 339.481 441.982C337.087 441.412 334.237 440.386 334.237 437.004C334.237 433.128 337.619 431.494 341.039 431.494C343.585 431.494 346.283 432.52 347.575 434.458ZM380.002 440.956C380.002 446.504 375.784 450.494 370.274 450.494C364.764 450.494 360.584 446.504 360.584 440.956C360.584 435.408 364.764 431.494 370.274 431.494C375.784 431.494 380.002 435.408 380.002 440.956ZM376.278 440.956C376.278 437.536 374.15 434.458 370.274 434.458C366.436 434.458 364.27 437.536 364.27 440.956C364.27 444.376 366.436 447.492 370.274 447.492C374.15 447.492 376.278 444.376 376.278 440.956ZM384.803 431.988H388.185C388.261 432.9 388.337 434.192 388.337 434.952H388.451C389.325 433.014 391.719 431.494 394.303 431.494C398.939 431.494 401.029 434.8 401.029 438.828V450H397.457V440.006C397.457 437.08 396.659 434.496 393.353 434.496C390.541 434.496 388.527 436.852 388.527 440.424V450H384.955V435.864C384.955 434.914 384.917 433.166 384.803 431.988ZM410.72 421.272V450H407.148V421.272H410.72ZM420.553 431.988V450H416.981V431.988H420.553ZM421.161 425.49C421.161 426.782 420.059 427.77 418.767 427.77C417.475 427.77 416.411 426.744 416.411 425.49C416.411 424.198 417.475 423.172 418.767 423.172C420.059 423.172 421.161 424.16 421.161 425.49ZM426.625 431.988H430.007C430.083 432.9 430.159 434.192 430.159 434.952H430.273C431.147 433.014 433.541 431.494 436.125 431.494C440.761 431.494 442.851 434.8 442.851 438.828V450H439.279V440.006C439.279 437.08 438.481 434.496 435.175 434.496C432.363 434.496 430.349 436.852 430.349 440.424V450H426.777V435.864C426.777 434.914 426.739 433.166 426.625 431.988ZM451.364 439.398H462.08C462.004 436.548 460.332 434.306 457.026 434.306C453.948 434.306 451.592 436.586 451.364 439.398ZM465.69 440.842C465.69 441.222 465.69 441.64 465.652 442.058H451.364C451.478 445.136 454.062 447.53 457.216 447.53C459.648 447.53 461.434 446.314 462.46 444.794L464.968 446.808C463.03 449.316 460.408 450.494 457.216 450.494C451.744 450.494 447.716 446.694 447.716 441.032C447.716 435.408 451.744 431.494 457.026 431.494C462.346 431.494 465.69 435.104 465.69 440.842ZM475.808 423.096V442.134H472.046V423.096H475.808ZM476.492 447.72C476.492 449.05 475.39 450.228 473.946 450.228C472.54 450.228 471.4 449.088 471.4 447.758C471.4 446.39 472.502 445.25 473.946 445.25C475.39 445.25 476.492 446.352 476.492 447.72Z" fill="#8D9096"/>
<path d="M200.836 125.182C196.021 115.114 187.63 107.088 177.215 102.591C166.799 98.0933 155.066 97.4285 144.187 100.719C133.308 104.011 124.02 111.034 118.042 120.491C112.065 129.947 109.803 141.196 111.675 152.154C105.274 153.662 99.6583 157.4 95.8852 162.664C92.1122 167.928 90.4417 174.355 91.1883 180.736C91.9348 187.118 95.0468 193.013 99.9387 197.313C104.831 201.613 111.165 204.021 117.75 204.083H131.25C133.04 204.083 134.757 203.39 136.023 202.155C137.289 200.921 138 199.246 138 197.5C138 195.754 137.289 194.079 136.023 192.845C134.757 191.61 133.04 190.917 131.25 190.917H117.75C115.529 190.919 113.341 190.387 111.381 189.368C109.421 188.348 107.749 186.873 106.514 185.073C105.279 183.272 104.518 181.202 104.299 179.046C104.081 176.89 104.411 174.715 105.26 172.714C106.11 170.712 107.453 168.946 109.17 167.571C110.887 166.197 112.926 165.257 115.104 164.835C117.283 164.414 119.535 164.522 121.66 165.153C123.786 165.783 125.719 166.915 127.288 168.448C128.561 169.647 130.266 170.311 132.036 170.296C133.806 170.281 135.499 169.588 136.75 168.368C138.002 167.147 138.712 165.496 138.727 163.77C138.742 162.044 138.062 160.381 136.832 159.139C133.692 156.114 129.833 153.893 125.6 152.674C124.895 150.116 124.526 147.482 124.5 144.833C124.482 137.735 126.823 130.822 131.172 125.13C135.521 119.438 141.645 115.274 148.624 113.261C155.604 111.249 163.065 111.497 169.888 113.967C176.711 116.438 182.53 120.999 186.472 126.966C178.593 129.376 171.672 134.107 166.661 140.508C165.644 141.899 165.222 143.62 165.482 145.309C165.743 146.998 166.666 148.522 168.057 149.56C169.449 150.597 171.199 151.066 172.938 150.869C174.678 150.671 176.27 149.822 177.38 148.5C179.886 145.295 183.12 142.702 186.828 140.923C190.537 139.144 194.618 138.229 198.75 138.25C205.911 138.25 212.778 141.024 217.842 145.963C222.905 150.901 225.75 157.599 225.75 164.583C225.75 171.567 222.905 178.265 217.842 183.204C212.778 188.142 205.911 190.917 198.75 190.917C196.96 190.917 195.243 191.61 193.977 192.845C192.711 194.079 192 195.754 192 197.5C192 199.246 192.711 200.921 193.977 202.155C195.243 203.39 196.96 204.083 198.75 204.083C209.189 203.909 219.157 199.81 226.571 192.641C233.986 185.472 238.276 175.787 238.545 165.607C238.814 155.427 235.042 145.54 228.016 138.007C220.989 130.475 211.252 125.88 200.836 125.182V125.182Z" fill="#0D333F"/>
<path d="M177.103 186.262L161.625 201.358L156.272 196.137C154.999 194.938 153.294 194.274 151.524 194.289C149.755 194.304 148.062 194.997 146.81 196.217C145.559 197.438 144.849 199.089 144.833 200.815C144.818 202.541 145.498 204.204 146.728 205.446L156.853 215.321C158.119 216.555 159.835 217.249 161.625 217.249C163.415 217.249 165.131 216.555 166.397 215.321L186.647 195.571C187.877 194.329 188.557 192.666 188.542 190.94C188.526 189.214 187.817 187.563 186.565 186.342C185.314 185.122 183.621 184.429 181.851 184.414C180.081 184.399 178.376 185.063 177.103 186.262Z" fill="#0FD46C"/>
</g>
</g>
<defs>
<filter id="filter0_d_1_2359" x="0" y="0" width="650" height="739" filterUnits="userSpaceOnUse" color-interpolation-filters="sRGB">
<feFlood flood-opacity="0" result="BackgroundImageFix"/>
<feColorMatrix in="SourceAlpha" type="matrix" values="0 0 0 0 0 0 0 0 0 0 0 0 0 0 0 0 0 0 127 0" result="hardAlpha"/>
<feOffset dy="11"/>
<feGaussianBlur stdDeviation="22.5"/>
<feComposite in2="hardAlpha" operator="out"/>
<feColorMatrix type="matrix" values="0 0 0 0 0 0 0 0 0 0 0 0 0 0 0 0 0 0 0.2 0"/>
<feBlend mode="normal" in2="BackgroundImageFix" result="effect1_dropShadow_1_2359"/>
<feBlend mode="normal" in="SourceGraphic" in2="effect1_dropShadow_1_2359" result="shape"/>
</filter>
<clipPath id="clip0_1_2359">
<rect x="45" y="34" width="560" height="649" rx="26" fill="white"/>
</clipPath>
</defs>
</svg>
