<svg width="650" height="739" viewBox="0 0 650 739" fill="none" xmlns="http://www.w3.org/2000/svg">
<g filter="url(#filter0_d_1_2355)">
<rect x="45" y="34" width="560" height="649" rx="26" fill="white"/>
<path d="M140.032 89.3521L124.744 129H115.168L100.16 89.3521H110.912L120.096 117.464H120.32L129.448 89.3521H140.032ZM151.74 92.2081C151.74 95.0641 149.388 97.2481 146.476 97.2481C143.508 97.2481 141.212 94.9521 141.212 92.2081C141.212 89.5201 143.508 87.1681 146.476 87.1681C149.388 87.1681 151.74 89.4081 151.74 92.2081ZM151.068 129H141.884V101.112H151.068V129ZM165.734 111.864H177.55C177.55 108.952 175.702 106.544 172.062 106.544C168.534 106.544 165.958 109.008 165.734 111.864ZM186.006 115.392C186.006 116.12 186.006 116.904 185.95 117.576H165.734C166.014 120.656 169.094 122.84 172.398 122.84C175.31 122.84 177.326 121.608 178.558 119.928L184.942 123.96C182.31 127.768 177.942 129.896 172.286 129.896C163.886 129.896 156.942 124.576 156.942 115.168C156.942 106.04 163.55 100.216 172.006 100.216C180.238 100.216 186.006 105.872 186.006 115.392ZM236.893 101.112L227.205 129H217.965L212.477 111.64H212.365L206.989 129H197.749L188.117 101.112H198.029L202.845 118.752H203.013L207.997 101.112H217.237L222.389 118.752H222.501L227.373 101.112H236.893ZM272.962 100.552L272.57 108.616C271.73 108.392 270.946 108.336 270.219 108.336C265.29 108.336 263.666 112.368 263.666 114.664V129H254.482V101.112H263.33V105.144H263.442C264.842 102.344 267.586 100.328 271.003 100.328C271.73 100.328 272.514 100.384 272.962 100.552ZM283.093 111.864H294.909C294.909 108.952 293.061 106.544 289.421 106.544C285.893 106.544 283.317 109.008 283.093 111.864ZM303.365 115.392C303.365 116.12 303.365 116.904 303.309 117.576H283.093C283.373 120.656 286.453 122.84 289.757 122.84C292.669 122.84 294.685 121.608 295.917 119.928L302.301 123.96C299.669 127.768 295.301 129.896 289.645 129.896C281.245 129.896 274.301 124.576 274.301 115.168C274.301 106.04 280.909 100.216 289.365 100.216C297.597 100.216 303.365 105.872 303.365 115.392ZM340.085 114.944C340.085 122.728 335.213 129.784 326.813 129.784C323.397 129.784 320.093 128.328 318.357 125.92H318.245V142.44H309.061V101.112H317.797V104.528H317.965C319.645 102.288 322.781 100.328 326.869 100.328C334.989 100.328 340.085 107.16 340.085 114.944ZM331.181 114.944C331.181 111.36 328.997 107.832 324.629 107.832C320.485 107.832 317.909 111.472 317.909 115C317.909 118.64 320.485 122.168 324.629 122.168C328.997 122.168 331.181 118.584 331.181 114.944ZM375.433 114.944C375.433 124.072 368.377 129.896 359.921 129.896C351.521 129.896 344.465 124.072 344.465 114.944C344.465 105.816 351.521 100.216 359.921 100.216C368.377 100.216 375.433 105.816 375.433 114.944ZM366.585 114.944C366.585 111.36 364.233 107.832 359.921 107.832C355.609 107.832 353.369 111.36 353.369 114.944C353.369 118.528 355.665 122.168 359.977 122.168C364.289 122.168 366.585 118.528 366.585 114.944ZM399.728 100.552L399.336 108.616C398.496 108.392 397.712 108.336 396.984 108.336C392.056 108.336 390.432 112.368 390.432 114.664V129H381.248V101.112H390.096V105.144H390.208C391.608 102.344 394.352 100.328 397.768 100.328C398.496 100.328 399.28 100.384 399.728 100.552ZM419.315 108H412.763V118.64C412.763 121.216 413.603 122.56 416.235 122.56C417.131 122.56 418.251 122.392 418.923 122.112L419.035 128.832C417.803 129.28 415.675 129.672 413.715 129.672C406.267 129.672 403.803 125.696 403.803 119.76V108H399.323V101.112H403.747V93.7761H412.763V101.112H419.315V108ZM445.079 104.136L440.039 109.344C438.583 107.944 436.455 106.824 434.215 106.824C432.479 106.824 430.743 107.44 430.743 109.064C430.743 110.632 432.255 111.08 435.839 111.864C440.095 112.816 444.743 114.944 444.743 120.376C444.743 127.432 438.527 129.896 432.815 129.896C428.279 129.896 423.575 128.384 420.663 125.584L425.815 120.152C427.439 121.944 429.959 123.288 432.647 123.288C434.159 123.288 435.951 122.672 435.951 120.88C435.951 119.144 434.215 118.584 430.407 117.688C426.543 116.792 422.287 114.832 422.287 109.568C422.287 102.904 428.559 100.216 433.879 100.216C438.023 100.216 442.335 101.56 445.079 104.136Z" fill="#0D333F"/>
<mask id="mask0_1_2355" style="mask-type:alpha" maskUnits="userSpaceOnUse" x="45" y="156" width="560" height="500">
<rect x="45" y="156.8" width="560" height="498.4" fill="#C4C4C4"/>
</mask>
<g mask="url(#mask0_1_2355)">
<path fill-rule="evenodd" clip-rule="evenodd" d="M35.8555 529.317H87.0137L105.404 365.474H127.881L151.891 516.013H173.858L195.313 506.143L221.868 532.208L222.807 586.077L35.8555 585.706V529.317Z" fill="#53B700" fill-opacity="0.292259"/>
<path d="M35.8555 528.122H86.6638L104.924 365.474H127.243L151.083 514.916H172.894L192.895 505.4L220.938 531.535" stroke="#53B700" stroke-width="4.67379"/>
<path d="M506.972 586.077L515.074 546.976H537.49L561.944 509.122H584.36L608.305 491.519H675.554L698.479 454.029H742.531" stroke="#53B700" stroke-width="5.60855" stroke-linecap="round" stroke-linejoin="round" stroke-dasharray="1.87 9.35"/>
<path d="M220.945 530.797L238.645 489.529L282.857 488.835L311.641 415H341.153L355.909 453.982H378.378L400.78 391.594H444.518L462.113 586.077" stroke="#53B700" stroke-width="5.60855" stroke-linecap="round" stroke-linejoin="round" stroke-dasharray="1.87 9.35"/>
<path d="M744.237 587.012H39.7515" stroke="#BABEC5" stroke-width="1.86952" stroke-linecap="square"/>
<path fill-rule="evenodd" clip-rule="evenodd" d="M378.382 453.759L400.787 391.594H445.597L462.441 586.077H505.549L515.357 547.021H537.762L562.204 509.139H584.609L608.541 492.326H675.756L698.67 454.752H744.411L742.699 584.847H378.382L220.947 585.706V529.999L238.49 488.65L281.566 488.383L311.182 414.955H340.978L355.681 453.863L378.382 453.759Z" fill="#53B700" fill-opacity="0.2"/>
<mask id="mask1_1_2355" style="mask-type:luminance" maskUnits="userSpaceOnUse" x="220" y="391" width="525" height="196">
<path fill-rule="evenodd" clip-rule="evenodd" d="M378.382 453.759L400.787 391.594H445.597L462.441 586.077H505.549L515.357 547.021H537.762L562.204 509.139H584.609L608.541 492.326H675.756L698.67 454.752H744.411L742.699 584.847H378.382L220.947 585.706V529.999L238.49 488.65L281.566 488.383L311.182 414.955H336.128L355.681 453.863L378.382 453.759Z" fill="white"/>
</mask>
<g mask="url(#mask1_1_2355)">
</g>
<path d="M414.765 637.355V310.335" stroke="#6B6C72" stroke-width="1.77517" stroke-linecap="round"/>
<ellipse cx="415.042" cy="391.716" rx="15.372" ry="15.374" fill="#8FD500" fill-opacity="0.420318"/>
<ellipse cx="415.039" cy="391.716" rx="7.686" ry="7.68698" fill="white" stroke="#62C000" stroke-width="2.48524"/>
<path d="M462.099 586.077L468.209 638.423H492.657L506.968 586.077" stroke="#D52B1E" stroke-width="5.60855" stroke-linecap="round" stroke-linejoin="round" stroke-dasharray="1.87 9.35"/>
<path fill-rule="evenodd" clip-rule="evenodd" d="M462.099 586.077L468.209 638.423H492.657L506.968 586.077" fill="#DF4127" fill-opacity="0.25"/>
<path d="M744.238 586.077H39.7521" stroke="#BABEC5" stroke-width="1.86952" stroke-linecap="square"/>
<path d="M191.249 603.823V621.211H188.477V603.823H182.121V601.387H197.605V603.823H191.249ZM210.866 614.547C210.866 618.635 207.758 621.575 203.698 621.575C199.638 621.575 196.558 618.635 196.558 614.547C196.558 610.459 199.638 607.575 203.698 607.575C207.758 607.575 210.866 610.459 210.866 614.547ZM208.122 614.547C208.122 612.027 206.554 609.759 203.698 609.759C200.87 609.759 199.274 612.027 199.274 614.547C199.274 617.067 200.87 619.363 203.698 619.363C206.554 619.363 208.122 617.067 208.122 614.547ZM225.1 619.111C224.092 620.707 222.188 621.575 220.312 621.575C216.224 621.575 213.62 618.439 213.62 614.547C213.62 610.627 216.308 607.575 220.284 607.575C222.44 607.575 224.092 608.639 225.016 609.927H225.072V600.043H227.704V621.211H225.156V619.111H225.1ZM216.364 614.547C216.364 617.039 217.876 619.363 220.76 619.363C223.448 619.363 225.24 617.123 225.24 614.575C225.24 612.027 223.448 609.759 220.76 609.759C217.876 609.759 216.364 612.055 216.364 614.547ZM240.55 612.979V612.615C240.55 610.655 239.234 609.703 237.274 609.703C235.79 609.703 234.39 610.347 233.494 611.243L232.094 609.563C233.382 608.331 235.37 607.575 237.526 607.575C241.334 607.575 243.07 609.843 243.07 612.783V618.579C243.07 619.475 243.126 620.567 243.266 621.211H240.886C240.746 620.623 240.662 619.923 240.662 619.307H240.578C239.626 620.735 238.114 621.547 236.126 621.547C234.026 621.547 231.31 620.511 231.31 617.459C231.31 613.455 236.07 612.979 240.55 612.979ZM240.55 614.883H239.906C237.302 614.883 233.998 615.163 233.998 617.403C233.998 618.971 235.398 619.475 236.714 619.475C239.178 619.475 240.55 617.823 240.55 615.583V614.883ZM248.389 607.939L252.505 618.355H252.561L256.229 607.939H259.029L252.589 624.347C251.721 626.559 250.601 627.931 247.997 627.931C247.437 627.931 246.849 627.875 246.261 627.735L246.513 625.411C246.933 625.551 247.409 625.635 247.829 625.635C249.201 625.635 249.733 624.851 250.293 623.423L251.133 621.211L245.449 607.939H248.389Z" fill="#8D9096"/>
<g filter="url(#filter1_d_1_2355)">
<path fill-rule="evenodd" clip-rule="evenodd" d="M175.66 363.238C169.955 363.238 165.331 358.614 165.331 352.909V183.754C165.331 178.049 169.955 173.424 175.66 173.424H474.339C480.044 173.424 484.669 178.049 484.669 183.754V352.909C484.669 358.614 480.044 363.238 474.34 363.238H175.66Z" fill="#393A3D"/>
</g>
<path d="M214.91 266.776V270.288C218.783 270.391 223.277 271.63 226.479 274.213C224.826 276.124 223.174 277.983 221.469 279.842C219.765 278.138 217.079 277.105 214.91 277.053V285.317C220.23 286.918 226.634 289.19 226.634 296.576C226.634 304.117 220.746 307.68 214.703 307.887V311.657H210.881V307.887C206.44 307.732 201.533 306.182 198.125 303.135C199.932 301.276 201.792 299.365 203.548 297.454C205.407 299.468 208.609 300.966 210.881 301.018V291.979C204.942 290.378 199.622 288.106 199.622 281.185C199.622 274.419 205.717 270.597 211.14 270.339V266.776H214.91ZM211.14 284.439V276.95C209.28 277.157 207.524 278.345 207.524 280.617C207.524 282.786 208.971 283.871 211.14 284.439ZM214.703 292.909V301.069C217.027 300.966 218.474 299.417 218.474 297.041C218.474 294.665 216.873 293.58 214.703 292.909ZM252.999 307.37H244.322V280.514L237.505 285.782L233.011 279.636L245.045 270.804H252.999V307.37ZM293.206 296.731C293.206 304.736 286.13 308.352 279.416 308.352C272.753 308.352 266.71 305.459 264.748 298.642L272.805 296.524C273.476 298.952 275.697 301.069 279.003 301.069C281.482 301.069 284.322 299.83 284.322 296.421C284.322 292.702 280.5 291.618 276.885 291.618H274.561V285.265H277.092C280.345 285.265 283.496 284.439 283.496 280.927C283.496 278.293 281.275 276.898 278.899 276.898C276.42 276.898 274.458 278.499 273.889 280.979L265.832 279.119C267.589 272.973 273.373 269.823 279.467 269.823C285.923 269.823 292.328 273.128 292.328 280.152C292.328 284.181 289.745 287.176 286.181 288.106V288.261C290.313 289.242 293.206 292.651 293.206 296.731ZM309.499 299.107L304.49 313.775H297.517L301.391 299.107H309.499ZM343.576 300.243H338.567V307.37H330.458V300.243H313.26V292.961L328.134 270.804H338.515V293.219H343.576V300.243ZM330.51 293.219V279.687H330.355L321.678 293.219H330.51ZM376.346 288.984C376.346 299.365 372.421 308.352 362.091 308.352C351.71 308.352 347.733 299.365 347.733 288.984C347.733 278.654 351.71 269.823 362.091 269.823C372.421 269.823 376.346 278.654 376.346 288.984ZM367.463 288.984C367.463 284.387 366.636 277.157 362.091 277.157C357.495 277.157 356.617 284.387 356.617 288.984C356.617 293.684 357.495 300.914 362.091 300.914C366.636 300.914 367.463 293.684 367.463 288.984ZM409.735 288.984C409.735 299.365 405.81 308.352 395.48 308.352C385.099 308.352 381.122 299.365 381.122 288.984C381.122 278.654 385.099 269.823 395.48 269.823C405.81 269.823 409.735 278.654 409.735 288.984ZM400.852 288.984C400.852 284.387 400.025 277.157 395.48 277.157C390.884 277.157 390.006 284.387 390.006 288.984C390.006 293.684 390.884 300.914 395.48 300.914C400.025 300.914 400.852 293.684 400.852 288.984Z" fill="white"/>
<path d="M209.518 221.113V235.956C209.518 239.148 208.402 243.61 202.917 243.61C199.385 243.61 197.247 241.658 196.472 238.776L200.067 237.754C200.438 239.21 201.492 240.109 202.855 240.109C205.087 240.109 205.613 238.342 205.613 235.832V221.113H209.518ZM232.936 221.113V234.996C232.936 240.295 229.125 243.61 224.105 243.61C219.084 243.61 215.273 240.295 215.273 234.996V221.113H219.177V234.841C219.177 237.382 220.355 240.109 224.105 240.109C227.854 240.109 229.032 237.382 229.032 234.841V221.113H232.936ZM238.872 243.053V221.113H242.776V239.582H252.104V243.053H238.872ZM263.993 243.053V239.644L272.452 231.339C273.816 230.006 274.684 228.736 274.684 227.032C274.684 224.986 273.165 223.654 271.182 223.654C269.075 223.654 267.742 225.265 267.463 227.403L263.838 226.846C264.272 223.22 267.215 220.555 271.244 220.555C275.055 220.555 278.557 222.755 278.557 226.97C278.557 229.79 276.977 231.742 275.024 233.601L268.703 239.644H278.588V243.053H263.993ZM290.705 243.053V225.637L286.367 229.201L284.198 226.629L291.046 221.113H294.424V243.053H290.705Z" fill="white"/>
<g filter="url(#filter2_d_1_2355)">
<path fill-rule="evenodd" clip-rule="evenodd" d="M435.186 359.911L393.869 359.911L414.527 380.569L435.186 359.911Z" fill="#393A3D"/>
</g>
<path d="M312.365 242.635V220.695H319.523C324.543 220.695 327.797 222.462 327.797 227.048C327.797 231.882 323.924 233.556 319.275 233.556H316.269V242.635H312.365ZM316.269 230.271H318.996C321.538 230.271 323.862 229.651 323.862 227.048C323.862 224.445 321.538 223.98 319.12 223.98H316.269V230.271ZM329.67 242.635V227.761H333.234V230.24H333.296C334.102 228.535 335.682 227.327 337.634 227.327C337.913 227.327 338.285 227.358 338.533 227.42V230.829C338.037 230.705 337.727 230.674 337.387 230.674C334.04 230.674 333.389 233.587 333.389 234.671V242.635H329.67ZM339.546 235.136C339.546 230.457 343.14 227.327 347.634 227.327C352.127 227.327 355.722 230.457 355.722 235.136C355.722 239.815 352.127 243.069 347.634 243.069C343.14 243.069 339.546 239.815 339.546 235.136ZM343.326 235.136C343.326 237.46 344.69 239.97 347.634 239.97C350.578 239.97 351.941 237.46 351.941 235.136C351.941 232.812 350.578 230.364 347.634 230.364C344.69 230.364 343.326 232.812 343.326 235.136ZM359.389 227.761H363.108V243.534C363.108 247.097 362.147 250.072 357.716 250.072C357.096 250.072 356.414 249.979 356.043 249.886L356.352 246.726C356.693 246.819 357.096 246.85 357.375 246.85C359.141 246.85 359.389 245.393 359.389 243.689V227.761ZM358.862 222.71C358.862 221.532 359.854 220.478 361.218 220.478C362.581 220.478 363.635 221.439 363.635 222.71C363.635 223.98 362.581 224.941 361.218 224.941C359.854 224.941 358.862 223.887 358.862 222.71ZM370.47 233.711H378.093C378.093 231.789 377.009 230.116 374.591 230.116C372.391 230.116 370.625 231.634 370.47 233.711ZM381.812 235.384C381.812 235.725 381.812 236.035 381.781 236.376H370.47C370.625 238.483 372.546 240.032 374.715 240.032C376.575 240.032 377.814 239.288 378.651 238.111L381.13 240.094C379.674 242.077 377.566 243.069 374.746 243.069C370.16 243.069 366.751 240.125 366.751 235.291C366.751 230.488 370.129 227.327 374.622 227.327C378.775 227.327 381.812 230.023 381.812 235.384ZM398.118 229.651L395.577 231.882C394.989 231.046 393.718 230.426 392.509 230.426C389.783 230.426 388.419 232.874 388.419 235.198C388.419 237.522 389.814 239.97 392.633 239.97C393.78 239.97 395.051 239.505 395.763 238.638L398.087 240.993C396.848 242.325 394.803 243.069 392.602 243.069C388.202 243.069 384.545 240.156 384.545 235.198C384.545 230.364 388.14 227.327 392.509 227.327C394.679 227.327 396.941 228.195 398.118 229.651ZM401.009 230.736H398.406V227.761H401.009V223.453H404.666V227.761H408.384V230.736H404.666V237.646C404.666 238.979 404.976 239.939 406.618 239.939C407.114 239.939 407.764 239.846 408.198 239.629L408.322 242.542C407.671 242.79 406.68 242.945 405.843 242.945C401.908 242.945 401.009 240.528 401.009 237.677V230.736ZM411.137 242.635V227.761H414.856V242.635H411.137ZM410.611 222.71C410.611 221.532 411.602 220.478 412.966 220.478C414.329 220.478 415.383 221.439 415.383 222.71C415.383 223.98 414.329 224.941 412.966 224.941C411.602 224.941 410.611 223.887 410.611 222.71ZM418.499 235.136C418.499 230.457 422.094 227.327 426.587 227.327C431.081 227.327 434.675 230.457 434.675 235.136C434.675 239.815 431.081 243.069 426.587 243.069C422.094 243.069 418.499 239.815 418.499 235.136ZM422.28 235.136C422.28 237.46 423.644 239.97 426.587 239.97C429.531 239.97 430.895 237.46 430.895 235.136C430.895 232.812 429.531 230.364 426.587 230.364C423.644 230.364 422.28 232.812 422.28 235.136ZM438.281 242.635V227.761H441.814V230.147H441.876C442.526 228.659 444.293 227.327 446.493 227.327C450.366 227.327 451.978 230.302 451.978 233.339V242.635H448.259V234.392C448.259 232.626 447.856 230.426 445.47 230.426C443.115 230.426 442 232.471 442 234.454V242.635H438.281Z" fill="#F4F5F8"/>
</g>
</g>
<defs>
<filter id="filter0_d_1_2355" x="0" y="0" width="650" height="739" filterUnits="userSpaceOnUse" color-interpolation-filters="sRGB">
<feFlood flood-opacity="0" result="BackgroundImageFix"/>
<feColorMatrix in="SourceAlpha" type="matrix" values="0 0 0 0 0 0 0 0 0 0 0 0 0 0 0 0 0 0 127 0" result="hardAlpha"/>
<feOffset dy="11"/>
<feGaussianBlur stdDeviation="22.5"/>
<feColorMatrix type="matrix" values="0 0 0 0 0 0 0 0 0 0 0 0 0 0 0 0 0 0 0.2 0"/>
<feBlend mode="normal" in2="BackgroundImageFix" result="effect1_dropShadow_1_2355"/>
<feBlend mode="normal" in="SourceGraphic" in2="effect1_dropShadow_1_2355" result="shape"/>
</filter>
<filter id="filter1_d_1_2355" x="124.013" y="152.766" width="401.974" height="272.449" filterUnits="userSpaceOnUse" color-interpolation-filters="sRGB">
<feFlood flood-opacity="0" result="BackgroundImageFix"/>
<feColorMatrix in="SourceAlpha" type="matrix" values="0 0 0 0 0 0 0 0 0 0 0 0 0 0 0 0 0 0 127 0" result="hardAlpha"/>
<feOffset dy="20.6589"/>
<feGaussianBlur stdDeviation="20.6589"/>
<feColorMatrix type="matrix" values="0 0 0 0 0 0 0 0 0 0 0 0 0 0 0 0 0 0 0.1 0"/>
<feBlend mode="normal" in2="BackgroundImageFix" result="effect1_dropShadow_1_2355"/>
<feBlend mode="normal" in="SourceGraphic" in2="effect1_dropShadow_1_2355" result="shape"/>
</filter>
<filter id="filter2_d_1_2355" x="352.551" y="339.252" width="123.953" height="103.294" filterUnits="userSpaceOnUse" color-interpolation-filters="sRGB">
<feFlood flood-opacity="0" result="BackgroundImageFix"/>
<feColorMatrix in="SourceAlpha" type="matrix" values="0 0 0 0 0 0 0 0 0 0 0 0 0 0 0 0 0 0 127 0" result="hardAlpha"/>
<feOffset dy="20.6589"/>
<feGaussianBlur stdDeviation="20.6589"/>
<feColorMatrix type="matrix" values="0 0 0 0 0 0 0 0 0 0 0 0 0 0 0 0 0 0 0.1 0"/>
<feBlend mode="normal" in2="BackgroundImageFix" result="effect1_dropShadow_1_2355"/>
<feBlend mode="normal" in="SourceGraphic" in2="effect1_dropShadow_1_2355" result="shape"/>
</filter>
</defs>
</svg>
