<svg width="650" height="739" viewBox="0 0 650 739" fill="none" xmlns="http://www.w3.org/2000/svg">
<g filter="url(#filter0_d_1_2356)">
<rect x="45" y="34" width="560" height="649" rx="26" fill="white"/>
<path d="M123.198 121.734C119.726 125.766 114.462 128.286 107.798 128.286C95.5898 128.286 86.4618 119.774 86.4618 107.342C86.4618 94.6298 95.8698 86.5098 107.966 86.5098C113.51 86.5098 119.502 88.5258 122.806 92.3338L116.31 98.8298C114.518 96.3658 111.326 95.1898 108.302 95.1898C101.638 95.1898 96.8778 100.342 96.8778 107.342C96.8778 114.566 101.526 119.494 108.134 119.494C111.886 119.494 114.854 117.814 116.534 115.462L123.198 121.734ZM155.71 113.166C155.71 122.294 148.654 128.118 140.198 128.118C131.798 128.118 124.742 122.294 124.742 113.166C124.742 104.038 131.798 98.4378 140.198 98.4378C148.654 98.4378 155.71 104.038 155.71 113.166ZM146.862 113.166C146.862 109.582 144.51 106.054 140.198 106.054C135.886 106.054 133.646 109.582 133.646 113.166C133.646 116.75 135.942 120.39 140.254 120.39C144.566 120.39 146.862 116.75 146.862 113.166ZM189.077 127.222H179.837V111.99C179.837 108.91 178.997 106.11 175.693 106.11C172.445 106.11 170.765 108.91 170.765 112.102V127.222H161.525V99.3338H170.429V103.198H170.541C171.829 100.734 175.021 98.5498 178.885 98.5498C186.389 98.5498 189.077 104.374 189.077 109.974V127.222ZM223.584 127.222H214.344V111.99C214.344 108.91 213.504 106.11 210.2 106.11C206.952 106.11 205.272 108.91 205.272 112.102V127.222H196.032V99.3338H204.936V103.198H205.048C206.336 100.734 209.528 98.5498 213.392 98.5498C220.896 98.5498 223.584 104.374 223.584 109.974V127.222ZM237.932 110.086H249.748C249.748 107.174 247.9 104.766 244.26 104.766C240.732 104.766 238.156 107.23 237.932 110.086ZM258.204 113.614C258.204 114.342 258.204 115.126 258.148 115.798H237.932C238.212 118.878 241.292 121.062 244.596 121.062C247.508 121.062 249.524 119.83 250.756 118.15L257.14 122.182C254.508 125.99 250.14 128.118 244.484 128.118C236.084 128.118 229.14 122.798 229.14 113.39C229.14 104.262 235.748 98.4378 244.204 98.4378C252.436 98.4378 258.204 104.094 258.204 113.614ZM288.428 102.19L283.108 108.35C282.1 107.006 280.084 106.11 278.236 106.11C274.372 106.11 271.796 109.414 271.796 113.278C271.796 117.142 274.316 120.39 278.348 120.39C280.196 120.39 282.212 119.662 283.332 118.318L288.428 124.534C286.132 126.774 282.212 128.118 278.124 128.118C269.332 128.118 262.5 122.518 262.5 113.278C262.5 104.206 269.388 98.4378 278.068 98.4378C282.044 98.4378 286.244 99.9498 288.428 102.19ZM308.584 106.222H302.032V116.862C302.032 119.438 302.872 120.782 305.504 120.782C306.4 120.782 307.52 120.614 308.192 120.334L308.304 127.054C307.072 127.502 304.944 127.894 302.984 127.894C295.536 127.894 293.072 123.918 293.072 117.982V106.222H288.592V99.3338H293.016V91.9978H302.032V99.3338H308.584V106.222ZM118.83 181.166C118.83 188.95 113.958 196.006 105.558 196.006C102.142 196.006 98.8378 194.55 97.1018 192.142H96.9898V208.662H87.8058V167.334H96.5418V170.75H96.7098C98.3898 168.51 101.526 166.55 105.614 166.55C113.734 166.55 118.83 173.382 118.83 181.166ZM109.926 181.166C109.926 177.582 107.742 174.054 103.374 174.054C99.2298 174.054 96.6538 177.694 96.6538 181.222C96.6538 184.862 99.2298 188.39 103.374 188.39C107.742 188.39 109.926 184.806 109.926 181.166ZM143.09 166.774L142.698 174.838C141.858 174.614 141.074 174.558 140.346 174.558C135.418 174.558 133.794 178.59 133.794 180.886V195.222H124.61V167.334H133.458V171.366H133.57C134.97 168.566 137.714 166.55 141.13 166.55C141.858 166.55 142.642 166.606 143.09 166.774ZM153.221 178.086H165.037C165.037 175.174 163.189 172.766 159.549 172.766C156.021 172.766 153.445 175.23 153.221 178.086ZM173.493 181.614C173.493 182.342 173.493 183.126 173.437 183.798H153.221C153.501 186.878 156.581 189.062 159.885 189.062C162.797 189.062 164.813 187.83 166.045 186.15L172.429 190.182C169.797 193.99 165.429 196.118 159.773 196.118C151.373 196.118 144.429 190.798 144.429 181.39C144.429 172.262 151.037 166.438 159.493 166.438C167.725 166.438 173.493 172.094 173.493 181.614ZM223.989 195.222H214.805V179.99C214.805 176.798 214.077 174.11 210.829 174.11C207.693 174.11 206.181 177.022 206.181 180.158V195.222H196.997V179.318C196.997 176.126 195.765 174.11 193.021 174.11C190.109 174.11 188.429 176.742 188.429 180.102V195.222H179.189V167.334H188.093V171.198H188.205C189.493 168.846 192.349 166.55 196.549 166.55C200.581 166.55 203.381 168.286 204.949 171.31C206.797 168.398 209.709 166.55 213.853 166.55C221.413 166.55 223.989 172.71 223.989 177.974V195.222ZM240.891 158.43C240.891 161.286 238.539 163.47 235.627 163.47C232.659 163.47 230.363 161.174 230.363 158.43C230.363 155.742 232.659 153.39 235.627 153.39C238.539 153.39 240.891 155.63 240.891 158.43ZM240.219 195.222H231.035V167.334H240.219V195.222ZM274.709 195.222H265.861V191.358H265.749C264.461 193.822 261.269 196.006 257.349 196.006C249.845 196.006 247.213 190.182 247.213 184.582V167.334H256.453V182.454C256.453 185.59 257.237 188.39 260.597 188.39C263.789 188.39 265.525 185.59 265.525 182.398V167.334H274.709V195.222ZM326.692 195.222H317.508V179.99C317.508 176.798 316.78 174.11 313.532 174.11C310.396 174.11 308.884 177.022 308.884 180.158V195.222H299.7V179.318C299.7 176.126 298.468 174.11 295.724 174.11C292.812 174.11 291.132 176.742 291.132 180.102V195.222H281.892V167.334H290.796V171.198H290.908C292.196 168.846 295.052 166.55 299.252 166.55C303.284 166.55 306.084 168.286 307.652 171.31C309.5 168.398 312.412 166.55 316.556 166.55C324.116 166.55 326.692 172.71 326.692 177.974V195.222ZM364.09 184.022V183.07H362.914C358.882 183.07 354.346 183.574 354.346 186.878C354.346 189.006 356.474 189.734 358.322 189.734C362.018 189.734 364.09 187.494 364.09 184.022ZM351.882 176.126L347.234 171.142C350.482 168.062 355.13 166.438 359.666 166.438C369.018 166.438 372.49 171.03 372.49 181.166V195.222H364.09V192.254H363.922C362.522 194.55 359.33 195.894 356.026 195.894C351.602 195.894 345.89 193.71 345.89 187.158C345.89 179.094 355.69 177.75 363.81 177.75V177.302C363.81 174.558 361.626 173.27 358.77 173.27C356.138 173.27 353.562 174.558 351.882 176.126ZM410.369 181.166C410.369 188.95 405.497 196.006 397.097 196.006C393.681 196.006 390.377 194.55 388.641 192.142H388.529V208.662H379.345V167.334H388.081V170.75H388.249C389.929 168.51 393.065 166.55 397.153 166.55C405.273 166.55 410.369 173.382 410.369 181.166ZM401.465 181.166C401.465 177.582 399.281 174.054 394.913 174.054C390.769 174.054 388.193 177.694 388.193 181.222C388.193 184.862 390.769 188.39 394.913 188.39C399.281 188.39 401.465 184.806 401.465 181.166ZM447.174 181.166C447.174 188.95 442.302 196.006 433.902 196.006C430.486 196.006 427.182 194.55 425.446 192.142H425.334V208.662H416.15V167.334H424.886V170.75H425.054C426.734 168.51 429.87 166.55 433.958 166.55C442.078 166.55 447.174 173.382 447.174 181.166ZM438.27 181.166C438.27 177.582 436.086 174.054 431.718 174.054C427.574 174.054 424.998 177.694 424.998 181.222C424.998 184.862 427.574 188.39 431.718 188.39C436.086 188.39 438.27 184.806 438.27 181.166ZM474.402 170.358L469.362 175.566C467.906 174.166 465.778 173.046 463.538 173.046C461.802 173.046 460.066 173.662 460.066 175.286C460.066 176.854 461.578 177.302 465.162 178.086C469.418 179.038 474.066 181.166 474.066 186.598C474.066 193.654 467.85 196.118 462.138 196.118C457.602 196.118 452.898 194.606 449.986 191.806L455.138 186.374C456.762 188.166 459.282 189.51 461.97 189.51C463.482 189.51 465.274 188.894 465.274 187.102C465.274 185.366 463.538 184.806 459.73 183.91C455.866 183.014 451.61 181.054 451.61 175.79C451.61 169.126 457.882 166.438 463.202 166.438C467.346 166.438 471.658 167.782 474.402 170.358Z" fill="#0D333F"/>
<path d="M133.934 310.521V284.824L160.292 304.25C169.42 311.065 171.151 320.986 170.937 320.738C164.995 313.706 157.058 310.62 151.594 310.538L133.934 310.521Z" fill="#F7B780"/>
<path d="M151.2 360.531C151.2 363.558 148.442 366.043 145.325 366.043H128.491V333.694H145.325C148.462 333.694 151.2 336.149 151.2 339.206V360.531ZM128.623 316.067V284H109V384H150.064C161.616 384 170.975 374.641 170.975 363.089V336.979C170.975 325.426 161.616 316.067 150.064 316.067H128.623V316.067Z" fill="#F07D19"/>
<path fill-rule="evenodd" clip-rule="evenodd" d="M473.02 451.561C477.903 446.474 484.705 443.316 492.225 443.316C502.22 443.316 510.944 448.891 515.588 457.167C519.743 455.311 524.244 454.354 528.795 454.36C546.825 454.36 561.439 469.104 561.439 487.294C561.439 505.485 546.825 520.229 528.795 520.229C526.59 520.229 524.44 520.008 522.362 519.589C518.272 526.882 510.475 531.811 501.529 531.811C497.785 531.811 494.242 530.95 491.09 529.408C486.943 539.163 477.282 546 466.024 546C454.301 546 444.308 538.58 440.473 528.177C438.765 528.538 437.024 528.719 435.278 528.719C421.317 528.72 410 517.286 410 503.179C409.99 498.709 411.151 494.314 413.369 490.432C415.586 486.551 418.783 483.318 422.639 481.057C421.039 477.37 420.216 473.394 420.221 469.375C420.221 453.151 433.39 440 449.634 440C454.159 439.995 458.625 441.035 462.681 443.041C466.738 445.046 470.277 447.962 473.02 451.561Z" fill="#00A1E0"/>
<path fill-rule="evenodd" clip-rule="evenodd" d="M431.929 494.973L432.541 493.272C432.639 492.981 432.859 493.077 432.949 493.132C433.12 493.233 433.242 493.324 433.462 493.453C435.268 494.594 436.94 494.606 437.462 494.606C438.814 494.606 439.652 493.89 439.652 492.925V492.875C439.652 491.825 438.36 491.427 436.868 490.97L436.536 490.864C434.488 490.281 432.296 489.438 432.296 486.845V486.792C432.296 484.33 434.282 482.613 437.124 482.613L437.436 482.61C439.105 482.61 440.718 483.095 441.888 483.804C441.994 483.87 442.096 483.992 442.037 484.155L441.407 485.856C441.296 486.146 440.993 485.953 440.993 485.953C439.773 485.318 438.423 484.972 437.048 484.942C435.842 484.942 435.067 485.581 435.067 486.449V486.503C435.067 487.515 436.396 487.948 437.936 488.449L438.201 488.532C440.243 489.178 442.423 490.073 442.423 492.532V492.583C442.423 495.242 440.491 496.893 437.386 496.893C435.861 496.893 434.401 496.658 432.858 495.838C432.566 495.669 432.278 495.523 431.993 495.316C431.963 495.273 431.833 495.222 431.927 494.973H431.929ZM477.404 494.973L478.019 493.272C478.108 492.994 478.368 493.097 478.425 493.132C478.593 493.236 478.719 493.324 478.938 493.453C480.747 494.594 482.416 494.606 482.943 494.606C484.289 494.606 485.129 493.89 485.129 492.925V492.875C485.129 491.825 483.839 491.427 482.347 490.97L482.015 490.864C479.963 490.281 477.772 489.438 477.772 486.845V486.792C477.772 484.33 479.759 482.613 482.602 482.613L482.911 482.61C484.581 482.61 486.196 483.095 487.367 483.804C487.469 483.87 487.574 483.992 487.516 484.155C487.458 484.306 486.941 485.697 486.886 485.856C486.772 486.146 486.472 485.953 486.472 485.953C485.252 485.318 483.901 484.971 482.525 484.942C481.32 484.942 480.545 485.581 480.545 486.449V486.503C480.545 487.515 481.871 487.948 483.413 488.449L483.678 488.532C485.72 489.178 487.898 490.073 487.898 492.532V492.583C487.898 495.242 485.969 496.893 482.863 496.893C481.336 496.893 479.877 496.658 478.335 495.838C478.044 495.669 477.755 495.523 477.469 495.316C477.439 495.273 477.308 495.222 477.404 494.973V494.973ZM511.043 486.975C511.298 487.83 511.424 488.769 511.424 489.761C511.424 490.755 511.298 491.691 511.043 492.545C510.81 493.369 510.409 494.137 509.867 494.8C509.323 495.443 508.642 495.956 507.873 496.3C507.078 496.664 506.144 496.847 505.093 496.847C504.043 496.847 503.106 496.664 502.314 496.3C501.545 495.956 500.864 495.443 500.32 494.8C499.778 494.137 499.378 493.37 499.143 492.547C498.882 491.642 498.754 490.703 498.762 489.761C498.762 488.767 498.889 487.83 499.143 486.975C499.398 486.114 499.793 485.356 500.319 484.723C500.863 484.077 501.545 483.559 502.314 483.209C503.108 482.838 504.04 482.651 505.093 482.651C506.147 482.651 507.079 482.838 507.873 483.209C508.664 483.578 509.337 484.087 509.867 484.723C510.393 485.356 510.791 486.114 511.043 486.975ZM508.452 489.761C508.452 488.259 508.174 487.078 507.621 486.25C507.074 485.428 506.246 485.031 505.093 485.031C503.941 485.031 503.119 485.428 502.579 486.25C502.038 487.078 501.761 488.259 501.761 489.761C501.761 491.262 502.038 492.451 502.583 493.286C503.119 494.117 503.941 494.52 505.093 494.52C506.246 494.52 507.074 494.115 507.621 493.286C508.171 492.451 508.452 491.262 508.452 489.761V489.761ZM532.339 494.117L532.975 495.876C533.058 496.091 532.87 496.186 532.87 496.186C531.888 496.567 530.525 496.838 529.199 496.838C526.949 496.838 525.227 496.191 524.077 494.912C522.935 493.637 522.352 491.903 522.352 489.751C522.352 488.756 522.496 487.813 522.777 486.96C523.059 486.099 523.481 485.341 524.038 484.708C524.616 484.058 525.328 483.541 526.126 483.194C526.954 482.825 527.928 482.639 529.015 482.639C529.748 482.639 530.401 482.684 530.961 482.767C531.559 482.86 532.355 483.075 532.692 483.206C532.753 483.229 532.923 483.312 532.854 483.512C532.609 484.203 532.441 484.653 532.215 485.283C532.115 485.551 531.913 485.462 531.913 485.462C531.06 485.193 530.242 485.071 529.174 485.071C527.89 485.071 526.926 485.498 526.297 486.334C525.661 487.177 525.305 488.282 525.3 489.751C525.295 491.363 525.699 492.557 526.414 493.296C527.128 494.033 528.125 494.405 529.381 494.405C529.889 494.405 530.37 494.372 530.802 494.304C531.229 494.236 531.63 494.104 532.008 493.956C532.008 493.956 532.251 493.865 532.339 494.117ZM545.605 486.487C546.17 488.464 545.875 490.172 545.865 490.266C545.844 490.492 545.612 490.495 545.612 490.495L536.836 490.488C536.89 491.822 537.21 492.766 537.856 493.407C538.49 494.034 539.497 494.437 540.86 494.438C542.944 494.443 543.833 494.024 544.464 493.791C544.464 493.791 544.704 493.705 544.795 493.943L545.367 495.551C545.483 495.821 545.39 495.916 545.292 495.97C544.742 496.274 543.409 496.84 540.872 496.847C539.641 496.852 538.57 496.676 537.687 496.333C536.848 496.022 536.092 495.522 535.479 494.871C534.893 494.232 534.458 493.469 534.205 492.64C533.934 491.731 533.8 490.786 533.81 489.837C533.81 488.844 533.937 487.9 534.194 487.037C534.451 486.167 534.85 485.4 535.381 484.756C535.932 484.098 536.623 483.572 537.404 483.216C538.209 482.836 539.206 482.651 540.302 482.651C541.241 482.651 542.099 482.853 542.813 483.161C543.363 483.396 543.916 483.822 544.482 484.431C544.84 484.816 545.385 485.657 545.605 486.487V486.487ZM536.877 488.32H543.138C543.073 487.515 542.916 486.793 542.555 486.25C542.005 485.428 541.246 484.976 540.095 484.976C538.942 484.976 538.124 485.428 537.582 486.25C537.228 486.793 536.999 487.486 536.875 488.32H536.877ZM475.306 486.487C475.869 488.464 475.579 490.172 475.569 490.266C475.546 490.492 475.314 490.495 475.314 490.495L466.536 490.488C466.592 491.822 466.91 492.766 467.558 493.407C468.192 494.034 469.198 494.437 470.561 494.438C472.644 494.443 473.537 494.024 474.166 493.791C474.166 493.791 474.406 493.705 474.496 493.943L475.069 495.551C475.185 495.821 475.092 495.916 474.996 495.97C474.443 496.274 473.108 496.84 470.574 496.847C469.342 496.852 468.27 496.676 467.389 496.333C466.55 496.022 465.794 495.522 465.18 494.871C464.595 494.231 464.161 493.469 463.909 492.64C463.636 491.731 463.501 490.786 463.51 489.837C463.51 488.844 463.639 487.9 463.894 487.037C464.133 486.204 464.537 485.428 465.083 484.756C465.634 484.099 466.325 483.573 467.104 483.216C467.912 482.836 468.909 482.651 470.003 482.651C470.866 482.649 471.722 482.822 472.517 483.161C473.067 483.396 473.62 483.822 474.185 484.431C474.542 484.816 475.087 485.657 475.306 486.487V486.487ZM466.576 488.32H472.84C472.773 487.515 472.616 486.793 472.257 486.25C471.71 485.428 470.948 484.976 469.797 484.976C468.644 484.976 467.825 485.428 467.286 486.25C466.929 486.793 466.702 487.486 466.574 488.32H466.576ZM451.096 487.901C451.096 487.901 451.789 487.963 452.544 488.072V487.701C452.544 486.53 452.301 485.978 451.822 485.609C451.332 485.235 450.6 485.041 449.652 485.041C449.652 485.041 447.516 485.014 445.826 485.932C445.748 485.978 445.684 486.005 445.684 486.005C445.684 486.005 445.472 486.079 445.396 485.862L444.775 484.193C444.678 483.953 444.852 483.843 444.852 483.843C445.642 483.227 447.557 482.855 447.557 482.855C448.334 482.718 449.121 482.646 449.911 482.638C451.663 482.638 453.019 483.045 453.942 483.852C454.866 484.662 455.336 485.967 455.336 487.726L455.341 495.755C455.341 495.755 455.36 495.987 455.139 496.04C455.139 496.04 454.816 496.129 454.527 496.197C454.233 496.265 453.177 496.481 452.314 496.626C451.433 496.774 450.541 496.848 449.647 496.848C448.794 496.848 448.012 496.769 447.323 496.611C446.681 496.477 446.073 496.213 445.536 495.836C445.047 495.481 444.654 495.009 444.394 494.463C444.124 493.912 443.988 493.238 443.988 492.459C443.988 491.696 444.148 491.015 444.458 490.435C444.77 489.859 445.197 489.37 445.734 488.988C446.288 488.597 446.908 488.31 447.564 488.138C448.248 487.956 448.975 487.861 449.727 487.861C450.278 487.861 450.739 487.873 451.096 487.901V487.901ZM447.603 494.069C447.598 494.067 448.39 494.69 450.177 494.581C451.433 494.505 452.546 494.266 452.546 494.266V490.275C452.546 490.275 451.423 490.091 450.162 490.073C448.375 490.051 447.613 490.709 447.618 490.707C447.092 491.081 446.835 491.636 446.835 492.405C446.835 492.896 446.923 493.281 447.1 493.549C447.211 493.726 447.259 493.793 447.603 494.069V494.069ZM521.894 483.378C521.812 483.618 521.386 484.821 521.232 485.22C521.176 485.372 521.083 485.476 520.912 485.458C520.912 485.458 520.409 485.342 519.948 485.342C519.632 485.342 519.18 485.382 518.772 485.508C518.364 485.634 517.992 485.857 517.689 486.159C517.368 486.469 517.108 486.904 516.919 487.451C516.727 488.001 516.628 488.875 516.628 489.753V496.292C516.628 496.327 516.621 496.361 516.608 496.394C516.595 496.426 516.575 496.455 516.551 496.48C516.526 496.505 516.497 496.525 516.464 496.538C516.432 496.552 516.398 496.558 516.363 496.558H514.059C514.024 496.559 513.989 496.552 513.956 496.539C513.923 496.526 513.893 496.507 513.868 496.482C513.843 496.458 513.823 496.428 513.809 496.396C513.795 496.363 513.788 496.329 513.787 496.293V483.201C513.787 483.053 513.895 482.936 514.042 482.936H516.29C516.439 482.936 516.545 483.053 516.545 483.201V484.271C516.881 483.82 517.484 483.423 518.029 483.178C518.575 482.929 519.187 482.747 520.291 482.813C520.866 482.848 521.613 483.005 521.764 483.063C521.793 483.075 521.82 483.093 521.843 483.115C521.865 483.137 521.883 483.164 521.895 483.193C521.907 483.222 521.914 483.254 521.913 483.286C521.913 483.317 521.907 483.349 521.894 483.378V483.378ZM500.247 477.311C500.309 477.336 500.476 477.417 500.41 477.616L499.736 479.459C499.679 479.598 499.643 479.681 499.356 479.595C498.977 479.476 498.583 479.415 498.185 479.413C497.837 479.413 497.523 479.458 497.245 479.55C496.966 479.64 496.714 479.795 496.509 480.004C496.237 480.267 496.027 480.587 495.893 480.942C495.57 481.869 495.446 482.858 495.429 482.921H498.235C498.472 482.921 498.546 483.03 498.523 483.204L498.195 485.029C498.142 485.294 497.902 485.284 497.902 485.284H495.01L493.034 496.474C492.864 497.478 492.606 498.464 492.263 499.422C491.953 500.232 491.633 500.823 491.12 501.388C490.681 501.893 490.124 502.282 489.498 502.518C488.89 502.741 488.152 502.856 487.345 502.856C486.961 502.856 486.547 502.847 486.058 502.731C485.786 502.669 485.518 502.591 485.255 502.496C485.147 502.458 485.059 502.321 485.122 502.145C485.182 501.971 485.702 500.548 485.772 500.361C485.861 500.136 486.09 500.222 486.09 500.222C486.245 500.288 486.355 500.331 486.562 500.373C486.772 500.414 487.054 500.451 487.267 500.451C487.65 500.451 487.998 500.404 488.301 500.302C488.665 500.184 488.88 499.97 489.102 499.685C489.334 499.386 489.523 498.98 489.717 498.435C489.911 497.883 490.088 497.155 490.24 496.272L492.208 485.286H490.27C490.038 485.286 489.959 485.177 489.985 485.001L490.31 483.176C490.361 482.911 490.608 482.921 490.608 482.921H492.597L492.705 482.328C493.003 480.566 493.594 479.226 494.469 478.346C495.348 477.46 496.599 477.013 498.185 477.013C498.639 477.013 499.04 477.043 499.379 477.104C499.712 477.167 499.966 477.225 500.247 477.311V477.311ZM461.034 496.292C461.034 496.441 460.931 496.558 460.782 496.558H458.455C458.306 496.558 458.205 496.439 458.205 496.293V477.556C458.205 477.412 458.308 477.293 458.454 477.293H460.782C460.931 477.293 461.034 477.412 461.034 477.558V496.292V496.292Z" fill="white"/>
<circle cx="310" cy="494" r="54" fill="#2CA01C"/>
<path d="M446.932 320.935V309.747C448.41 309.056 449.662 307.96 450.542 306.585C451.421 305.211 451.892 303.615 451.899 301.983V301.722C451.893 299.441 450.984 297.256 449.372 295.643C447.759 294.031 445.574 293.122 443.293 293.116H443.032C440.752 293.122 438.567 294.031 436.954 295.643C435.341 297.256 434.433 299.441 434.427 301.722V301.983C434.434 303.615 434.905 305.211 435.784 306.585C436.663 307.96 437.915 309.056 439.394 309.747V320.935C435.143 321.585 431.139 323.347 427.788 326.041L397.068 302.14C397.287 301.351 397.404 300.538 397.416 299.72C397.419 297.8 396.851 295.922 395.787 294.324C394.722 292.726 393.207 291.48 391.434 290.743C389.661 290.007 387.709 289.812 385.826 290.184C383.942 290.557 382.211 291.479 380.852 292.835C379.492 294.191 378.566 295.92 378.189 297.803C377.812 299.686 378.002 301.638 378.735 303.413C379.467 305.187 380.71 306.705 382.305 307.774C383.9 308.842 385.776 309.414 387.697 309.416C389.383 309.41 391.038 308.96 392.495 308.111L422.699 331.624C419.979 335.728 418.559 340.557 418.627 345.481C418.694 350.405 420.245 355.193 423.076 359.222L413.885 368.414C413.147 368.179 412.378 368.054 411.604 368.042C410.026 368.042 408.483 368.51 407.171 369.387C405.859 370.264 404.837 371.51 404.233 372.968C403.629 374.426 403.471 376.03 403.779 377.578C404.086 379.125 404.846 380.547 405.962 381.663C407.078 382.779 408.5 383.539 410.048 383.847C411.595 384.155 413.2 383.997 414.658 383.393C416.116 382.789 417.362 381.766 418.238 380.454C419.115 379.142 419.583 377.599 419.583 376.021C419.572 375.247 419.447 374.478 419.212 373.741L428.305 364.648C431.273 366.915 434.72 368.474 438.383 369.206C442.045 369.938 445.827 369.823 449.438 368.871C453.05 367.918 456.396 366.153 459.222 363.71C462.047 361.267 464.277 358.211 465.741 354.775C467.205 351.339 467.865 347.614 467.67 343.884C467.475 340.154 466.43 336.518 464.616 333.253C462.801 329.988 460.265 327.182 457.2 325.047C454.135 322.912 450.623 321.505 446.932 320.935V320.935ZM443.166 357.736C440.678 357.736 438.245 356.999 436.176 355.616C434.108 354.234 432.495 352.269 431.543 349.97C430.591 347.671 430.342 345.142 430.827 342.702C431.312 340.261 432.511 338.02 434.27 336.26C436.029 334.501 438.271 333.302 440.711 332.817C443.152 332.332 445.681 332.581 447.98 333.533C450.279 334.485 452.244 336.098 453.626 338.167C455.008 340.235 455.746 342.668 455.746 345.156C455.746 348.492 454.421 351.692 452.062 354.052C449.702 356.411 446.502 357.736 443.166 357.736" fill="#FF7A59"/>
<g clip-path="url(#clip0_1_2356)">
<path d="M280.24 391.48C310.196 391.48 334.48 367.196 334.48 337.24C334.48 307.284 310.196 283 280.24 283C250.284 283 226 307.284 226 337.24C226 367.196 250.284 391.48 280.24 391.48Z" fill="url(#paint0_linear_1_2356)"/>
<path d="M275.75 358.14V310.84C275.75 305.77 271.64 301.66 266.57 301.66H258.02V363.64C258.02 368.71 262.13 372.82 267.2 372.82H293.28C298.35 372.82 302.46 368.71 302.46 363.64V358.14H275.75Z" fill="white"/>
</g>
<circle cx="150" cy="494" r="54" fill="#2CA01C"/>
<path d="M179.9 492.864C182.012 490.217 183.158 486.947 183.155 483.579V477.815C183.146 473.851 181.55 470.05 178.714 467.242C175.825 464.518 171.982 463 167.985 463.003C163.989 463.007 160.148 464.533 157.265 467.263C155.871 468.662 154.773 470.321 154.035 472.143C151.709 471.613 149.291 471.613 146.965 472.143C146.223 470.311 145.118 468.644 143.713 467.238C140.825 464.515 136.982 462.996 132.985 463C128.989 463.004 125.148 464.53 122.266 467.259C119.439 470.066 117.851 473.859 117.845 477.815V483.579C117.842 486.947 118.988 490.217 121.1 492.864C118.394 494.035 116.092 495.957 114.476 498.397C112.86 500.837 111.999 503.688 112 506.602V509.398C112 511.229 112.737 512.985 114.05 514.28C115.363 515.574 117.143 516.302 119 516.302H129.5V518.096C129.5 519.927 130.237 521.683 131.55 522.978C132.863 524.273 134.643 525 136.5 525H164.5C166.357 525 168.137 524.273 169.45 522.978C170.763 521.683 171.5 519.927 171.5 518.096V516.302H182C183.857 516.302 185.637 515.574 186.95 514.28C188.263 512.985 189 511.229 189 509.398V506.602C189.001 503.688 188.14 500.837 186.524 498.397C184.908 495.957 182.606 494.035 179.9 492.864V492.864ZM119 506.602C118.998 504.465 119.856 502.415 121.384 500.901C122.913 499.387 124.988 498.532 127.155 498.525C128.083 498.525 128.973 498.161 129.63 497.514C130.286 496.867 130.655 495.989 130.655 495.073V493.52C130.656 492.913 130.495 492.316 130.188 491.79C129.881 491.264 129.438 490.827 128.905 490.524C127.668 489.821 126.641 488.809 125.929 487.59C125.216 486.37 124.842 484.987 124.845 483.579V477.815C124.846 475.7 125.689 473.671 127.194 472.164C128.75 470.686 130.825 469.859 132.985 469.855C135.146 469.851 137.224 470.671 138.785 472.143C139.654 473.014 140.305 474.072 140.689 475.233C140.385 475.481 140.052 475.681 139.765 475.961C136.94 478.767 135.352 482.559 135.345 486.513V492.277C135.342 495.645 136.488 498.916 138.6 501.563C135.076 503.103 132.274 505.902 130.76 509.398H119V506.602ZM136.5 518.096V515.301C136.498 513.164 137.356 511.114 138.884 509.599C140.413 508.085 142.488 507.231 144.655 507.223C145.583 507.223 146.473 506.86 147.13 506.212C147.786 505.565 148.155 504.687 148.155 503.772V502.218C148.156 501.611 147.995 501.015 147.688 500.489C147.381 499.963 146.938 499.526 146.405 499.222C145.168 498.52 144.141 497.507 143.429 496.288C142.716 495.069 142.342 493.685 142.345 492.277V486.513C142.346 484.398 143.189 482.369 144.693 480.862C145.83 479.726 147.283 478.949 148.868 478.63C150.453 478.31 152.099 478.463 153.596 479.069C155.093 479.675 156.373 480.706 157.274 482.032C158.175 483.357 158.656 484.917 158.655 486.513V492.277C158.661 494.384 157.834 496.41 156.348 497.924C155.832 498.42 155.256 498.851 154.633 499.209C154.091 499.508 153.64 499.945 153.325 500.474C153.011 501.003 152.845 501.605 152.845 502.218V503.772C152.845 504.687 153.214 505.565 153.87 506.212C154.527 506.86 155.417 507.223 156.345 507.223C158.512 507.231 160.587 508.085 162.116 509.599C163.644 511.114 164.502 513.164 164.5 515.301V518.096H136.5ZM182 509.398H170.24C168.725 505.903 165.924 503.105 162.4 501.566C164.515 498.92 165.664 495.647 165.658 492.277V486.513C165.65 482.549 164.053 478.749 161.217 475.94C160.937 475.668 160.611 475.474 160.314 475.229C160.695 474.078 161.339 473.029 162.197 472.164C163.753 470.686 165.828 469.859 167.989 469.855C170.149 469.851 172.227 470.671 173.789 472.143C175.304 473.653 176.154 475.691 176.155 477.815V483.579C176.16 484.985 175.788 486.368 175.078 487.587C174.367 488.807 173.343 489.82 172.109 490.524C171.576 490.827 171.133 491.264 170.826 491.79C170.519 492.316 170.358 492.913 170.359 493.52V495.073C170.359 495.989 170.728 496.867 171.384 497.514C172.041 498.161 172.931 498.525 173.859 498.525C176.023 498.536 178.095 499.392 179.621 500.906C181.146 502.42 182.002 504.468 182 506.602V509.398Z" fill="white"/>
<g clip-path="url(#clip1_1_2356)">
<path d="M299.23 461.62L296.15 452.11C293.51 452.96 290.95 454.08 288.52 455.42L293.36 464.17C295.23 463.14 297.2 462.28 299.23 461.63V461.62Z" fill="white"/>
<path d="M288.24 467.65L281.88 459.94C279.79 461.66 277.85 463.59 276.12 465.67L283.8 472.08C285.14 470.48 286.64 468.99 288.25 467.66L288.24 467.65Z" fill="white"/>
<path d="M280.05 477.58L271.26 472.8C269.95 475.21 268.86 477.76 268.03 480.39L277.56 483.42C278.2 481.4 279.04 479.44 280.05 477.58Z" fill="white"/>
<path d="M309.58 450C307.87 450 306.14 450.1 304.46 450.3L305.62 460.23C306.92 460.08 308.26 460 309.58 460C328.1 460 343.16 475.06 343.16 493.58C343.16 512.1 328.1 527.16 309.58 527.16C291.06 527.16 276 512.09 276 493.58C276 492.51 276.05 491.44 276.15 490.39L266.19 489.45C266.06 490.81 266 492.2 266 493.58C266 517.61 285.55 537.16 309.58 537.16C333.61 537.16 353.16 517.61 353.16 493.58C353.16 469.55 333.61 450 309.58 450Z" fill="white"/>
<path d="M305.04 467.26V494.56H305.18L305.12 494.64L325.6 510.55C328.86 506.36 328.1 500.31 323.9 497.06L314.65 489.87V476.88C314.65 471.57 310.34 467.26 305.03 467.26H305.04Z" fill="white"/>
</g>
</g>
<defs>
<filter id="filter0_d_1_2356" x="0" y="0" width="650" height="739" filterUnits="userSpaceOnUse" color-interpolation-filters="sRGB">
<feFlood flood-opacity="0" result="BackgroundImageFix"/>
<feColorMatrix in="SourceAlpha" type="matrix" values="0 0 0 0 0 0 0 0 0 0 0 0 0 0 0 0 0 0 127 0" result="hardAlpha"/>
<feOffset dy="11"/>
<feGaussianBlur stdDeviation="22.5"/>
<feComposite in2="hardAlpha" operator="out"/>
<feColorMatrix type="matrix" values="0 0 0 0 0 0 0 0 0 0 0 0 0 0 0 0 0 0 0.2 0"/>
<feBlend mode="normal" in2="BackgroundImageFix" result="effect1_dropShadow_1_2356"/>
<feBlend mode="normal" in="SourceGraphic" in2="effect1_dropShadow_1_2356" result="shape"/>
</filter>
<linearGradient id="paint0_linear_1_2356" x1="226" y1="337.24" x2="334.48" y2="337.24" gradientUnits="userSpaceOnUse">
<stop stop-color="#1D963B"/>
<stop offset="0.2" stop-color="#249940"/>
<stop offset="0.5" stop-color="#37A14E"/>
<stop offset="0.86" stop-color="#58AF65"/>
<stop offset="1" stop-color="#67B670"/>
</linearGradient>
<clipPath id="clip0_1_2356">
<rect width="108.48" height="108.48" fill="white" transform="translate(226 283)"/>
</clipPath>
<clipPath id="clip1_1_2356">
<rect width="87.16" height="87.16" fill="white" transform="translate(266 450)"/>
</clipPath>
</defs>
</svg>
