<svg width="73" height="72" viewBox="0 0 73 72" fill="none" xmlns="http://www.w3.org/2000/svg">
<path d="M36.5 0C56.372 0 72.5 16.128 72.5 36C72.5 55.872 56.372 72 36.5 72C16.628 72 0.5 55.872 0.5 36C0.5 16.128 16.628 0 36.5 0Z" fill="#0FD46C"/>
<path d="M48.0058 23.1135C47.6134 22.7178 47.1465 22.404 46.6319 22.19C46.1174 21.9761 45.5656 21.8664 45.0084 21.8673L28.0338 21.8418H28.0253C26.8999 21.8418 25.8205 22.2889 25.0246 23.0847C24.2288 23.8806 23.7817 24.9599 23.7817 26.0854L23.7534 45.9301C23.7515 47.0519 24.1939 48.1288 24.9838 48.9254C25.7738 49.7219 26.847 50.1733 27.9688 50.1808L29.3762 50.2034H29.4017C29.7769 50.2066 30.1379 50.0606 30.4055 49.7976C30.673 49.5346 30.8251 49.1761 30.8283 48.8009C30.8315 48.4257 30.6855 48.0647 30.4225 47.7971C30.1594 47.5296 29.8009 47.3775 29.4257 47.3743L27.9956 47.3517C27.6205 47.3517 27.2607 47.2027 26.9954 46.9374C26.7301 46.6721 26.5811 46.3123 26.5811 45.9372L26.6094 26.0925C26.6094 25.7173 26.7584 25.3575 27.0237 25.0923C27.289 24.827 27.6488 24.678 28.0239 24.678V24.678L44.9985 24.7034C45.3736 24.7034 45.7334 24.8525 45.9987 25.1177C46.264 25.383 46.413 25.7428 46.413 26.118L46.3847 45.9598C46.3847 46.3349 46.2357 46.6947 45.9704 46.96C45.7051 47.2253 45.3453 47.3743 44.9702 47.3743H42.1835C41.8084 47.3743 41.4486 47.5234 41.1833 47.7886C40.918 48.0539 40.769 48.4137 40.769 48.7889C40.769 49.164 40.918 49.5238 41.1833 49.7891C41.4486 50.0544 41.8084 50.2034 42.1835 50.2034H44.973C46.0985 50.2034 47.1779 49.7563 47.9737 48.9605C48.7695 48.1647 49.2166 47.0853 49.2166 45.9598L49.2449 26.1166C49.2474 25.5589 49.1391 25.0063 48.9264 24.4908C48.7137 23.9753 48.4008 23.5071 48.0058 23.1135V23.1135Z" fill="white"/>
<path d="M33.6821 28.9231C34.0573 28.9231 34.4171 28.7741 34.6823 28.5088C34.9476 28.2435 35.0966 27.8837 35.0966 27.5085C35.0966 27.1334 34.9476 26.7736 34.6823 26.5083C34.4171 26.243 34.0573 26.094 33.6821 26.094H29.4385C29.0633 26.094 28.7035 26.243 28.4382 26.5083C28.173 26.7736 28.0239 27.1334 28.0239 27.5085C28.0239 27.8837 28.173 28.2435 28.4382 28.5088C28.7035 28.7741 29.0633 28.9231 29.4385 28.9231H33.6821Z" fill="white"/>
<path d="M28.0112 35.9747C28.0112 36.725 28.3093 37.4446 28.8399 37.9751C29.3704 38.5057 30.09 38.8037 30.8403 38.8037L37.913 38.8151H42.1567C42.907 38.8151 43.6266 38.517 44.1571 37.9864C44.6877 37.4559 44.9858 36.7363 44.9858 35.986V33.171C44.9858 32.4207 44.6877 31.7011 44.1571 31.1706C43.6266 30.64 42.907 30.3419 42.1567 30.3419H37.913L30.8403 30.332C30.09 30.332 29.3704 30.6301 28.8399 31.1607C28.3093 31.6912 28.0112 32.4108 28.0112 33.1611V35.9747ZM39.3276 33.1767H42.1567V35.9916H39.3276V33.1767ZM30.8403 33.1654L36.4985 33.1739V35.9888L30.8403 35.9803V33.1654Z" fill="white"/>
<path d="M40.6829 43.4618C40.4176 43.1966 40.0579 43.0476 39.6828 43.0476C39.3077 43.0476 38.948 43.1966 38.6827 43.4618L35.4391 46.7053L34.3174 45.5836C34.0506 45.3259 33.6933 45.1833 33.3224 45.1866C32.9515 45.1898 32.5967 45.3385 32.3345 45.6008C32.0722 45.8631 31.9234 46.2179 31.9202 46.5888C31.917 46.9596 32.0596 47.317 32.3172 47.5838L34.4391 49.7056C34.7043 49.9708 35.0641 50.1197 35.4391 50.1197C35.8142 50.1197 36.174 49.9708 36.4392 49.7056L40.6829 45.4619C40.9481 45.1967 41.097 44.8369 41.097 44.4619C41.097 44.0868 40.9481 43.727 40.6829 43.4618Z" fill="white"/>
</svg>
