<svg width="650" height="739" viewBox="0 0 650 739" fill="none" xmlns="http://www.w3.org/2000/svg">
<g filter="url(#filter0_d_1_2360)">
<g clip-path="url(#clip0_1_2360)">
<rect x="45" y="34" width="560" height="649" rx="26" fill="white"/>
<path d="M120.512 135H109.312L100.744 119.264H97.496V135H88.088V95.352H103.208C110.824 95.352 118.384 98.264 118.384 107.336C118.384 112.656 115.248 116.464 110.152 118.032L120.512 135ZM108.92 107.504C108.92 103.808 105.392 103.08 102.536 103.08H97.44V112.32H101.976C105.056 112.32 108.92 111.536 108.92 107.504ZM131.453 117.864H143.269C143.269 114.952 141.421 112.544 137.781 112.544C134.253 112.544 131.677 115.008 131.453 117.864ZM151.725 121.392C151.725 122.12 151.725 122.904 151.669 123.576H131.453C131.733 126.656 134.813 128.84 138.117 128.84C141.029 128.84 143.045 127.608 144.277 125.928L150.661 129.96C148.029 133.768 143.661 135.896 138.005 135.896C129.605 135.896 122.661 130.576 122.661 121.168C122.661 112.04 129.269 106.216 137.725 106.216C145.957 106.216 151.725 111.872 151.725 121.392ZM181.948 109.968L176.628 116.128C175.62 114.784 173.604 113.888 171.756 113.888C167.892 113.888 165.316 117.192 165.316 121.056C165.316 124.92 167.836 128.168 171.868 128.168C173.716 128.168 175.732 127.44 176.852 126.096L181.948 132.312C179.652 134.552 175.732 135.896 171.644 135.896C162.852 135.896 156.02 130.296 156.02 121.056C156.02 111.984 162.908 106.216 171.588 106.216C175.564 106.216 179.764 107.728 181.948 109.968ZM192.976 117.864H204.792C204.792 114.952 202.944 112.544 199.304 112.544C195.776 112.544 193.2 115.008 192.976 117.864ZM213.248 121.392C213.248 122.12 213.248 122.904 213.192 123.576H192.976C193.256 126.656 196.336 128.84 199.64 128.84C202.552 128.84 204.568 127.608 205.8 125.928L212.184 129.96C209.552 133.768 205.184 135.896 199.528 135.896C191.128 135.896 184.184 130.576 184.184 121.168C184.184 112.04 190.792 106.216 199.248 106.216C207.48 106.216 213.248 111.872 213.248 121.392ZM228.911 98.208C228.911 101.064 226.559 103.248 223.647 103.248C220.679 103.248 218.383 100.952 218.383 98.208C218.383 95.52 220.679 93.168 223.647 93.168C226.559 93.168 228.911 95.408 228.911 98.208ZM228.239 135H219.055V107.112H228.239V135ZM266.538 120.944C266.538 128.728 261.666 135.784 253.266 135.784C249.85 135.784 246.546 134.328 244.81 131.92H244.698V148.44H235.514V107.112H244.25V110.528H244.418C246.098 108.288 249.234 106.328 253.322 106.328C261.442 106.328 266.538 113.16 266.538 120.944ZM257.634 120.944C257.634 117.36 255.45 113.832 251.082 113.832C246.938 113.832 244.362 117.472 244.362 121C244.362 124.64 246.938 128.168 251.082 128.168C255.45 128.168 257.634 124.584 257.634 120.944ZM288.838 114H282.286V124.64C282.286 127.216 283.126 128.56 285.758 128.56C286.654 128.56 287.774 128.392 288.446 128.112L288.558 134.832C287.326 135.28 285.198 135.672 283.238 135.672C275.79 135.672 273.326 131.696 273.326 125.76V114H268.846V107.112H273.27V99.776H282.286V107.112H288.838V114ZM314.602 110.136L309.562 115.344C308.106 113.944 305.978 112.824 303.738 112.824C302.002 112.824 300.266 113.44 300.266 115.064C300.266 116.632 301.778 117.08 305.362 117.864C309.618 118.816 314.266 120.944 314.266 126.376C314.266 133.432 308.05 135.896 302.338 135.896C297.802 135.896 293.098 134.384 290.186 131.584L295.338 126.152C296.962 127.944 299.482 129.288 302.17 129.288C303.682 129.288 305.474 128.672 305.474 126.88C305.474 125.144 303.738 124.584 299.93 123.688C296.066 122.792 291.81 120.832 291.81 115.568C291.81 108.904 298.082 106.216 303.402 106.216C307.546 106.216 311.858 107.56 314.602 110.136Z" fill="#0D333F"/>
<path d="M461.25 262.075H454.9V258.825H461.25V262.075ZM471.154 247.35V249.05C473.029 249.1 475.204 249.7 476.754 250.95C475.954 251.875 475.154 252.775 474.329 253.675C473.504 252.85 472.204 252.35 471.154 252.325V256.325C473.729 257.1 476.829 258.2 476.829 261.775C476.829 265.425 473.979 267.15 471.054 267.25V269.075H469.204V267.25C467.054 267.175 464.679 266.425 463.029 264.95C463.904 264.05 464.804 263.125 465.654 262.2C466.554 263.175 468.104 263.9 469.204 263.925V259.55C466.329 258.775 463.754 257.675 463.754 254.325C463.754 251.05 466.704 249.2 469.329 249.075V247.35H471.154ZM469.329 255.9V252.275C468.429 252.375 467.579 252.95 467.579 254.05C467.579 255.1 468.279 255.625 469.329 255.9ZM471.054 260V263.95C472.179 263.9 472.879 263.15 472.879 262C472.879 260.85 472.104 260.325 471.054 260ZM493.341 261.05C493.341 265.075 490.191 267.475 486.366 267.475C482.516 267.475 479.391 265.025 479.391 261.15C479.391 259.05 480.191 257.425 481.366 255.675L485.641 249.3H490.716L486.366 255.35L486.291 255.475C486.616 255.35 487.141 255.275 487.541 255.275C490.641 255.275 493.341 257.6 493.341 261.05ZM489.141 261.15C489.141 259.55 488.041 258.375 486.391 258.375C484.741 258.375 483.591 259.525 483.591 261.175C483.591 262.7 484.691 263.975 486.366 263.975C488.016 263.975 489.141 262.825 489.141 261.15ZM508.979 267H496.179V263.5L503.079 257.25C503.954 256.425 504.529 255.6 504.529 254.525C504.529 253.275 503.654 252.4 502.329 252.4C500.929 252.4 500.004 253.5 499.829 255.075L495.804 254.525C496.204 250.95 499.104 248.825 502.554 248.825C505.804 248.825 508.954 250.55 508.954 254.25C508.954 256.775 507.479 258.25 505.854 259.7L501.754 263.35H508.979V267ZM516.916 264.8C516.916 266.175 515.766 267.25 514.416 267.25C513.041 267.25 511.866 266.2 511.866 264.825C511.866 263.475 513.016 262.35 514.416 262.35C515.766 262.35 516.916 263.425 516.916 264.8ZM532.561 252.65L525.786 267H520.911L528.086 252.9H519.711V249.3H532.561V252.65ZM549.598 263.55H547.173V267H543.248V263.55H534.923V260.025L542.123 249.3H547.148V260.15H549.598V263.55ZM543.273 260.15V253.6H543.198L538.998 260.15H543.273Z" fill="#8D9096"/>
<path d="M461.25 467.075H454.9V463.825H461.25V467.075ZM471.154 452.35V454.05C473.029 454.1 475.204 454.7 476.754 455.95C475.954 456.875 475.154 457.775 474.329 458.675C473.504 457.85 472.204 457.35 471.154 457.325V461.325C473.729 462.1 476.829 463.2 476.829 466.775C476.829 470.425 473.979 472.15 471.054 472.25V474.075H469.204V472.25C467.054 472.175 464.679 471.425 463.029 469.95C463.904 469.05 464.804 468.125 465.654 467.2C466.554 468.175 468.104 468.9 469.204 468.925V464.55C466.329 463.775 463.754 462.675 463.754 459.325C463.754 456.05 466.704 454.2 469.329 454.075V452.35H471.154ZM469.329 460.9V457.275C468.429 457.375 467.579 457.95 467.579 459.05C467.579 460.1 468.279 460.625 469.329 460.9ZM471.054 465V468.95C472.179 468.9 472.879 468.15 472.879 467C472.879 465.85 472.104 465.325 471.054 465ZM493.616 468.55H491.191V472H487.266V468.55H478.941V465.025L486.141 454.3H491.166V465.15H493.616V468.55ZM487.291 465.15V458.6H487.216L483.016 465.15H487.291ZM509.029 466.15C509.029 470.45 505.679 472.475 502.204 472.475C498.979 472.475 496.304 470.775 495.479 467.975L499.304 466.8C499.679 468.025 500.779 468.925 502.154 468.925C503.579 468.925 504.804 468.05 504.804 466.35C504.804 464.25 502.904 463.65 501.179 463.65C499.929 463.65 498.104 463.975 496.854 464.425L497.279 454.3H508.129V457.9H501.004L500.854 460.7C501.379 460.575 502.104 460.525 502.629 460.525C506.179 460.525 509.029 462.425 509.029 466.15ZM516.916 469.8C516.916 471.175 515.766 472.25 514.416 472.25C513.041 472.25 511.866 471.2 511.866 469.825C511.866 468.475 513.016 467.35 514.416 467.35C515.766 467.35 516.916 468.425 516.916 469.8ZM532.861 466.95C532.861 470.675 529.711 472.475 526.211 472.475C522.711 472.475 519.561 470.7 519.561 466.975C519.561 464.825 521.011 463.3 522.736 462.75V462.7C521.211 462.125 520.036 460.825 520.036 458.875C520.036 455.6 522.936 453.825 526.211 453.825C529.461 453.825 532.386 455.525 532.386 458.8C532.386 460.75 531.261 462.15 529.686 462.675V462.75C531.461 463.25 532.861 464.875 532.861 466.95ZM528.336 459.1C528.336 457.95 527.386 457.075 526.211 457.075C524.961 457.075 524.111 457.95 524.111 459.1C524.111 460.225 524.911 461.2 526.211 461.2C527.436 461.2 528.336 460.225 528.336 459.1ZM528.661 466.8C528.661 465.45 527.636 464.4 526.211 464.4C524.761 464.4 523.736 465.425 523.736 466.8C523.736 468.225 524.761 469.15 526.211 469.15C527.661 469.15 528.661 468.225 528.661 466.8ZM548.798 472H535.998V468.5L542.898 462.25C543.773 461.425 544.348 460.6 544.348 459.525C544.348 458.275 543.473 457.4 542.148 457.4C540.748 457.4 539.823 458.5 539.648 460.075L535.623 459.525C536.023 455.95 538.923 453.825 542.373 453.825C545.623 453.825 548.773 455.55 548.773 459.25C548.773 461.775 547.298 463.25 545.673 464.7L541.573 468.35H548.798V472Z" fill="#D4D7DC"/>
<path d="M187.625 225.1V233H185.15V215.3H196.2V217.475H187.625V222.975H195.65V225.1H187.625ZM199.663 226.025H206.713C206.663 224.15 205.563 222.675 203.388 222.675C201.363 222.675 199.813 224.175 199.663 226.025ZM209.088 226.975C209.088 227.225 209.088 227.5 209.063 227.775H199.663C199.738 229.8 201.438 231.375 203.513 231.375C205.113 231.375 206.288 230.575 206.963 229.575L208.613 230.9C207.338 232.55 205.613 233.325 203.513 233.325C199.913 233.325 197.263 230.825 197.263 227.1C197.263 223.4 199.913 220.825 203.388 220.825C206.888 220.825 209.088 223.2 209.088 226.975ZM214.744 231.125H214.694V233H212.419V214.1H214.769V222.925H214.844C215.644 221.775 217.119 220.825 219.069 220.825C222.594 220.825 224.994 223.55 224.994 227.05C224.994 230.525 222.669 233.325 219.019 233.325C217.344 233.325 215.669 232.55 214.744 231.125ZM222.569 227.05C222.569 224.825 221.194 222.775 218.619 222.775C216.219 222.775 214.619 224.8 214.619 227.075C214.619 229.35 216.219 231.35 218.619 231.35C221.194 231.35 222.569 229.275 222.569 227.05ZM241.962 215.3V233H239.537V218.25L236.187 221.05L234.762 219.375L239.787 215.3H241.962ZM260.405 230.825V233H248.855V230.675L255.905 223.675C256.98 222.575 257.855 221.425 257.855 219.925C257.855 218.075 256.455 216.875 254.705 216.875C252.905 216.875 251.68 218.175 251.38 219.95L249.005 219.55C249.43 216.85 251.705 214.85 254.73 214.85C257.68 214.85 260.33 216.575 260.33 219.875C260.33 222.15 259.03 223.7 257.48 225.225L251.73 230.825H260.405Z" fill="#8D9096"/>
<path d="M200.275 262H196V254.6H189.1V262H184.825V244.3H189.1V251H196V244.3H200.275V262ZM216.892 255.725C216.892 259.8 213.742 262.4 209.967 262.4C206.217 262.4 203.067 259.8 203.067 255.725C203.067 251.65 206.217 249.15 209.967 249.15C213.742 249.15 216.892 251.65 216.892 255.725ZM212.942 255.725C212.942 254.125 211.892 252.55 209.967 252.55C208.042 252.55 207.042 254.125 207.042 255.725C207.042 257.325 208.067 258.95 209.992 258.95C211.917 258.95 212.942 257.325 212.942 255.725ZM239.488 262H235.388V255.2C235.388 253.775 235.063 252.575 233.613 252.575C232.213 252.575 231.538 253.875 231.538 255.275V262H227.438V254.9C227.438 253.475 226.888 252.575 225.663 252.575C224.363 252.575 223.613 253.75 223.613 255.25V262H219.488V249.55H223.463V251.275H223.513C224.088 250.225 225.363 249.2 227.238 249.2C229.038 249.2 230.288 249.975 230.988 251.325C231.813 250.025 233.113 249.2 234.963 249.2C238.338 249.2 239.488 251.95 239.488 254.3V262ZM245.883 254.35H251.158C251.158 253.05 250.333 251.975 248.708 251.975C247.133 251.975 245.983 253.075 245.883 254.35ZM254.933 255.925C254.933 256.25 254.933 256.6 254.908 256.9H245.883C246.008 258.275 247.383 259.25 248.858 259.25C250.158 259.25 251.058 258.7 251.608 257.95L254.458 259.75C253.283 261.45 251.333 262.4 248.808 262.4C245.058 262.4 241.958 260.025 241.958 255.825C241.958 251.75 244.908 249.15 248.683 249.15C252.358 249.15 254.933 251.675 254.933 255.925ZM276.926 262H273.151V260.375H273.101C272.301 261.625 270.676 262.35 269.026 262.35C265.276 262.35 263.101 259.2 263.101 255.725C263.101 252.25 265.351 249.2 268.976 249.2C270.801 249.2 272.076 250.05 272.776 250.875H272.826V243.1H276.926V262ZM273.001 255.75C273.001 254.175 271.851 252.55 270.001 252.55C268.051 252.55 267.051 254.125 267.051 255.725C267.051 257.35 268.051 258.95 270.001 258.95C271.851 258.95 273.001 257.375 273.001 255.75ZM283.481 254.35H288.756C288.756 253.05 287.931 251.975 286.306 251.975C284.731 251.975 283.581 253.075 283.481 254.35ZM292.531 255.925C292.531 256.25 292.531 256.6 292.506 256.9H283.481C283.606 258.275 284.981 259.25 286.456 259.25C287.756 259.25 288.656 258.7 289.206 257.95L292.056 259.75C290.881 261.45 288.931 262.4 286.406 262.4C282.656 262.4 279.556 260.025 279.556 255.825C279.556 251.75 282.506 249.15 286.281 249.15C289.956 249.15 292.531 251.675 292.531 255.925ZM308.924 255.725C308.924 259.2 306.749 262.35 302.999 262.35C301.474 262.35 299.999 261.7 299.224 260.625H299.174V268H295.074V249.55H298.974V251.075H299.049C299.799 250.075 301.199 249.2 303.024 249.2C306.649 249.2 308.924 252.25 308.924 255.725ZM304.949 255.725C304.949 254.125 303.974 252.55 302.024 252.55C300.174 252.55 299.024 254.175 299.024 255.75C299.024 257.375 300.174 258.95 302.024 258.95C303.974 258.95 304.949 257.35 304.949 255.725ZM324.704 255.725C324.704 259.8 321.554 262.4 317.779 262.4C314.029 262.4 310.879 259.8 310.879 255.725C310.879 251.65 314.029 249.15 317.779 249.15C321.554 249.15 324.704 251.65 324.704 255.725ZM320.754 255.725C320.754 254.125 319.704 252.55 317.779 252.55C315.854 252.55 314.854 254.125 314.854 255.725C314.854 257.325 315.879 258.95 317.804 258.95C319.729 258.95 320.754 257.325 320.754 255.725ZM334.675 252.625H331.75V257.375C331.75 258.525 332.125 259.125 333.3 259.125C333.7 259.125 334.2 259.05 334.5 258.925L334.55 261.925C334 262.125 333.05 262.3 332.175 262.3C328.85 262.3 327.75 260.525 327.75 257.875V252.625H325.75V249.55H327.725V246.275H331.75V249.55H334.675V252.625Z" fill="#8D9096"/>
<path d="M197.65 292.85L199.3 294.225C197.9 296 195.575 297.45 192.25 297.45C187.525 297.45 184.325 294.375 184.325 289.85C184.325 283.725 188.95 278.85 194.825 278.85C197.425 278.85 199.775 279.95 200.8 281.6L198.775 283.075C198.25 282.075 196.875 280.95 194.75 280.95C190.125 280.95 186.875 285.2 186.875 289.55C186.875 292.725 188.875 295.325 192.475 295.325C194.425 295.325 196.25 294.55 197.65 292.85ZM202.805 287.725C202.93 287.1 203.105 285.95 203.18 285.15H205.38C205.33 285.625 205.205 286.625 205.13 287.15H205.18C206.005 285.775 207.28 284.825 208.88 284.825C209.205 284.825 209.53 284.85 209.805 284.925L209.405 287.1C209.105 287.025 208.73 286.975 208.38 286.975C206.105 286.975 204.93 288.8 204.58 290.775L203.48 297H201.18L202.805 287.725ZM221.131 291.775H211.831C211.806 291.925 211.806 292.05 211.806 292.175C211.806 294.05 213.306 295.4 215.256 295.4C216.931 295.4 218.156 294.625 218.981 293.6L220.356 294.9C218.956 296.5 217.106 297.325 215.031 297.325C211.881 297.325 209.531 295.4 209.531 292.075C209.531 288.125 212.506 284.825 216.456 284.825C219.456 284.825 221.381 286.575 221.381 289.525C221.381 290 221.306 291.025 221.131 291.775ZM212.081 290.075H219.156C219.181 289.85 219.206 289.55 219.206 289.325C219.206 287.8 218.156 286.65 216.281 286.65C214.031 286.65 212.481 288.375 212.081 290.075ZM223.667 292.175C223.667 288.125 226.517 284.825 230.417 284.825C232.342 284.825 233.817 285.675 234.542 287.1H234.592L236.167 278.1H238.492L235.142 297H232.892L233.217 295.1H233.167C232.317 296.4 230.667 297.3 228.842 297.3C225.717 297.3 223.667 295.225 223.667 292.175ZM226.067 291.95C226.067 293.875 227.242 295.375 229.367 295.375C231.992 295.375 234.067 293 234.067 290.175C234.067 288.175 232.717 286.725 230.667 286.725C227.892 286.725 226.067 289.05 226.067 291.95ZM243.74 285.15L241.64 297H239.34L241.415 285.15H243.74ZM244.74 280.825C244.74 281.65 244.09 282.35 243.265 282.35C242.465 282.35 241.79 281.825 241.79 280.925C241.79 280.025 242.515 279.375 243.315 279.375C244.115 279.375 244.74 279.95 244.74 280.825ZM253.31 285.15L252.96 287.05H250.035L248.91 293.275C248.86 293.55 248.835 293.825 248.835 294.025C248.835 295.025 249.41 295.3 250.26 295.3C250.71 295.3 251.235 295.175 251.535 295.025L251.36 296.875C250.885 297.075 250.16 297.2 249.485 297.2C247.66 297.2 246.485 296.4 246.485 294.65C246.485 294.3 246.51 293.875 246.585 293.475L247.735 287.05H245.485L245.835 285.15H248.06L248.635 281.75H250.935L250.335 285.15H253.31ZM271.715 286.825L269.915 288.175C269.515 287.375 268.49 286.75 267.315 286.75C264.59 286.75 262.615 289.125 262.615 291.925C262.615 293.825 263.765 295.375 266.015 295.375C267.49 295.375 268.49 294.775 269.265 293.95L270.665 295.25C269.415 296.5 267.89 297.325 265.865 297.325C262.465 297.325 260.265 295.25 260.265 292.2C260.265 288.25 263.09 284.825 267.44 284.825C269.19 284.825 270.915 285.45 271.715 286.825ZM281.093 289.6C281.168 289.125 281.193 288.9 281.193 288.675C281.193 287.275 280.293 286.7 278.693 286.7C277.443 286.7 276.068 287.275 275.143 288L274.193 286.45C275.443 285.45 277.268 284.825 279.018 284.825C281.268 284.825 283.418 285.775 283.418 288.325C283.418 288.625 283.368 289.2 283.318 289.525L282.443 294.325C282.293 295.25 282.168 296.35 282.168 297H280.043C280.043 296.5 280.093 295.9 280.193 295.35H280.143C279.018 296.675 277.743 297.25 275.943 297.25C274.318 297.25 272.268 296.525 272.268 294.125C272.268 290.275 276.968 289.6 281.093 289.6ZM280.843 291.3H280.468C277.868 291.3 274.568 291.65 274.568 293.8C274.568 295.1 275.668 295.475 276.743 295.475C278.843 295.475 280.343 293.975 280.668 292.175L280.843 291.3ZM287.571 287.725C287.696 287.1 287.871 285.95 287.946 285.15H290.146C290.096 285.625 289.971 286.625 289.896 287.15H289.946C290.771 285.775 292.046 284.825 293.646 284.825C293.971 284.825 294.296 284.85 294.571 284.925L294.171 287.1C293.871 287.025 293.496 286.975 293.146 286.975C290.871 286.975 289.696 288.8 289.346 290.775L288.246 297H285.946L287.571 287.725ZM294.297 292.175C294.297 288.125 297.147 284.825 301.047 284.825C302.972 284.825 304.447 285.675 305.172 287.1H305.222L306.797 278.1H309.122L305.772 297H303.522L303.847 295.1H303.797C302.947 296.4 301.297 297.3 299.472 297.3C296.347 297.3 294.297 295.225 294.297 292.175ZM296.697 291.95C296.697 293.875 297.872 295.375 299.997 295.375C302.622 295.375 304.697 293 304.697 290.175C304.697 288.175 303.347 286.725 301.297 286.725C298.522 286.725 296.697 289.05 296.697 291.95Z" fill="#8D9096"/>
<path d="M187.625 430.1V438H185.15V420.3H196.2V422.475H187.625V427.975H195.65V430.1H187.625ZM199.663 431.025H206.713C206.663 429.15 205.563 427.675 203.388 427.675C201.363 427.675 199.813 429.175 199.663 431.025ZM209.088 431.975C209.088 432.225 209.088 432.5 209.063 432.775H199.663C199.738 434.8 201.438 436.375 203.513 436.375C205.113 436.375 206.288 435.575 206.963 434.575L208.613 435.9C207.338 437.55 205.613 438.325 203.513 438.325C199.913 438.325 197.263 435.825 197.263 432.1C197.263 428.4 199.913 425.825 203.388 425.825C206.888 425.825 209.088 428.2 209.088 431.975ZM214.744 436.125H214.694V438H212.419V419.1H214.769V427.925H214.844C215.644 426.775 217.119 425.825 219.069 425.825C222.594 425.825 224.994 428.55 224.994 432.05C224.994 435.525 222.669 438.325 219.019 438.325C217.344 438.325 215.669 437.55 214.744 436.125ZM222.569 432.05C222.569 429.825 221.194 427.775 218.619 427.775C216.219 427.775 214.619 429.8 214.619 432.075C214.619 434.35 216.219 436.35 218.619 436.35C221.194 436.35 222.569 434.275 222.569 432.05ZM241.962 420.3V438H239.537V423.25L236.187 426.05L234.762 424.375L239.787 420.3H241.962ZM254.805 419.85C259.005 419.85 260.83 424 260.83 429.15C260.83 434.325 259.005 438.45 254.805 438.45C250.58 438.45 248.755 434.325 248.755 429.15C248.755 424 250.58 419.85 254.805 419.85ZM254.805 421.875C251.88 421.875 251.23 426.175 251.23 429.15C251.23 432.15 251.88 436.4 254.805 436.4C257.68 436.4 258.355 432.15 258.355 429.15C258.355 426.175 257.68 421.875 254.805 421.875Z" fill="#D4D7DC"/>
<path d="M200.275 467H196V459.6H189.1V467H184.825V449.3H189.1V456H196V449.3H200.275V467ZM216.892 460.725C216.892 464.8 213.742 467.4 209.967 467.4C206.217 467.4 203.067 464.8 203.067 460.725C203.067 456.65 206.217 454.15 209.967 454.15C213.742 454.15 216.892 456.65 216.892 460.725ZM212.942 460.725C212.942 459.125 211.892 457.55 209.967 457.55C208.042 457.55 207.042 459.125 207.042 460.725C207.042 462.325 208.067 463.95 209.992 463.95C211.917 463.95 212.942 462.325 212.942 460.725ZM239.488 467H235.388V460.2C235.388 458.775 235.063 457.575 233.613 457.575C232.213 457.575 231.538 458.875 231.538 460.275V467H227.438V459.9C227.438 458.475 226.888 457.575 225.663 457.575C224.363 457.575 223.613 458.75 223.613 460.25V467H219.488V454.55H223.463V456.275H223.513C224.088 455.225 225.363 454.2 227.238 454.2C229.038 454.2 230.288 454.975 230.988 456.325C231.813 455.025 233.113 454.2 234.963 454.2C238.338 454.2 239.488 456.95 239.488 459.3V467ZM245.883 459.35H251.158C251.158 458.05 250.333 456.975 248.708 456.975C247.133 456.975 245.983 458.075 245.883 459.35ZM254.933 460.925C254.933 461.25 254.933 461.6 254.908 461.9H245.883C246.008 463.275 247.383 464.25 248.858 464.25C250.158 464.25 251.058 463.7 251.608 462.95L254.458 464.75C253.283 466.45 251.333 467.4 248.808 467.4C245.058 467.4 241.958 465.025 241.958 460.825C241.958 456.75 244.908 454.15 248.683 454.15C252.358 454.15 254.933 456.675 254.933 460.925ZM276.926 467H273.151V465.375H273.101C272.301 466.625 270.676 467.35 269.026 467.35C265.276 467.35 263.101 464.2 263.101 460.725C263.101 457.25 265.351 454.2 268.976 454.2C270.801 454.2 272.076 455.05 272.776 455.875H272.826V448.1H276.926V467ZM273.001 460.75C273.001 459.175 271.851 457.55 270.001 457.55C268.051 457.55 267.051 459.125 267.051 460.725C267.051 462.35 268.051 463.95 270.001 463.95C271.851 463.95 273.001 462.375 273.001 460.75ZM283.481 459.35H288.756C288.756 458.05 287.931 456.975 286.306 456.975C284.731 456.975 283.581 458.075 283.481 459.35ZM292.531 460.925C292.531 461.25 292.531 461.6 292.506 461.9H283.481C283.606 463.275 284.981 464.25 286.456 464.25C287.756 464.25 288.656 463.7 289.206 462.95L292.056 464.75C290.881 466.45 288.931 467.4 286.406 467.4C282.656 467.4 279.556 465.025 279.556 460.825C279.556 456.75 282.506 454.15 286.281 454.15C289.956 454.15 292.531 456.675 292.531 460.925ZM308.924 460.725C308.924 464.2 306.749 467.35 302.999 467.35C301.474 467.35 299.999 466.7 299.224 465.625H299.174V473H295.074V454.55H298.974V456.075H299.049C299.799 455.075 301.199 454.2 303.024 454.2C306.649 454.2 308.924 457.25 308.924 460.725ZM304.949 460.725C304.949 459.125 303.974 457.55 302.024 457.55C300.174 457.55 299.024 459.175 299.024 460.75C299.024 462.375 300.174 463.95 302.024 463.95C303.974 463.95 304.949 462.35 304.949 460.725ZM324.704 460.725C324.704 464.8 321.554 467.4 317.779 467.4C314.029 467.4 310.879 464.8 310.879 460.725C310.879 456.65 314.029 454.15 317.779 454.15C321.554 454.15 324.704 456.65 324.704 460.725ZM320.754 460.725C320.754 459.125 319.704 457.55 317.779 457.55C315.854 457.55 314.854 459.125 314.854 460.725C314.854 462.325 315.879 463.95 317.804 463.95C319.729 463.95 320.754 462.325 320.754 460.725ZM334.675 457.625H331.75V462.375C331.75 463.525 332.125 464.125 333.3 464.125C333.7 464.125 334.2 464.05 334.5 463.925L334.55 466.925C334 467.125 333.05 467.3 332.175 467.3C328.85 467.3 327.75 465.525 327.75 462.875V457.625H325.75V454.55H327.725V451.275H331.75V454.55H334.675V457.625Z" fill="#D4D7DC"/>
<path d="M197.65 497.85L199.3 499.225C197.9 501 195.575 502.45 192.25 502.45C187.525 502.45 184.325 499.375 184.325 494.85C184.325 488.725 188.95 483.85 194.825 483.85C197.425 483.85 199.775 484.95 200.8 486.6L198.775 488.075C198.25 487.075 196.875 485.95 194.75 485.95C190.125 485.95 186.875 490.2 186.875 494.55C186.875 497.725 188.875 500.325 192.475 500.325C194.425 500.325 196.25 499.55 197.65 497.85ZM202.805 492.725C202.93 492.1 203.105 490.95 203.18 490.15H205.38C205.33 490.625 205.205 491.625 205.13 492.15H205.18C206.005 490.775 207.28 489.825 208.88 489.825C209.205 489.825 209.53 489.85 209.805 489.925L209.405 492.1C209.105 492.025 208.73 491.975 208.38 491.975C206.105 491.975 204.93 493.8 204.58 495.775L203.48 502H201.18L202.805 492.725ZM221.131 496.775H211.831C211.806 496.925 211.806 497.05 211.806 497.175C211.806 499.05 213.306 500.4 215.256 500.4C216.931 500.4 218.156 499.625 218.981 498.6L220.356 499.9C218.956 501.5 217.106 502.325 215.031 502.325C211.881 502.325 209.531 500.4 209.531 497.075C209.531 493.125 212.506 489.825 216.456 489.825C219.456 489.825 221.381 491.575 221.381 494.525C221.381 495 221.306 496.025 221.131 496.775ZM212.081 495.075H219.156C219.181 494.85 219.206 494.55 219.206 494.325C219.206 492.8 218.156 491.65 216.281 491.65C214.031 491.65 212.481 493.375 212.081 495.075ZM223.667 497.175C223.667 493.125 226.517 489.825 230.417 489.825C232.342 489.825 233.817 490.675 234.542 492.1H234.592L236.167 483.1H238.492L235.142 502H232.892L233.217 500.1H233.167C232.317 501.4 230.667 502.3 228.842 502.3C225.717 502.3 223.667 500.225 223.667 497.175ZM226.067 496.95C226.067 498.875 227.242 500.375 229.367 500.375C231.992 500.375 234.067 498 234.067 495.175C234.067 493.175 232.717 491.725 230.667 491.725C227.892 491.725 226.067 494.05 226.067 496.95ZM243.74 490.15L241.64 502H239.34L241.415 490.15H243.74ZM244.74 485.825C244.74 486.65 244.09 487.35 243.265 487.35C242.465 487.35 241.79 486.825 241.79 485.925C241.79 485.025 242.515 484.375 243.315 484.375C244.115 484.375 244.74 484.95 244.74 485.825ZM253.31 490.15L252.96 492.05H250.035L248.91 498.275C248.86 498.55 248.835 498.825 248.835 499.025C248.835 500.025 249.41 500.3 250.26 500.3C250.71 500.3 251.235 500.175 251.535 500.025L251.36 501.875C250.885 502.075 250.16 502.2 249.485 502.2C247.66 502.2 246.485 501.4 246.485 499.65C246.485 499.3 246.51 498.875 246.585 498.475L247.735 492.05H245.485L245.835 490.15H248.06L248.635 486.75H250.935L250.335 490.15H253.31ZM271.715 491.825L269.915 493.175C269.515 492.375 268.49 491.75 267.315 491.75C264.59 491.75 262.615 494.125 262.615 496.925C262.615 498.825 263.765 500.375 266.015 500.375C267.49 500.375 268.49 499.775 269.265 498.95L270.665 500.25C269.415 501.5 267.89 502.325 265.865 502.325C262.465 502.325 260.265 500.25 260.265 497.2C260.265 493.25 263.09 489.825 267.44 489.825C269.19 489.825 270.915 490.45 271.715 491.825ZM281.093 494.6C281.168 494.125 281.193 493.9 281.193 493.675C281.193 492.275 280.293 491.7 278.693 491.7C277.443 491.7 276.068 492.275 275.143 493L274.193 491.45C275.443 490.45 277.268 489.825 279.018 489.825C281.268 489.825 283.418 490.775 283.418 493.325C283.418 493.625 283.368 494.2 283.318 494.525L282.443 499.325C282.293 500.25 282.168 501.35 282.168 502H280.043C280.043 501.5 280.093 500.9 280.193 500.35H280.143C279.018 501.675 277.743 502.25 275.943 502.25C274.318 502.25 272.268 501.525 272.268 499.125C272.268 495.275 276.968 494.6 281.093 494.6ZM280.843 496.3H280.468C277.868 496.3 274.568 496.65 274.568 498.8C274.568 500.1 275.668 500.475 276.743 500.475C278.843 500.475 280.343 498.975 280.668 497.175L280.843 496.3ZM287.571 492.725C287.696 492.1 287.871 490.95 287.946 490.15H290.146C290.096 490.625 289.971 491.625 289.896 492.15H289.946C290.771 490.775 292.046 489.825 293.646 489.825C293.971 489.825 294.296 489.85 294.571 489.925L294.171 492.1C293.871 492.025 293.496 491.975 293.146 491.975C290.871 491.975 289.696 493.8 289.346 495.775L288.246 502H285.946L287.571 492.725ZM294.297 497.175C294.297 493.125 297.147 489.825 301.047 489.825C302.972 489.825 304.447 490.675 305.172 492.1H305.222L306.797 483.1H309.122L305.772 502H303.522L303.847 500.1H303.797C302.947 501.4 301.297 502.3 299.472 502.3C296.347 502.3 294.297 500.225 294.297 497.175ZM296.697 496.95C296.697 498.875 297.872 500.375 299.997 500.375C302.622 500.375 304.697 498 304.697 495.175C304.697 493.175 303.347 491.725 301.297 491.725C298.522 491.725 296.697 494.05 296.697 496.95Z" fill="#D4D7DC"/>
<path d="M187.625 626.1V634H185.15V616.3H196.2V618.475H187.625V623.975H195.65V626.1H187.625ZM199.663 627.025H206.713C206.663 625.15 205.563 623.675 203.388 623.675C201.363 623.675 199.813 625.175 199.663 627.025ZM209.088 627.975C209.088 628.225 209.088 628.5 209.063 628.775H199.663C199.738 630.8 201.438 632.375 203.513 632.375C205.113 632.375 206.288 631.575 206.963 630.575L208.613 631.9C207.338 633.55 205.613 634.325 203.513 634.325C199.913 634.325 197.263 631.825 197.263 628.1C197.263 624.4 199.913 621.825 203.388 621.825C206.888 621.825 209.088 624.2 209.088 627.975ZM214.744 632.125H214.694V634H212.419V615.1H214.769V623.925H214.844C215.644 622.775 217.119 621.825 219.069 621.825C222.594 621.825 224.994 624.55 224.994 628.05C224.994 631.525 222.669 634.325 219.019 634.325C217.344 634.325 215.669 633.55 214.744 632.125ZM222.569 628.05C222.569 625.825 221.194 623.775 218.619 623.775C216.219 623.775 214.619 625.8 214.619 628.075C214.619 630.35 216.219 632.35 218.619 632.35C221.194 632.35 222.569 630.275 222.569 628.05ZM239.937 615.85C244.137 615.85 245.962 620 245.962 625.15C245.962 630.325 244.137 634.45 239.937 634.45C235.712 634.45 233.887 630.325 233.887 625.15C233.887 620 235.712 615.85 239.937 615.85ZM239.937 617.875C237.012 617.875 236.362 622.175 236.362 625.15C236.362 628.15 237.012 632.4 239.937 632.4C242.812 632.4 243.487 628.15 243.487 625.15C243.487 622.175 242.812 617.875 239.937 617.875ZM257.38 624.675C259.28 625.15 260.73 626.9 260.73 629.175C260.73 632.5 258.005 634.45 254.805 634.45C251.58 634.45 248.855 632.5 248.855 629.175C248.855 626.825 250.38 625.175 252.205 624.675V624.625C250.63 624.075 249.48 622.625 249.48 620.675C249.48 617.75 251.88 615.85 254.805 615.85C257.705 615.85 260.105 617.675 260.105 620.625C260.105 622.55 258.98 624.1 257.38 624.625V624.675ZM251.905 620.75C251.905 622.375 253.13 623.625 254.805 623.625C256.405 623.625 257.705 622.375 257.705 620.75C257.705 619.05 256.38 617.85 254.805 617.85C253.13 617.85 251.905 619.05 251.905 620.75ZM251.33 629.05C251.33 631.05 252.755 632.425 254.805 632.425C256.805 632.425 258.255 631.05 258.255 629.05C258.255 627.125 256.805 625.7 254.805 625.7C252.78 625.7 251.33 627.1 251.33 629.05Z" fill="#D4D7DC"/>
<rect x="91.5" y="172.5" width="475" height="163" rx="19.5" stroke="#D4D7DC"/>
<rect x="91.5" y="573.5" width="475" height="163" rx="19.5" stroke="#D4D7DC"/>
<rect x="91.5" y="376.5" width="475" height="163" rx="19.5" stroke="#D4D7DC"/>
<path d="M149.458 246.333H131.542C131.066 246.333 130.611 246.145 130.275 245.809C129.939 245.473 129.75 245.017 129.75 244.542C129.75 244.066 129.939 243.611 130.275 243.275C130.611 242.939 131.066 242.75 131.542 242.75H149.458C149.934 242.75 150.389 242.939 150.725 243.275C151.061 243.611 151.25 244.066 151.25 244.542C151.25 245.017 151.061 245.473 150.725 245.809C150.389 246.145 149.934 246.333 149.458 246.333Z" fill="#D4D7DC"/>
<path d="M149.458 253.5H131.542C131.066 253.5 130.611 253.311 130.275 252.975C129.939 252.639 129.75 252.184 129.75 251.708C129.75 251.233 129.939 250.777 130.275 250.441C130.611 250.105 131.066 249.917 131.542 249.917H149.458C149.934 249.917 150.389 250.105 150.725 250.441C151.061 250.777 151.25 251.233 151.25 251.708C151.25 252.184 151.061 252.639 150.725 252.975C150.389 253.311 149.934 253.5 149.458 253.5Z" fill="#D4D7DC"/>
<path d="M142.292 260.667H131.542C131.066 260.667 130.611 260.478 130.275 260.142C129.939 259.806 129.75 259.35 129.75 258.875C129.75 258.4 129.939 257.944 130.275 257.608C130.611 257.272 131.066 257.083 131.542 257.083H142.292C142.767 257.083 143.223 257.272 143.559 257.608C143.895 257.944 144.083 258.4 144.083 258.875C144.083 259.35 143.895 259.806 143.559 260.142C143.223 260.478 142.767 260.667 142.292 260.667Z" fill="#D4D7DC"/>
<path d="M145.284 271.417C144.976 271.417 144.674 271.337 144.406 271.186L140.511 268.993L136.61 271.187C136.342 271.338 136.04 271.417 135.732 271.417C135.425 271.417 135.123 271.338 134.854 271.187L130.949 268.993L127.045 271.187C126.772 271.341 126.464 271.42 126.151 271.417C125.838 271.414 125.532 271.33 125.262 271.172C124.992 271.014 124.768 270.788 124.612 270.517C124.457 270.245 124.375 269.938 124.375 269.625V240.958C124.375 239.533 124.941 238.166 125.949 237.158C126.957 236.15 128.324 235.583 129.75 235.583H151.25C152.676 235.583 154.043 236.15 155.051 237.158C156.059 238.166 156.625 239.533 156.625 240.958V269.625C156.625 269.938 156.543 270.245 156.387 270.516C156.231 270.787 156.007 271.013 155.738 271.17C155.468 271.328 155.161 271.413 154.848 271.415C154.536 271.418 154.228 271.339 153.955 271.186L150.059 268.993L146.162 271.186C145.894 271.337 145.591 271.417 145.284 271.417V271.417ZM130.95 265.146C131.258 265.146 131.56 265.225 131.828 265.375L135.734 267.568L139.635 265.375C139.903 265.224 140.205 265.145 140.513 265.145C140.82 265.145 141.122 265.224 141.39 265.375L145.286 267.568L149.182 265.375C149.45 265.224 149.753 265.145 150.06 265.145C150.368 265.145 150.67 265.224 150.938 265.375L153.042 266.561V240.958C153.042 240.483 152.853 240.027 152.517 239.691C152.181 239.355 151.725 239.167 151.25 239.167H129.75C129.275 239.167 128.819 239.355 128.483 239.691C128.147 240.027 127.958 240.483 127.958 240.958V266.563L130.071 265.375C130.339 265.225 130.641 265.146 130.949 265.146H130.95Z" fill="#D4D7DC"/>
<path d="M149.458 451.333H131.542C131.066 451.333 130.611 451.145 130.275 450.809C129.939 450.473 129.75 450.017 129.75 449.542C129.75 449.066 129.939 448.611 130.275 448.275C130.611 447.939 131.066 447.75 131.542 447.75H149.458C149.934 447.75 150.389 447.939 150.725 448.275C151.061 448.611 151.25 449.066 151.25 449.542C151.25 450.017 151.061 450.473 150.725 450.809C150.389 451.145 149.934 451.333 149.458 451.333Z" fill="#D4D7DC"/>
<path d="M149.458 458.5H131.542C131.066 458.5 130.611 458.311 130.275 457.975C129.939 457.639 129.75 457.184 129.75 456.708C129.75 456.233 129.939 455.777 130.275 455.441C130.611 455.105 131.066 454.917 131.542 454.917H149.458C149.934 454.917 150.389 455.105 150.725 455.441C151.061 455.777 151.25 456.233 151.25 456.708C151.25 457.184 151.061 457.639 150.725 457.975C150.389 458.311 149.934 458.5 149.458 458.5Z" fill="#D4D7DC"/>
<path d="M142.292 465.667H131.542C131.066 465.667 130.611 465.478 130.275 465.142C129.939 464.806 129.75 464.35 129.75 463.875C129.75 463.4 129.939 462.944 130.275 462.608C130.611 462.272 131.066 462.083 131.542 462.083H142.292C142.767 462.083 143.223 462.272 143.559 462.608C143.895 462.944 144.083 463.4 144.083 463.875C144.083 464.35 143.895 464.806 143.559 465.142C143.223 465.478 142.767 465.667 142.292 465.667Z" fill="#D4D7DC"/>
<path d="M145.284 476.417C144.976 476.417 144.674 476.337 144.406 476.186L140.511 473.993L136.61 476.187C136.342 476.338 136.04 476.417 135.732 476.417C135.425 476.417 135.123 476.338 134.854 476.187L130.949 473.993L127.045 476.187C126.772 476.341 126.464 476.42 126.151 476.417C125.838 476.414 125.532 476.33 125.262 476.172C124.992 476.014 124.768 475.788 124.612 475.517C124.457 475.245 124.375 474.938 124.375 474.625V445.958C124.375 444.533 124.941 443.166 125.949 442.158C126.957 441.15 128.324 440.583 129.75 440.583H151.25C152.676 440.583 154.043 441.15 155.051 442.158C156.059 443.166 156.625 444.533 156.625 445.958V474.625C156.625 474.938 156.543 475.245 156.387 475.516C156.231 475.787 156.007 476.013 155.738 476.17C155.468 476.328 155.161 476.413 154.848 476.415C154.536 476.418 154.228 476.339 153.955 476.186L150.059 473.993L146.162 476.186C145.894 476.337 145.591 476.417 145.284 476.417V476.417ZM130.95 470.146C131.258 470.146 131.56 470.225 131.828 470.375L135.734 472.568L139.635 470.375C139.903 470.224 140.205 470.145 140.513 470.145C140.82 470.145 141.122 470.224 141.39 470.375L145.286 472.568L149.182 470.375C149.45 470.224 149.753 470.145 150.06 470.145C150.368 470.145 150.67 470.224 150.938 470.375L153.042 471.561V445.958C153.042 445.483 152.853 445.027 152.517 444.691C152.181 444.355 151.725 444.167 151.25 444.167H129.75C129.275 444.167 128.819 444.355 128.483 444.691C128.147 445.027 127.958 445.483 127.958 445.958V471.563L130.071 470.375C130.339 470.225 130.641 470.146 130.949 470.146H130.95Z" fill="#D4D7DC"/>
</g>
</g>
<defs>
<filter id="filter0_d_1_2360" x="0" y="0" width="650" height="739" filterUnits="userSpaceOnUse" color-interpolation-filters="sRGB">
<feFlood flood-opacity="0" result="BackgroundImageFix"/>
<feColorMatrix in="SourceAlpha" type="matrix" values="0 0 0 0 0 0 0 0 0 0 0 0 0 0 0 0 0 0 127 0" result="hardAlpha"/>
<feOffset dy="11"/>
<feGaussianBlur stdDeviation="22.5"/>
<feComposite in2="hardAlpha" operator="out"/>
<feColorMatrix type="matrix" values="0 0 0 0 0 0 0 0 0 0 0 0 0 0 0 0 0 0 0.2 0"/>
<feBlend mode="normal" in2="BackgroundImageFix" result="effect1_dropShadow_1_2360"/>
<feBlend mode="normal" in="SourceGraphic" in2="effect1_dropShadow_1_2360" result="shape"/>
</filter>
<clipPath id="clip0_1_2360">
<rect x="45" y="34" width="560" height="649" rx="26" fill="white"/>
</clipPath>
</defs>
</svg>
