<svg width="73" height="72" viewBox="0 0 73 72" fill="none" xmlns="http://www.w3.org/2000/svg">
<path d="M36.5 0C56.372 0 72.5 16.128 72.5 36C72.5 55.872 56.372 72 36.5 72C16.628 72 0.5 55.872 0.5 36C0.5 16.128 16.628 0 36.5 0Z" fill="#0FD46C"/>
<path d="M43.5833 30.3333H29.4167C29.0409 30.3333 28.6806 30.1841 28.4149 29.9184C28.1493 29.6527 28 29.2924 28 28.9167C28 28.5409 28.1493 28.1806 28.4149 27.9149C28.6806 27.6493 29.0409 27.5 29.4167 27.5H43.5833C43.9591 27.5 44.3194 27.6493 44.5851 27.9149C44.8507 28.1806 45 28.5409 45 28.9167C45 29.2924 44.8507 29.6527 44.5851 29.9184C44.3194 30.1841 43.9591 30.3333 43.5833 30.3333Z" fill="white"/>
<path d="M43.5833 36.0001H29.4167C29.0409 36.0001 28.6806 35.8508 28.4149 35.5851C28.1493 35.3195 28 34.9591 28 34.5834C28 34.2077 28.1493 33.8474 28.4149 33.5817C28.6806 33.316 29.0409 33.1667 29.4167 33.1667H43.5833C43.9591 33.1667 44.3194 33.316 44.5851 33.5817C44.8507 33.8474 45 34.2077 45 34.5834C45 34.9591 44.8507 35.3195 44.5851 35.5851C44.3194 35.8508 43.9591 36.0001 43.5833 36.0001Z" fill="white"/>
<path d="M37.9167 41.6666H29.4167C29.0409 41.6666 28.6806 41.5173 28.4149 41.2517C28.1493 40.986 28 40.6256 28 40.2499C28 39.8742 28.1493 39.5139 28.4149 39.2482C28.6806 38.9825 29.0409 38.8333 29.4167 38.8333H37.9167C38.2924 38.8333 38.6527 38.9825 38.9184 39.2482C39.1841 39.5139 39.3333 39.8742 39.3333 40.2499C39.3333 40.6256 39.1841 40.986 38.9184 41.2517C38.6527 41.5173 38.2924 41.6666 37.9167 41.6666Z" fill="white"/>
<path d="M40.2825 50.1666C40.0392 50.1667 39.8001 50.1037 39.5883 49.9838L36.5085 48.2498L33.4244 49.9853C33.2125 50.1044 32.9734 50.167 32.7302 50.167C32.4871 50.167 32.248 50.1044 32.0361 49.9853L28.9478 48.2498L25.8608 49.9853C25.6452 50.1064 25.4017 50.1691 25.1543 50.1669C24.907 50.1648 24.6646 50.0979 24.4511 49.973C24.2377 49.8481 24.0606 49.6694 23.9376 49.4549C23.8146 49.2403 23.7499 48.9972 23.75 48.7499V26.0833C23.75 24.9561 24.1978 23.8751 24.9948 23.078C25.7918 22.281 26.8728 21.8333 28 21.8333H45C46.1272 21.8333 47.2082 22.281 48.0052 23.078C48.8022 23.8751 49.25 24.9561 49.25 26.0833V48.7499C49.2498 48.9971 49.185 49.24 49.0619 49.4544C48.9387 49.6687 48.7617 49.8472 48.5483 49.9719C48.3349 50.0967 48.0925 50.1634 47.8453 50.1655C47.5981 50.1676 47.3547 50.105 47.1392 49.9838L44.0579 48.2498L40.9767 49.9838C40.7649 50.1037 40.5258 50.1667 40.2825 50.1666V50.1666ZM28.9492 45.2083C29.1923 45.2081 29.4313 45.2706 29.6433 45.3896L32.7317 47.1236L35.8157 45.3896C36.0277 45.2704 36.2668 45.2079 36.5099 45.2079C36.7531 45.2079 36.9921 45.2704 37.2041 45.3896L40.2839 47.1236L43.3652 45.3896C43.5771 45.2704 43.8162 45.2079 44.0593 45.2079C44.3025 45.2079 44.5415 45.2704 44.7535 45.3896L46.4167 46.3274V26.0833C46.4167 25.7075 46.2674 25.3472 46.0017 25.0815C45.7361 24.8158 45.3757 24.6666 45 24.6666H28C27.6243 24.6666 27.2639 24.8158 26.9983 25.0815C26.7326 25.3472 26.5833 25.7075 26.5833 26.0833V46.3288L28.2536 45.3896C28.4656 45.2706 28.7046 45.2081 28.9478 45.2083H28.9492Z" fill="white"/>
</svg>
