<svg width="73" height="72" viewBox="0 0 73 72" fill="none" xmlns="http://www.w3.org/2000/svg">
<path d="M36.5 0C56.372 0 72.5 16.128 72.5 36C72.5 55.872 56.372 72 36.5 72C16.628 72 0.5 55.872 0.5 36C0.5 16.128 16.628 0 36.5 0Z" fill="#0FD46C"/>
<path d="M49.2501 33.1822L49.2586 27.5155C49.2595 26.9568 49.1502 26.4034 48.9371 25.8869C48.7239 25.3705 48.411 24.9011 48.0163 24.5057C47.6215 24.1103 47.1527 23.7966 46.6366 23.5826C46.1205 23.3686 45.5673 23.2584 45.0086 23.2584L28.1715 23.2372H28.1644C27.1402 23.2244 26.144 23.5721 25.3503 24.2196C24.5565 24.867 24.0157 25.7729 23.8223 26.7788C23.7911 26.9687 23.7628 27.4333 23.7628 27.4872L23.7373 44.4872C23.7373 45.6143 24.1851 46.6953 24.9821 47.4924C25.7791 48.2894 26.8601 48.7372 27.9873 48.7372L44.9873 48.7627H44.9958C46.123 48.7627 47.204 48.3149 48.001 47.5179C48.798 46.7208 49.2458 45.6398 49.2458 44.5127L49.2543 38.846V34.596V33.1793L49.2501 33.1822ZM46.4167 37.4322V41.6822L39.3334 41.6722C38.9577 41.6722 38.5973 41.523 38.3317 41.2573C38.066 40.9916 37.9167 40.6313 37.9167 40.2556V37.4222C37.9167 37.0465 38.066 36.6862 38.3317 36.4205C38.5973 36.1548 38.9577 36.0056 39.3334 36.0056V36.0056L46.4167 36.0155V37.4322V37.4322ZM28.1644 26.0705L45.0128 26.096C45.3885 26.096 45.7489 26.2452 46.0145 26.5109C46.2802 26.7766 46.4295 27.1369 46.4295 27.5127V29.1857C45.9756 29.0189 45.4964 28.9312 45.0128 28.9265L28.0128 28.901C27.8056 28.9009 27.6008 28.8554 27.4131 28.7677C27.2254 28.6799 27.0592 28.552 26.9262 28.393C26.7933 28.234 26.6969 28.0477 26.6438 27.8474C26.5906 27.6471 26.5821 27.4375 26.6188 27.2336C26.7043 26.892 26.9044 26.5901 27.1857 26.3784C27.467 26.1667 27.8125 26.058 28.1644 26.0705V26.0705ZM44.9873 45.9293L27.9873 45.9038C27.6116 45.9038 27.2512 45.7546 26.9856 45.4889C26.7199 45.2232 26.5706 44.8629 26.5706 44.4872L26.5905 31.7372H28.0071L45.0071 31.7627C45.3829 31.7627 45.7432 31.9119 46.0089 32.1776C46.2745 32.4433 46.4238 32.8036 46.4238 33.1793L39.3334 33.1666C38.2062 33.1666 37.1252 33.6143 36.3282 34.4114C35.5312 35.2084 35.0834 36.2894 35.0834 37.4166V40.2499C35.0834 41.3771 35.5312 42.4581 36.3282 43.2551C37.1252 44.0521 38.2062 44.4999 39.3334 44.4999L46.4167 44.5098C46.4167 44.8855 46.2675 45.2459 46.0018 45.5116C45.7361 45.7772 45.3758 45.9265 45.0001 45.9265L44.9873 45.9293Z" fill="white"/>
<path d="M42.1667 37.425C41.8865 37.425 41.6126 37.5081 41.3796 37.6638C41.1466 37.8195 40.9651 38.0407 40.8578 38.2996C40.7506 38.5584 40.7226 38.8433 40.7772 39.1181C40.8319 39.3929 40.9668 39.6453 41.1649 39.8435C41.3631 40.0416 41.6155 40.1765 41.8903 40.2312C42.1651 40.2858 42.4499 40.2578 42.7088 40.1505C42.9677 40.0433 43.1889 39.8617 43.3446 39.6288C43.5002 39.3958 43.5833 39.1219 43.5833 38.8417C43.5833 38.466 43.4341 38.1057 43.1684 37.84C42.9027 37.5743 42.5424 37.425 42.1667 37.425Z" fill="white"/>
</svg>
