<svg width="73" height="72" viewBox="0 0 73 72" fill="none" xmlns="http://www.w3.org/2000/svg">
<path d="M36.5 0C56.372 0 72.5 16.128 72.5 36C72.5 55.872 56.372 72 36.5 72C16.628 72 0.5 55.872 0.5 36C0.5 16.128 16.628 0 36.5 0Z" fill="#0FD46C"/>
<path d="M49.2499 33.1666H44.9999V28.9166C44.9999 27.7894 44.5522 26.7084 43.7551 25.9114C42.9581 25.1144 41.8771 24.6666 40.7499 24.6666H39.0726C38.7806 23.8408 38.2407 23.1254 37.5266 22.6182C36.8125 22.111 35.9591 21.8369 35.0833 21.8333H32.2499C31.374 21.8369 30.5207 22.111 29.8066 22.6182C29.0925 23.1254 28.5525 23.8408 28.2606 24.6666H26.5833C25.4561 24.6666 24.3751 25.1144 23.578 25.9114C22.781 26.7084 22.3333 27.7894 22.3333 28.9166V45.9166C22.3333 47.0438 22.781 48.1248 23.578 48.9218C24.3751 49.7188 25.4561 50.1666 26.5833 50.1666H48.0996C48.851 50.1666 49.5717 49.8681 50.1031 49.3367C50.6344 48.8054 50.9329 48.0847 50.9329 47.3333V40.1961C51.2535 40.1386 51.5438 39.971 51.7539 39.7221C51.9639 39.4733 52.0804 39.1589 52.0833 38.8333V35.9999C52.0833 35.2485 51.7847 34.5278 51.2534 33.9964C50.722 33.4651 50.0014 33.1666 49.2499 33.1666ZM49.2499 37.4166H35.0833V35.9999H49.2499V37.4166ZM32.2499 24.6666H35.0833C35.459 24.6666 35.8193 24.8158 36.085 25.0815C36.3507 25.3472 36.4999 25.7075 36.4999 26.0833V27.4999H30.8333V26.0833C30.8333 25.7075 30.9825 25.3472 31.2482 25.0815C31.5139 24.8158 31.8742 24.6666 32.2499 24.6666V24.6666ZM25.1666 45.9166V28.9166C25.1666 28.5409 25.3158 28.1805 25.5815 27.9149C25.8472 27.6492 26.2075 27.4999 26.5833 27.4999H27.9999V28.9166C27.9999 29.2923 28.1492 29.6526 28.4149 29.9183C28.6805 30.184 29.0409 30.3333 29.4166 30.3333H37.9166C38.2923 30.3333 38.6526 30.184 38.9183 29.9183C39.184 29.6526 39.3333 29.2923 39.3333 28.9166V27.4999H40.7499C41.1256 27.4999 41.486 27.6492 41.7517 27.9149C42.0173 28.1805 42.1666 28.5409 42.1666 28.9166V33.1666H35.0833C34.3318 33.1666 33.6111 33.4651 33.0798 33.9964C32.5484 34.5278 32.2499 35.2485 32.2499 35.9999V38.8333C32.2527 39.1589 32.3692 39.4733 32.5793 39.7221C32.7893 39.971 33.0797 40.1386 33.4003 40.1961V47.3333H26.5833C26.2075 47.3333 25.8472 47.184 25.5815 46.9183C25.3158 46.6526 25.1666 46.2923 25.1666 45.9166ZM40.7499 47.3333H36.2336V40.2499H48.0996V47.3333H40.7499Z" fill="white"/>
<path d="M43.5833 41.6667H40.7499C40.3742 41.6667 40.0139 41.816 39.7482 42.0817C39.4825 42.3474 39.3333 42.7077 39.3333 43.0834C39.3333 43.4591 39.4825 43.8195 39.7482 44.0852C40.0139 44.3508 40.3742 44.5001 40.7499 44.5001H43.5833C43.959 44.5001 44.3193 44.3508 44.585 44.0852C44.8507 43.8195 44.9999 43.4591 44.9999 43.0834C44.9999 42.7077 44.8507 42.3474 44.585 42.0817C44.3193 41.816 43.959 41.6667 43.5833 41.6667Z" fill="white"/>
</svg>
