<svg width="72" height="72" viewBox="0 0 72 72" fill="none" xmlns="http://www.w3.org/2000/svg">
<path d="M36 0C55.872 0 72 16.128 72 36C72 55.872 55.872 72 36 72C16.128 72 0 55.872 0 36C0 16.128 16.128 0 36 0Z" fill="#0FD46C"/>
<path d="M42.375 29.2242H43.1032C43.4789 29.2242 43.8392 29.075 44.1049 28.8093C44.3706 28.5436 44.5198 28.1833 44.5198 27.8076C44.5198 27.4319 44.3706 27.0715 44.1049 26.8058C43.8392 26.5402 43.4789 26.3909 43.1032 26.3909H41.7049L42.443 24.919C42.6056 24.5952 42.6826 24.2352 42.6669 23.8732C42.6511 23.5112 42.5431 23.1593 42.353 22.8508C42.1629 22.5423 41.8971 22.2876 41.5809 22.1108C41.2646 21.934 40.9084 21.841 40.5461 21.8406L31.4992 21.8335C31.1381 21.8337 30.7829 21.926 30.4673 22.1017C30.1517 22.2773 29.8861 22.5305 29.6955 22.8374C29.505 23.1442 29.3958 23.4945 29.3782 23.8553C29.3607 24.216 29.4354 24.5753 29.5952 24.8992L30.3333 26.3668H28.9294C28.5537 26.3668 28.1934 26.5161 27.9277 26.7818C27.662 27.0474 27.5127 27.4078 27.5127 27.7835C27.5127 28.1592 27.662 28.5196 27.9277 28.7852C28.1934 29.0509 28.5537 29.2002 28.9294 29.2002H29.6547C27.7125 30.3146 26.0979 31.9209 24.9736 33.8574C23.8493 35.794 23.2548 37.9925 23.25 40.2317V41.6484C23.2474 43.9013 24.1383 46.0633 25.7275 47.6602C27.3168 49.2571 29.4744 50.1586 31.7273 50.1668L40.2273 50.181H40.2401C42.4915 50.178 44.6501 49.2831 46.2432 47.6921C47.8363 46.1011 48.7341 43.9438 48.7401 41.6923V40.2757C48.7428 38.0369 48.1559 35.8369 47.0386 33.8969C45.9213 31.9569 44.3128 30.3454 42.375 29.2242V29.2242ZM32.6425 24.6668H39.3915L38.5316 26.3796H33.4982L32.6425 24.6668ZM45.9082 41.6881C45.9059 43.1895 45.3079 44.6287 44.2454 45.6895C43.183 46.7504 41.7429 47.3462 40.2415 47.3462H40.2344L31.7344 47.3321C30.2318 47.3295 28.7917 46.7301 27.7309 45.6658C26.6701 44.6016 26.0754 43.1596 26.0777 41.6569V40.2402C26.0837 37.612 27.1315 35.0933 28.9914 33.2362C30.8514 31.3792 33.3717 30.3354 36 30.3335H36.0142C38.6435 30.3402 41.1629 31.3898 43.0193 33.2518C44.8758 35.1139 45.9178 37.6364 45.9167 40.2657L45.9082 41.6881Z" fill="white"/>
<path d="M35.2917 36H38.8333C39.2091 36 39.5694 35.8507 39.8351 35.5851C40.1007 35.3194 40.25 34.9591 40.25 34.5833C40.25 34.2076 40.1007 33.8473 39.8351 33.5816C39.5694 33.3159 39.2091 33.1667 38.8333 33.1667H37.4167C37.4167 32.7909 37.2674 32.4306 37.0017 32.1649C36.7361 31.8993 36.3757 31.75 36 31.75C35.6243 31.75 35.2639 31.8993 34.9983 32.1649C34.7326 32.4306 34.5833 32.7909 34.5833 33.1667V33.2375C33.7226 33.4123 32.9575 33.9006 32.4366 34.6078C31.9157 35.3149 31.6761 36.1904 31.7644 37.0643C31.8526 37.9381 32.2625 38.748 32.9143 39.3367C33.5661 39.9254 34.4134 40.2509 35.2917 40.25H36.7083C36.8962 40.25 37.0764 40.3246 37.2092 40.4575C37.342 40.5903 37.4167 40.7705 37.4167 40.9583C37.4167 41.1462 37.342 41.3264 37.2092 41.4592C37.0764 41.592 36.8962 41.6667 36.7083 41.6667H36H33.1667C32.7909 41.6667 32.4306 41.8159 32.1649 42.0816C31.8993 42.3473 31.75 42.7076 31.75 43.0833C31.75 43.4591 31.8993 43.8194 32.1649 44.0851C32.4306 44.3507 32.7909 44.5 33.1667 44.5H34.5833C34.5833 44.8757 34.7326 45.2361 34.9983 45.5017C35.2639 45.7674 35.6243 45.9167 36 45.9167C36.3757 45.9167 36.7361 45.7674 37.0017 45.5017C37.2674 45.2361 37.4167 44.8757 37.4167 44.5V44.4292C38.2774 44.2544 39.0425 43.766 39.5634 43.0589C40.0843 42.3517 40.3239 41.4763 40.2356 40.6024C40.1474 39.7285 39.7375 38.9187 39.0857 38.33C38.4339 37.7413 37.5866 37.4158 36.7083 37.4167H35.2917C35.1038 37.4167 34.9236 37.342 34.7908 37.2092C34.658 37.0764 34.5833 36.8962 34.5833 36.7083C34.5833 36.5205 34.658 36.3403 34.7908 36.2075C34.9236 36.0746 35.1038 36 35.2917 36Z" fill="white"/>
</svg>
