<svg width="72" height="72" viewBox="0 0 72 72" fill="none" xmlns="http://www.w3.org/2000/svg">
<path d="M36 0C55.872 0 72 16.128 72 36C72 55.872 55.872 72 36 72C16.128 72 0 55.872 0 36C0 16.128 16.128 0 36 0Z" fill="#0FD46C"/>
<path d="M43.6667 38.2077C44.0424 38.2077 44.4027 38.0584 44.6684 37.7928C44.9341 37.5271 45.0833 37.1667 45.0833 36.791V33.9676C45.0866 33.6238 45.2245 33.295 45.4673 33.0517C45.7101 32.8083 46.0386 32.6697 46.3824 32.6657L47.3047 32.6572L46.8032 33.1629C46.6688 33.2944 46.562 33.4514 46.4889 33.6246C46.4158 33.7978 46.3779 33.9838 46.3774 34.1718C46.3769 34.3598 46.4139 34.546 46.4861 34.7196C46.5583 34.8931 46.6643 35.0506 46.798 35.1828C46.9317 35.315 47.0903 35.4192 47.2647 35.4895C47.4391 35.5597 47.6257 35.5945 47.8137 35.5919C48.0017 35.5893 48.1873 35.5493 48.3596 35.4743C48.532 35.3992 48.6877 35.2906 48.8177 35.1548L51.7346 32.2081C51.9992 31.9397 52.1473 31.5778 52.1468 31.2009V31.2009C52.1468 31.181 52.1355 31.164 52.1341 31.1428C52.1358 30.8398 52.0195 30.5481 51.8097 30.3296C51.7849 30.286 51.757 30.2444 51.7261 30.2049L48.778 27.2866C48.5098 27.0295 48.1512 26.888 47.7797 26.8927C47.4081 26.8974 47.0533 27.0479 46.7916 27.3118C46.53 27.5756 46.3825 27.9317 46.381 28.3033C46.3794 28.6749 46.5239 29.0322 46.7833 29.2983L47.3146 29.8239L46.3569 29.8324C45.269 29.8468 44.23 30.2866 43.4623 31.0576C42.6947 31.8287 42.2595 32.8697 42.25 33.9577V36.791C42.25 37.1667 42.3993 37.5271 42.6649 37.7928C42.9306 38.0584 43.2909 38.2077 43.6667 38.2077Z" fill="white"/>
<path d="M33.75 19.791C32.8195 19.7901 31.898 19.9727 31.0382 20.3283C30.1784 20.6839 29.3972 21.2057 28.7392 21.8636C28.0813 22.5215 27.5596 23.3028 27.2039 24.1626C26.8483 25.0224 26.6657 25.9439 26.6666 26.8744V29.7077C26.6681 31.4368 27.302 33.1056 28.4488 34.3997C27.0947 34.9049 25.9271 35.8116 25.1023 36.9985C24.2775 38.1853 23.8348 39.5957 23.8333 41.041V45.291C23.8333 46.0425 24.1318 46.7631 24.6632 47.2945C25.1945 47.8258 25.9152 48.1244 26.6666 48.1244H39.4166C39.7924 48.1244 40.1527 47.9751 40.4184 47.7094C40.6841 47.4437 40.8333 47.0834 40.8333 46.7077C40.8333 46.332 40.6841 45.9716 40.4184 45.706C40.1527 45.4403 39.7924 45.291 39.4166 45.291H26.6666V41.041C26.6666 39.9138 27.1144 38.8328 27.9114 38.0358C28.7085 37.2388 29.7895 36.791 30.9166 36.791C31.2924 36.791 31.6527 36.6418 31.9184 36.3761C32.1841 36.1104 32.3333 35.7501 32.3333 35.3744V34.6094C32.3338 34.3602 32.2686 34.1153 32.1442 33.8994C32.0199 33.6835 31.8408 33.5043 31.625 33.3797C30.9802 33.0074 30.4445 32.4722 30.0715 31.8278C29.6986 31.1834 29.5015 30.4523 29.5 29.7077V26.8744C29.5003 25.7505 29.9442 24.6721 30.7353 23.8739C31.5461 23.1031 32.6214 22.6721 33.7401 22.6694C34.8588 22.6668 35.936 23.0927 36.7505 23.8597C37.5492 24.6598 37.9984 25.7438 38 26.8744V29.7077C38.0013 30.8256 37.562 31.8991 36.7774 32.6954C36.5089 32.9583 36.2092 33.1871 35.8849 33.3769C35.6669 33.5004 35.4855 33.6796 35.3593 33.8961C35.2331 34.1126 35.1667 34.3587 35.1666 34.6094V35.3744C35.1666 35.7501 35.3159 36.1104 35.5816 36.3761C35.8473 36.6418 36.2076 36.791 36.5833 36.791C37.3297 36.7938 38.0624 36.9921 38.7083 37.3662C38.8695 37.4607 39.0478 37.5223 39.2329 37.5477C39.418 37.573 39.6063 37.5614 39.7869 37.5137C39.9675 37.4659 40.1369 37.3829 40.2853 37.2694C40.4337 37.1559 40.5582 37.0142 40.6516 36.8524C40.7451 36.6906 40.8056 36.5119 40.8296 36.3267C40.8537 36.1414 40.8409 35.9532 40.792 35.7729C40.743 35.5926 40.6589 35.4237 40.5444 35.2761C40.4299 35.1284 40.2874 35.0049 40.125 34.9125C39.7828 34.7141 39.4246 34.5449 39.054 34.4068C40.2014 33.1105 40.8344 31.4389 40.8333 29.7077V26.8744C40.8342 25.9439 40.6517 25.0224 40.296 24.1626C39.9404 23.3028 39.4187 22.5215 38.7607 21.8636C38.1028 21.2057 37.3216 20.6839 36.4618 20.3283C35.6019 19.9727 34.6804 19.7901 33.75 19.791V19.791Z" fill="white"/>
<path d="M50.75 36.791C50.3743 36.791 50.0139 36.9403 49.7483 37.2059C49.4826 37.4716 49.3333 37.832 49.3333 38.2077V41.1388C49.3281 41.4799 49.1893 41.8053 48.9466 42.0451C48.7039 42.2848 48.3768 42.4198 48.0357 42.4208L47.0936 42.4293L47.5951 41.9222C47.7327 41.7915 47.8427 41.6346 47.9185 41.4606C47.9943 41.2866 48.0344 41.0992 48.0363 40.9094C48.0383 40.7196 48.0021 40.5314 47.9299 40.3559C47.8577 40.1804 47.751 40.0212 47.6161 39.8877C47.4812 39.7542 47.3209 39.6492 47.1446 39.5789C46.9684 39.5086 46.7798 39.4744 46.59 39.4784C46.4003 39.4824 46.2133 39.5244 46.0401 39.6021C45.867 39.6797 45.7112 39.7913 45.582 39.9303L42.6622 42.8798C42.3984 43.148 42.2512 43.5095 42.2528 43.8857C42.2528 43.9154 42.2684 43.9409 42.2712 43.9707C42.2774 44.1256 42.3095 44.2783 42.3662 44.4226C42.435 44.5772 42.5309 44.7183 42.6495 44.8391C42.6608 44.8518 42.6651 44.8674 42.6764 44.8802L45.6259 47.7985C45.893 48.0628 46.2542 48.2102 46.63 48.2082C47.0058 48.2062 47.3655 48.055 47.6298 47.7879C47.8941 47.5208 48.0415 47.1596 48.0395 46.7838C48.0375 46.408 47.8863 46.0483 47.6192 45.784L47.0893 45.2598L48.0626 45.2513C49.1454 45.2451 50.1825 44.8136 50.9502 44.0499C51.7179 43.2861 52.1548 42.2513 52.1667 41.1685V38.2091C52.1668 38.0229 52.1303 37.8386 52.0592 37.6665C51.9881 37.4945 51.8838 37.3381 51.7522 37.2064C51.6207 37.0747 51.4644 36.9703 51.2925 36.899C51.1205 36.8277 50.9361 36.791 50.75 36.791Z" fill="white"/>
</svg>
