<svg width="73" height="72" viewBox="0 0 73 72" fill="none" xmlns="http://www.w3.org/2000/svg">
<path d="M36.5 0C56.372 0 72.5 16.128 72.5 36C72.5 55.872 56.372 72 36.5 72C16.628 72 0.5 55.872 0.5 36C0.5 16.128 16.628 0 36.5 0Z" fill="#0FD46C"/>
<path fill-rule="evenodd" clip-rule="evenodd" d="M26.5679 47.3196L49.2345 47.3522C49.6103 47.3522 49.9706 47.5014 50.2363 47.7671C50.5019 48.0328 50.6512 48.3931 50.6512 48.7688C50.6512 49.1446 50.5019 49.5049 50.2363 49.7706C49.9706 50.0362 49.6103 50.1855 49.2345 50.1855L26.5679 50.1529C25.4407 50.1529 24.3597 49.7051 23.5627 48.9081C22.7656 48.1111 22.3179 47.0301 22.3179 45.9029L22.3505 23.2362C22.3505 22.8605 22.4997 22.5002 22.7654 22.2345C23.0311 21.9688 23.3914 21.8196 23.7671 21.8196C24.1428 21.8196 24.5032 21.9688 24.7689 22.2345C25.0345 22.5002 25.1838 22.8605 25.1838 23.2362L25.1512 45.9029C25.1512 46.2786 25.3005 46.639 25.5661 46.9046C25.8318 47.1703 26.1921 47.3196 26.5679 47.3196ZM27.7519 45.8836C27.5683 45.8526 27.3927 45.7856 27.2351 45.6867C26.9169 45.4871 26.6911 45.1694 26.6071 44.8033C26.5232 44.4372 26.588 44.0528 26.7874 43.7345L33.8821 32.4111C34.0044 32.2163 34.1723 32.0541 34.3714 31.9387C34.5704 31.8233 34.7945 31.7581 35.0244 31.7488C35.2543 31.7394 35.483 31.7862 35.6907 31.8851C35.8985 31.9839 36.079 32.1319 36.2168 32.3162L39.1578 36.2389L44.0084 27.5406C43.6835 27.0006 43.5462 26.3684 43.6179 25.7422C43.6896 25.1161 43.9663 24.5313 44.4049 24.0787C44.8435 23.6262 45.4194 23.3313 46.043 23.2401C46.6666 23.1488 47.3028 23.2663 47.8527 23.5741C48.4026 23.882 48.8353 24.3631 49.0834 24.9424C49.3315 25.5217 49.3812 26.1668 49.2246 26.7772C49.0681 27.3877 48.7141 27.9292 48.2178 28.3176C47.7215 28.706 47.1107 28.9195 46.4805 28.9247L40.5702 39.5256C40.4553 39.7319 40.2906 39.9061 40.0912 40.0326C39.8918 40.159 39.6639 40.2336 39.4283 40.2495C39.1929 40.2626 38.9579 40.2177 38.7437 40.119C38.5296 40.0202 38.343 39.8705 38.2001 39.6829L35.1897 35.6666L29.1887 45.239C29.0898 45.3968 28.9609 45.5335 28.8092 45.6413C28.6575 45.7492 28.4861 45.8261 28.3046 45.8677C28.1232 45.9093 27.9354 45.9147 27.7519 45.8836Z" fill="white"/>
</svg>
