<svg width="72" height="72" viewBox="0 0 72 72" fill="none" xmlns="http://www.w3.org/2000/svg">
<path d="M36 0C55.872 0 72 16.128 72 36C72 55.872 55.872 72 36 72C16.128 72 0 55.872 0 36C0 16.128 16.128 0 36 0Z" fill="#0FD46C"/>
<path d="M43.0833 32.1668V27.9168C43.0833 26.0382 42.337 24.2365 41.0087 22.9082C39.6803 21.5798 37.8786 20.8335 36 20.8335V20.8335C34.1221 20.8357 32.3217 21.5827 30.9938 22.9106C29.6659 24.2385 28.9189 26.0389 28.9167 27.9168V32.1668C27.7895 32.1668 26.7085 32.6146 25.9115 33.4116C25.1144 34.2087 24.6667 35.2897 24.6667 36.4168V44.9168C24.6667 46.044 25.1144 47.125 25.9115 47.922C26.7085 48.7191 27.7895 49.1668 28.9167 49.1668H43.0833C44.2105 49.1668 45.2915 48.7191 46.0885 47.922C46.8856 47.125 47.3333 46.044 47.3333 44.9168V36.4168C47.3333 35.2897 46.8856 34.2087 46.0885 33.4116C45.2915 32.6146 44.2105 32.1668 43.0833 32.1668ZM31.75 27.9168C31.75 26.7897 32.1978 25.7087 32.9948 24.9116C33.7918 24.1146 34.8728 23.6668 36 23.6668V23.6668C37.1272 23.6668 38.2082 24.1146 39.0052 24.9116C39.8022 25.7087 40.25 26.7897 40.25 27.9168V32.1668H31.75V27.9168ZM44.5 44.9168C44.5 45.2926 44.3507 45.6529 44.0851 45.9186C43.8194 46.1842 43.459 46.3335 43.0833 46.3335H28.9167C28.5409 46.3335 28.1806 46.1842 27.9149 45.9186C27.6492 45.6529 27.5 45.2926 27.5 44.9168V36.4168C27.5 36.0411 27.6492 35.6808 27.9149 35.4151C28.1806 35.1494 28.5409 35.0002 28.9167 35.0002H43.0833C43.459 35.0002 43.8194 35.1494 44.0851 35.4151C44.3507 35.6808 44.5 36.0411 44.5 36.4168V44.9168Z" fill="white"/>
<path d="M36 36.4165C35.3773 36.415 34.7715 36.6192 34.2768 36.9975C33.7822 37.3758 33.4264 37.907 33.2648 38.5084C33.1033 39.1098 33.1449 39.7477 33.3834 40.323C33.6218 40.8983 34.0437 41.3786 34.5833 41.6893V43.4998C34.5833 43.8756 34.7326 44.2359 34.9983 44.5016C35.2639 44.7673 35.6243 44.9165 36 44.9165C36.3757 44.9165 36.7361 44.7673 37.0017 44.5016C37.2674 44.2359 37.4167 43.8756 37.4167 43.4998V41.6837C37.9535 41.3717 38.3726 40.8915 38.6091 40.3174C38.8457 39.7433 38.8864 39.1073 38.7252 38.5076C38.5639 37.908 38.2096 37.3783 37.717 37.0003C37.2243 36.6223 36.6209 36.4171 36 36.4165V36.4165Z" fill="white"/>
</svg>
