<svg width="73" height="72" viewBox="0 0 73 72" fill="none" xmlns="http://www.w3.org/2000/svg">
<path d="M36.5 0C56.372 0 72.5 16.128 72.5 36C72.5 55.872 56.372 72 36.5 72C16.628 72 0.5 55.872 0.5 36C0.5 16.128 16.628 0 36.5 0Z" fill="#0FD46C"/>
<path d="M36.4999 21.8333C33.698 21.8333 30.959 22.6641 28.6293 24.2208C26.2997 25.7774 24.4839 27.9899 23.4116 30.5786C22.3394 33.1672 22.0588 36.0156 22.6055 38.7637C23.1521 41.5118 24.5013 44.036 26.4826 46.0173C28.4638 47.9985 30.9881 49.3478 33.7361 49.8944C36.4842 50.441 39.3327 50.1605 41.9213 49.0882C44.5099 48.016 46.7224 46.2002 48.2791 43.8705C49.8357 41.5408 50.6666 38.8018 50.6666 35.9999C50.6625 32.244 49.1686 28.643 46.5127 25.9871C43.8568 23.3313 40.2559 21.8374 36.4999 21.8333V21.8333ZM46.3004 30.3333H42.882C42.5002 28.7464 41.9562 27.2031 41.2585 25.7277C43.3702 26.7117 45.1298 28.319 46.3004 30.3333V30.3333ZM47.8333 35.9999C47.8298 36.9563 47.7046 37.9084 47.4607 38.8333H43.3963C43.5131 37.8932 43.5756 36.9472 43.5833 35.9999C43.5755 35.0527 43.513 34.1066 43.3963 33.1666H47.4607C47.7047 34.0914 47.8299 35.0435 47.8333 35.9999ZM32.461 38.8333C32.3293 37.8944 32.2587 36.9479 32.2499 35.9999C32.2586 35.0519 32.3292 34.1054 32.461 33.1666H40.536C40.6687 34.1054 40.7402 35.0518 40.7499 35.9999C40.7411 36.9479 40.6706 37.8944 40.5388 38.8333H32.461ZM25.1666 35.9999C25.1699 35.0435 25.2951 34.0914 25.5392 33.1666H29.6036C29.4867 34.1066 29.4243 35.0527 29.4166 35.9999C29.4243 36.9472 29.4867 37.8932 29.6036 38.8333H25.5392C25.2952 37.9084 25.17 36.9563 25.1666 35.9999V35.9999ZM37.4831 24.7162C38.5842 26.4557 39.4221 28.3486 39.9693 30.3333H33.0277C33.575 28.3486 34.4128 26.4557 35.5139 24.7162C35.8383 24.6878 36.1656 24.6666 36.4971 24.6666C36.8286 24.6666 37.1587 24.6878 37.4831 24.7162ZM31.7428 25.7277C31.0472 27.2034 30.5051 28.7467 30.1249 30.3333H26.6994C27.8702 28.3186 29.6304 26.7112 31.7428 25.7277V25.7277ZM26.6994 41.6666H30.1249C30.5065 43.2536 31.0511 44.797 31.7498 46.2722C29.6348 45.2898 27.8721 43.6823 26.6994 41.6666V41.6666ZM35.5168 47.2837C34.4158 45.544 33.578 43.6512 33.0305 41.6666H39.9722C39.4243 43.6513 38.586 45.5442 37.4845 47.2837C37.1601 47.312 36.8328 47.3333 36.5013 47.3333C36.1698 47.3333 35.8412 47.312 35.5168 47.2837V47.2837ZM41.2585 46.2722C41.9558 44.7966 42.4998 43.2533 42.882 41.6666H46.3004C45.1298 43.6808 43.3702 45.2882 41.2585 46.2722V46.2722Z" fill="white"/>
</svg>
