<svg width="73" height="72" viewBox="0 0 73 72" fill="none" xmlns="http://www.w3.org/2000/svg">
<path d="M36.5 0C56.372 0 72.5 16.128 72.5 36C72.5 55.872 56.372 72 36.5 72C16.628 72 0.5 55.872 0.5 36C0.5 16.128 16.628 0 36.5 0Z" fill="#0FD46C"/>
<path d="M36.5213 21.8333H36.5C32.7428 21.8303 29.1383 23.3199 26.4794 25.9746C23.8205 28.6292 22.325 32.2314 22.322 35.9886C22.319 39.7458 23.8087 43.3504 26.4633 46.0093C29.118 48.6681 32.7201 50.1636 36.4774 50.1666H36.5C40.2573 50.1692 43.8617 48.6792 46.5203 46.0243C49.1789 43.3694 50.674 39.7671 50.6766 36.0098C50.6792 32.2526 49.1892 28.6482 46.5343 25.9896C43.8794 23.331 40.2771 21.8359 36.5199 21.8333H36.5213ZM44.5014 44.0268C43.4518 45.0786 42.2045 45.9123 40.8312 46.4798C39.4579 47.0473 37.9859 47.3373 36.5 47.3333H36.483C33.4772 47.331 30.5955 46.1348 28.4716 44.0078C26.3478 41.8808 25.1559 38.9972 25.1582 35.9914C25.1604 32.9856 26.3567 30.1039 28.4837 27.98C30.6107 25.8562 33.4942 24.6643 36.5 24.6666H36.5156C38.7573 24.6699 40.9476 25.3378 42.8097 26.586C44.6717 27.8342 46.1217 29.6066 46.9764 31.679C47.831 33.7513 48.0519 36.0306 47.6111 38.2285C47.1703 40.4264 46.0876 42.4442 44.4999 44.0268H44.5014Z" fill="white"/>
<path d="M39.7584 30.7583L31.2442 39.2413C31.098 39.3688 30.9795 39.5251 30.8961 39.7004C30.8128 39.8756 30.7663 40.0662 30.7596 40.2601C30.7529 40.4541 30.7862 40.6473 30.8573 40.8279C30.9284 41.0085 31.0359 41.1726 31.173 41.3099C31.3101 41.4472 31.474 41.5549 31.6545 41.6263C31.835 41.6976 32.0282 41.7312 32.2222 41.7248C32.4162 41.7184 32.6068 41.6722 32.7821 41.5891C32.9575 41.5059 33.114 41.3877 33.2417 41.2416L41.7559 32.76C41.901 32.6321 42.0184 32.4759 42.1008 32.3009C42.1833 32.1259 42.229 31.9359 42.2352 31.7426C42.2414 31.5492 42.2079 31.3567 42.1369 31.1768C42.0658 30.9969 41.9587 30.8334 41.822 30.6965C41.6854 30.5596 41.5222 30.4521 41.3424 30.3807C41.1627 30.3092 40.9702 30.2754 40.7769 30.2812C40.5835 30.2869 40.3934 30.3323 40.2183 30.4143C40.0431 30.4964 39.8866 30.6134 39.7584 30.7583V30.7583Z" fill="white"/>
<path d="M33.8608 33.3522C34.1084 33.1045 34.277 32.789 34.3453 32.4455C34.4136 32.102 34.3785 31.746 34.2445 31.4224C34.1104 31.0989 33.8835 30.8223 33.5923 30.6278C33.3011 30.4332 32.9587 30.3293 32.6085 30.3293C32.2583 30.3293 31.9159 30.4332 31.6247 30.6278C31.3335 30.8223 31.1065 31.0989 30.9725 31.4224C30.8384 31.746 30.8033 32.102 30.8716 32.4455C30.9399 32.789 31.1085 33.1045 31.3561 33.3522C31.5206 33.5167 31.7158 33.6471 31.9307 33.7362C32.1456 33.8252 32.3759 33.871 32.6085 33.871C32.8411 33.871 33.0714 33.8252 33.2863 33.7362C33.5011 33.6471 33.6964 33.5167 33.8608 33.3522V33.3522Z" fill="white"/>
<path d="M39.1394 38.6477C38.8917 38.8954 38.7231 39.2109 38.6548 39.5544C38.5866 39.8979 38.6216 40.254 38.7557 40.5775C38.8897 40.9011 39.1167 41.1776 39.4079 41.3722C39.6991 41.5667 40.0415 41.6706 40.3917 41.6706C40.7419 41.6706 41.0843 41.5667 41.3755 41.3722C41.6667 41.1776 41.8936 40.9011 42.0277 40.5775C42.1617 40.254 42.1968 39.8979 42.1285 39.5544C42.0602 39.2109 41.8916 38.8954 41.644 38.6477C41.4796 38.4833 41.2843 38.3528 41.0695 38.2637C40.8546 38.1747 40.6243 38.1289 40.3917 38.1289C40.1591 38.1289 39.9288 38.1747 39.7139 38.2637C39.499 38.3528 39.3038 38.4833 39.1394 38.6477Z" fill="white"/>
</svg>
