<svg width="73" height="72" viewBox="0 0 73 72" fill="none" xmlns="http://www.w3.org/2000/svg">
<path d="M36.5 0C56.372 0 72.5 16.128 72.5 36C72.5 55.872 56.372 72 36.5 72C16.628 72 0.5 55.872 0.5 36C0.5 16.128 16.628 0 36.5 0Z" fill="#0FD46C"/>
<path d="M48.5416 33.1667C49.1052 33.1667 49.6457 32.9428 50.0442 32.5443C50.4427 32.1457 50.6666 31.6052 50.6666 31.0417V27.9604C50.6666 27.5493 50.5474 27.1469 50.3234 26.8022C50.0993 26.4574 49.7801 26.1851 49.4043 26.0182L37.3627 20.6646C37.0914 20.5443 36.798 20.4822 36.5013 20.4822C36.2046 20.4822 35.9112 20.5443 35.64 20.6646L23.5983 26.0153C23.2216 26.182 22.9015 26.4546 22.6769 26.8C22.4523 27.1453 22.3329 27.5485 22.3333 27.9604V31.0417C22.3333 31.6052 22.5571 32.1457 22.9557 32.5443C23.3542 32.9428 23.8947 33.1667 24.4583 33.1667H25.1666V43.0833H24.4583C23.8947 43.0833 23.3542 43.3072 22.9557 43.7057C22.5571 44.1042 22.3333 44.6447 22.3333 45.2083V48.0417C22.3333 48.6052 22.5571 49.1457 22.9557 49.5443C23.3542 49.9428 23.8947 50.1667 24.4583 50.1667H48.5416C49.1052 50.1667 49.6457 49.9428 50.0442 49.5443C50.4427 49.1457 50.6666 48.6052 50.6666 48.0417V45.2083C50.6666 44.6447 50.4427 44.1042 50.0442 43.7057C49.6457 43.3072 49.1052 43.0833 48.5416 43.0833H47.8333V33.1667H48.5416ZM25.1666 28.4208L36.4999 23.3832L47.8333 28.4208V30.3333H25.1666V28.4208ZM32.2499 43.0833V33.1667H40.7499V43.0833H32.2499ZM27.9999 33.1667H29.4166V43.0833H27.9999V33.1667ZM47.8333 47.3333H25.1666V45.9167H47.8333V47.3333ZM44.9999 43.0833H43.5833V33.1667H44.9999V43.0833Z" fill="white"/>
<path d="M36.4999 28.9166C37.2823 28.9166 37.9166 28.2823 37.9166 27.4999C37.9166 26.7175 37.2823 26.0833 36.4999 26.0833C35.7175 26.0833 35.0833 26.7175 35.0833 27.4999C35.0833 28.2823 35.7175 28.9166 36.4999 28.9166Z" fill="white"/>
</svg>
