<svg xmlns="http://www.w3.org/2000/svg" width="18" height="19" fill="none" viewBox="0 0 18 19">
  <path fill="#fff" fill-rule="evenodd" d="M1.404 18.272h3.688V5.794H1.404v12.478ZM5.553 2.228C5.553.998 4.525 0 3.248 0 1.975 0 .943.997.943 2.228c0 1.23 1.032 2.229 2.305 2.229 1.277 0 2.305-.998 2.305-2.229M18 10.695c0-1.637-1.058-3.4-2.517-4.19-1.373-.746-3.4-.808-4.858-.164v-.547H6.937v12.478h3.688v-7.98s1.3-1.433 3.054-.677c.517.293.634.724.634 1.08v7.577H18v-7.577Z" clip-rule="evenodd"/>
</svg>
