<?xml version="1.0" encoding="UTF-8"?>
<svg id="Layer_1" data-name="Layer 1" xmlns="http://www.w3.org/2000/svg" viewBox="0 0 107.42 20">
  <defs>
    <style>
      .cls-1 {
        fill: #fff;
      }

      .cls-2 {
        fill: #2ca01c;
      }
    </style>
  </defs>
  <path class="cls-1" d="m29.2,19.99h-2.04v-5.08h-.03c-.54.8-1.56,1.3-2.71,1.3-2.49,0-4.03-1.94-4.03-4.29s1.64-4.21,3.98-4.21c1.51,0,2.42.72,2.83,1.36h.04v-1.12h1.96v12.05h-.01,0Zm-4.38-5.47c1.51,0,2.4-1.32,2.4-2.58s-.9-2.61-2.4-2.61c-1.59,0-2.35,1.32-2.35,2.58s.77,2.61,2.35,2.61Z"/>
  <path class="cls-1" d="m38.75,15.97h-1.94v-1.29h-.03c-.36.8-1.33,1.52-2.54,1.52-2.13,0-3.02-1.61-3.02-3.25v-5.03h2.04v4.45c0,.96.22,2.14,1.54,2.14s1.91-1.11,1.91-2.17v-4.42h2.05v8.03h0Z"/>
  <path class="cls-1" d="m40.83,7.94h2.05v8.03h-2.05V7.94Z"/>
  <path class="cls-1" d="m50.51,10.17c-.32-.46-1.03-.78-1.69-.78-1.51,0-2.25,1.32-2.25,2.58s.77,2.58,2.32,2.58c.64,0,1.33-.25,1.72-.72l1.27,1.27c-.68.72-1.81,1.12-3.02,1.12-2.42,0-4.44-1.58-4.44-4.25s1.98-4.24,4.38-4.24c1.19,0,2.44.47,3.08,1.25l-1.4,1.2h.02s0,0,0,0Z"/>
  <path class="cls-1" d="m52.94,3.33h2.05v8h.05l3.11-3.38h2.63l-3.55,3.64,3.77,4.4h-2.71l-3.24-4.11h-.04v4.11h-2.05V3.33h-.01Z"/>
  <path class="cls-1" d="m63.99,3.33v5.63h.06c.42-.52,1.25-1.25,2.74-1.25,2.33,0,3.98,1.85,3.98,4.21s-1.54,4.29-4.03,4.29c-1.14,0-2.25-.52-2.81-1.43h-.03v1.2h-1.94V3.32h2.03Zm2.34,6.02c-1.51,0-2.4,1.36-2.4,2.61s.9,2.58,2.4,2.58c1.59,0,2.35-1.35,2.35-2.61s-.77-2.58-2.35-2.58Z"/>
  <path class="cls-1" d="m76.37,7.71c2.48,0,4.45,1.69,4.45,4.21s-1.98,4.29-4.45,4.29-4.45-1.76-4.45-4.29,1.98-4.21,4.45-4.21Zm0,6.83c1.62,0,2.38-1.35,2.38-2.61s-.75-2.58-2.38-2.58-2.37,1.32-2.37,2.58.75,2.61,2.37,2.61Z"/>
  <path class="cls-1" d="m86.38,7.71c2.48,0,4.45,1.69,4.45,4.21s-1.98,4.29-4.45,4.29-4.45-1.76-4.45-4.29,1.98-4.21,4.45-4.21Zm0,6.83c1.62,0,2.37-1.35,2.37-2.61s-.75-2.58-2.37-2.58-2.38,1.32-2.38,2.58.75,2.61,2.38,2.61Z"/>
  <path class="cls-1" d="m92.44,3.33h2.05v8h.06l3.11-3.38h2.63l-3.55,3.64,3.77,4.4h-2.71l-3.24-4.11h-.06v4.11h-2.05V3.33h-.01,0Z"/>
  <path class="cls-1" d="m106.08,10.09c-.36-.47-1.04-.87-1.79-.87-.65,0-1.32.23-1.32.87s.63.78,1.77,1.05c1.22.28,2.64.82,2.64,2.4,0,1.96-1.62,2.68-3.41,2.68-1.26,0-2.58-.47-3.36-1.32l1.35-1.24c.45.56,1.21,1.01,2.1,1.01.59,0,1.32-.24,1.32-.95,0-.67-.63-.87-1.88-1.15-1.22-.28-2.42-.77-2.42-2.27,0-1.79,1.64-2.56,3.26-2.56,1.17,0,2.4.4,3.07,1.22l-1.33,1.15h0s0-.02,0-.02Z"/>
  <path class="cls-2" d="m9.04,18.09c4.99,0,9.04-4.05,9.04-9.04S14.04,0,9.04,0,0,4.05,0,9.04s4.05,9.04,9.04,9.04Z"/>
  <path class="cls-1" d="m2.53,9.04c0,1.91,1.56,3.44,3.5,3.44h.5v-1.28h-.5c-1.2,0-2.2-.98-2.2-2.16s1-2.16,2.2-2.16h1.2v6.68c0,.69.6,1.28,1.3,1.28V5.6h-2.51c-1.95,0-3.5,1.52-3.5,3.44h0Zm9.52-3.44h-.5v1.28h.5c1.2,0,2.2.98,2.2,2.16s-1,2.16-2.2,2.16h-1.2v-6.68c0-.69-.6-1.28-1.3-1.28v9.24h2.51c1.95,0,3.5-1.52,3.5-3.44s-1.56-3.44-3.5-3.44h0Z"/>
</svg>