<?xml version="1.0" encoding="UTF-8"?>
<svg xmlns="http://www.w3.org/2000/svg" xmlns:xlink="http://www.w3.org/1999/xlink" width="50" height="60" viewBox="0 0 50 60">
    <defs>
        <path id="a" d="M0 .063h50v59.874H0z"/>
        <path id="c" d="M.019.627h41.31v40.72H.019z"/>
        <path id="e" d="M50 59.937H0V.063h50z"/>
    </defs>
    <g fill="none" fill-rule="evenodd">
        <g>
            <mask id="b" fill="#fff">
                <use xlink:href="#a"/>
            </mask>
            <path fill="#FFF" d="M4.367 4.618h41.266c1.608 0 2.911 1.285 2.911 2.87v48.138c0 1.585-1.303 2.87-2.91 2.87H4.366c-1.608 0-2.911-1.285-2.911-2.87V7.488c0-1.585 1.303-2.87 2.91-2.87z" mask="url(#b)"/>
            <path fill="#008481" d="M45.633 6.053c.804 0 1.456.642 1.456 1.435v48.145c0 .792-.652 1.435-1.456 1.435H4.367a1.445 1.445 0 0 1-1.456-1.435V7.488c0-.793.652-1.435 1.456-1.435h41.266zm0-2.87H4.367C1.955 3.183 0 5.111 0 7.488v48.145c0 2.377 1.955 4.304 4.367 4.304h41.266c2.412 0 4.367-1.927 4.367-4.304V7.488c0-2.377-1.955-4.305-4.367-4.305z" mask="url(#b)"/>
            <path fill="#008481" d="M33.595 10.931v-9.75c0-.617.509-1.118 1.136-1.118h1.062c.627 0 1.136.5 1.136 1.119v9.75c0 .617-.509 1.119-1.136 1.119h-1.062a1.127 1.127 0 0 1-1.136-1.12zM11.608 10.931v-9.75c0-.617.509-1.118 1.136-1.118h1.062c.627 0 1.136.5 1.136 1.119v9.75c0 .617-.509 1.119-1.136 1.119h-1.062a1.127 1.127 0 0 1-1.136-1.12z" mask="url(#b)"/>
        </g>
        <g transform="translate(4.348 14.286)">
            <mask id="d" fill="#fff">
                <use xlink:href="#c"/>
            </mask>
            <path fill="#00C1BF" fill-opacity=".15" d="M41.329.627L.019 41.347h41.31z" mask="url(#d)"/>
        </g>
        <g>
            <path stroke="#00C1BF" stroke-width="1.7" d="M4.49 45.582l41.187-.014M4.49 34.09l41.187-.015M4.49 22.596l41.187-.014M17.635 55.683V22.044M32.365 55.683V22.044"/>
            <mask id="f" fill="#fff">
                <use xlink:href="#e"/>
            </mask>
            <path fill="#2DA048" d="M23.755 45.18l-5.05-4.448 1.717-1.894 3.042 2.676 5.837-7.052 2.002 1.607z" mask="url(#f)"/>
        </g>
    </g>
</svg>
