<svg width="433" height="345" fill="none" xmlns="http://www.w3.org/2000/svg"><g filter="url(#a)"><g clip-path="url(#b)"><g clip-path="url(#c)" filter="url(#d)"><path fill="#fff" d="M9 7.29h599.439v437.368H9z"/><path d="M312.74 222.266v.947h-3.962c-2.097 0-3.498-1.234-3.498-3.368 0-1.995 1.503-3.368 3.517-3.368 2.013 0 3.488 1.373 3.488 3.368 0 1.178-.584 1.985-1.169 2.403v.018h1.624Zm-3.943-4.741c-1.271 0-2.236.984-2.236 2.32 0 1.401.9 2.347 2.217 2.347 1.299 0 2.236-.946 2.236-2.347 0-1.336-.89-2.32-2.217-2.32Zm9.998-.881v4.156c0 1.587-1.141 2.58-2.645 2.58-1.503 0-2.644-.993-2.644-2.58v-4.156h1.169v4.11c0 .761.353 1.577 1.475 1.577 1.123 0 1.476-.816 1.476-1.577v-4.11h1.169Zm1.39 6.569v-6.569h1.169v6.569h-1.169Zm8.251-5.734-.891.705c-.343-.473-.965-.677-1.494-.677-1.354 0-2.273 1.048-2.273 2.403 0 1.429.872 2.421 2.227 2.421.705 0 1.262-.306 1.596-.76l.937.658c-.575.724-1.429 1.151-2.542 1.151-2.051 0-3.508-1.42-3.508-3.47 0-2.106 1.541-3.433 3.563-3.433.854 0 1.865.315 2.385 1.002Zm.828 5.734v-6.569h1.169v2.839h.028l2.747-2.839h1.577l-3.071 3.034 3.275 3.535h-1.642l-2.886-3.294h-.028v3.294h-1.169Zm6.397 0v-6.569h2.561c.993 0 2.013.454 2.013 1.651 0 .743-.463 1.234-1.141 1.438v.019c.826.111 1.42.668 1.42 1.549 0 1.429-1.243 1.912-2.487 1.912h-2.366Zm1.169-5.604v1.707h1.04c.779 0 1.196-.325 1.196-.891 0-.584-.417-.816-1.299-.816h-.937Zm0 2.709v1.911h1.049c.603 0 1.466-.12 1.466-.983 0-.687-.473-.928-1.42-.928h-1.095Zm4.523-.408c0-2.106 1.494-3.433 3.517-3.433 2.05 0 3.544 1.327 3.544 3.433 0 2.05-1.494 3.47-3.544 3.47-2.023 0-3.517-1.42-3.517-3.47Zm1.271 0c0 1.401.919 2.421 2.255 2.421 1.345 0 2.264-1.02 2.264-2.421 0-1.355-.9-2.403-2.264-2.403-1.355 0-2.255 1.048-2.255 2.403Zm6.603 0c0-2.106 1.494-3.433 3.517-3.433 2.05 0 3.544 1.327 3.544 3.433 0 2.05-1.494 3.47-3.544 3.47-2.023 0-3.517-1.42-3.517-3.47Zm1.271 0c0 1.401.919 2.421 2.255 2.421 1.345 0 2.264-1.02 2.264-2.421 0-1.355-.9-2.403-2.264-2.403-1.355 0-2.255 1.048-2.255 2.403Zm6.918 3.303v-6.569h1.17v2.839h.027l2.747-2.839h1.577l-3.071 3.034 3.275 3.535h-1.642l-2.886-3.294h-.027v3.294h-1.17Zm10.508-6.031-.761.835c-.251-.325-.742-.566-1.206-.566-.538 0-1.16.26-1.16.9 0 .603.51.779 1.253 1.011.844.26 1.92.631 1.92 1.921 0 1.41-1.104 2.097-2.394 2.097-.853 0-1.735-.325-2.254-.937l.835-.78c.324.446.918.724 1.438.724.547 0 1.188-.269 1.188-.974 0-.687-.687-.882-1.513-1.141-.798-.251-1.661-.641-1.661-1.865 0-1.336 1.216-1.93 2.403-1.93.659 0 1.411.232 1.912.705Zm3.537 6.031v-6.569h2.561c.992 0 2.013.454 2.013 1.651 0 .743-.464 1.234-1.141 1.438v.019c.826.111 1.419.668 1.419 1.549 0 1.429-1.243 1.912-2.486 1.912h-2.366Zm1.169-5.604v1.707h1.039c.779 0 1.197-.325 1.197-.891 0-.584-.418-.816-1.299-.816h-.937Zm0 2.709v1.911h1.048c.603 0 1.466-.12 1.466-.983 0-.687-.473-.928-1.419-.928h-1.095Zm4.04 2.895 2.858-6.569h1.011l2.83 6.569h-1.336l-.612-1.503h-2.849l-.593 1.503h-1.309Zm2.301-2.505h2.042l-1.012-2.672-1.03 2.672Zm5.048 2.505v-6.569h1.169v5.53h2.793v1.039h-3.962Zm3.941 0 2.858-6.569h1.011l2.83 6.569h-1.336l-.612-1.503h-2.849l-.594 1.503h-1.308Zm2.301-2.505h2.041l-1.011-2.672-1.03 2.672Zm5.048 2.505v-6.569h1.55l3.052 4.917h.019v-4.917h1.169v6.569h-1.485l-3.117-5.075h-.019v5.075h-1.169Zm12.872-5.734-.891.705c-.343-.473-.965-.677-1.494-.677-1.354 0-2.273 1.048-2.273 2.403 0 1.429.872 2.421 2.227 2.421.705 0 1.262-.306 1.596-.76l.937.658c-.576.724-1.429 1.151-2.543 1.151-2.05 0-3.507-1.42-3.507-3.47 0-2.106 1.54-3.433 3.563-3.433.854 0 1.865.315 2.385 1.002Zm.828 5.734v-6.569h4.352v1.02h-3.183v1.67h3.016v.984h-3.016v1.856h3.35v1.039h-4.519ZM210.915 223.414v-6.569h2.329c1.717 0 3.628.816 3.628 3.284 0 2.301-1.911 3.285-3.628 3.285h-2.329Zm1.169-1.021h.975c1.206 0 2.56-.492 2.56-2.264 0-1.883-1.354-2.282-2.56-2.282h-.975v4.546Zm5.917 1.021v-6.569h4.352v1.02h-3.183v1.67h3.016v.984h-3.016v1.856h3.35v1.039h-4.519Zm6.99 0v-5.549h-2.014v-1.02h5.196v1.02h-2.013v5.549h-1.169Zm2.596 0 2.858-6.569h1.011l2.83 6.569h-1.336l-.613-1.503h-2.848l-.594 1.503h-1.308Zm2.301-2.505h2.041l-1.011-2.673-1.03 2.673Zm5.048 2.505v-6.569h1.169v6.569h-1.169Zm2.618 0v-6.569h1.169v5.53h2.793v1.039h-3.962Zm7.933 0v-5.549h-2.014v-1.02h5.196v1.02h-2.013v5.549h-1.169Zm5.424 0v-2.849l-2.468-3.72h1.429l1.651 2.765 1.671-2.765h1.354l-2.468 3.72v2.849h-1.169Zm4.185 0v-6.569h2.144c1.503 0 2.477.529 2.477 1.902 0 1.447-1.16 1.948-2.552 1.948h-.9v2.719h-1.169Zm1.169-3.702h.817c.761 0 1.457-.186 1.457-.965 0-.78-.696-.919-1.42-.919h-.854v1.884Zm4.494 3.702v-6.569h4.352v1.02h-3.183v1.67h3.016v.984h-3.016v1.856h3.35v1.039h-4.519ZM130.374 223.414v-5.549h-2.014v-1.02h5.196v1.02h-2.013v5.549h-1.169Zm5.424 0v-2.849l-2.468-3.72h1.429l1.652 2.765 1.67-2.765h1.354l-2.468 3.72v2.849h-1.169Zm4.185 0v-6.569h2.144c1.503 0 2.477.529 2.477 1.902 0 1.447-1.16 1.948-2.551 1.948h-.9v2.719h-1.17Zm1.17-3.702h.816c.761 0 1.457-.186 1.457-.965 0-.78-.696-.919-1.42-.919h-.853v1.884Zm4.493 3.702v-6.569h4.352v1.02h-3.182v1.67h3.015v.984h-3.015v1.856h3.349v1.039h-4.519Z" fill="#000"/><path stroke="#BABEC5" stroke-width="1.092" d="M202.005 203.773v195.391M120.137 203.773v195.391"/><path d="M51.546 223.414v-6.569h1.55l3.052 4.917h.018v-4.917h1.17v6.569H55.85l-3.118-5.075h-.018v5.075h-1.17Zm6.441 0 2.858-6.569h1.011l2.83 6.569H63.35l-.612-1.503h-2.849l-.593 1.503h-1.309Zm2.301-2.505h2.042l-1.012-2.673-1.03 2.673Zm5.048 2.505v-6.569h1.828l1.707 4.667h.028l1.689-4.667h1.837v6.569h-1.16v-5.28h-.018l-1.995 5.28h-.817l-1.967-5.28h-.018v5.28h-1.114Zm8.536 0v-6.569h4.351v1.02h-3.182v1.67h3.015v.984h-3.015v1.856h3.35v1.039h-4.52Z" fill="#000"/><path stroke="#BABEC5" stroke-width="1.092" d="M292.605 203.773v195.391"/><rect x="20.74" y="246.844" width="11.007" height="11.007" rx="1.501" stroke="#BABEC5" stroke-width="1.001"/><rect x="20.74" y="279.591" width="11.007" height="11.007" rx="1.501" stroke="#BABEC5" stroke-width="1.001"/><rect x="20.74" y="312.339" width="11.007" height="11.007" rx="1.501" stroke="#BABEC5" stroke-width="1.001"/><path stroke="#BABEC5" stroke-width="1.092" d="M42.635 203.773v195.391M-81.277 203.227h736.81"/><path stroke="#BABEC5" stroke-width="1.11" d="M-19.862 89.99h749.299"/><path stroke="#BABEC5" stroke-width="1.092" d="M-73.635 301.468h734.627M-73.635 268.721h734.627M-72.544 235.974h734.627"/><path d="M33.888 47.941V34.665H29.07v-2.443h12.433v2.443h-4.818V47.94h-2.797Zm7.315 0V37.284h2.554v1.777h.044c.577-1.221 1.71-2.087 3.108-2.087.2 0 .466.022.644.066v2.442a3.108 3.108 0 0 0-.821-.11c-2.398 0-2.864 2.086-2.864 2.863v5.706h-2.665Zm14.422 0v-1.354h-.067c-.533.932-1.798 1.62-3.308 1.62-1.71 0-3.996-.82-3.996-3.307 0-3.175 3.996-3.62 7.326-3.62v-.266c0-1.31-1.11-1.953-2.442-1.953-1.132 0-2.22.532-2.908 1.22l-1.377-1.62c1.2-1.11 2.886-1.687 4.507-1.687 3.819 0 4.751 2.353 4.751 4.484v6.483h-2.486Zm-.045-4.485v-.377h-.6c-1.686 0-4.062.2-4.062 1.776 0 1.021.955 1.332 1.865 1.332 1.82 0 2.797-1.043 2.797-2.73Zm5.635 4.485V37.284h2.531v1.71h.044c.467-1.066 1.732-2.02 3.309-2.02 2.775 0 3.93 2.131 3.93 4.307v6.66h-2.665v-5.905c0-1.266-.289-2.842-1.998-2.842-1.688 0-2.487 1.465-2.487 2.886v5.861h-2.664Zm20.493-9.347-1.732 1.532a3.018 3.018 0 0 0-2.331-1.154c-.844 0-1.71.31-1.71 1.154 0 .822.822 1.044 2.31 1.399 1.576.377 3.44 1.088 3.44 3.175 0 2.597-2.109 3.552-4.44 3.552-1.643 0-3.352-.622-4.374-1.754l1.755-1.643a3.472 3.472 0 0 0 2.73 1.332c.777 0 1.71-.31 1.71-1.265 0-.888-.822-1.155-2.442-1.532-1.577-.378-3.153-1.021-3.153-3.02 0-2.375 2.131-3.396 4.24-3.396 1.532 0 3.13.533 3.997 1.62Zm8.91 9.347v-1.354h-.067c-.532.932-1.798 1.62-3.308 1.62-1.71 0-3.996-.82-3.996-3.307 0-3.175 3.996-3.62 7.326-3.62v-.266c0-1.31-1.11-1.953-2.442-1.953-1.132 0-2.22.532-2.908 1.22l-1.376-1.62c1.198-1.11 2.886-1.687 4.506-1.687 3.819 0 4.752 2.353 4.752 4.484v6.483h-2.487Zm-.044-4.485v-.377h-.6c-1.687 0-4.063.2-4.063 1.776 0 1.021.955 1.332 1.865 1.332 1.82 0 2.797-1.043 2.797-2.73Zm14.737-4.817-1.821 1.598c-.421-.6-1.332-1.043-2.197-1.043-1.954 0-2.931 1.754-2.931 3.419s.999 3.419 3.019 3.419c.822 0 1.732-.333 2.243-.955l1.665 1.688c-.888.954-2.354 1.487-3.93 1.487-3.152 0-5.772-2.087-5.772-5.64 0-3.463 2.575-5.638 5.706-5.638 1.554 0 3.174.621 4.018 1.665Zm2.071.777h-1.865v-2.131h1.865v-3.086h2.62v3.086h2.664v2.13h-2.664v4.952c0 .954.222 1.643 1.398 1.643.356 0 .822-.067 1.133-.222l.088 2.087c-.466.177-1.176.288-1.776.288-2.819 0-3.463-1.731-3.463-3.774v-4.973Zm7.256 8.525V37.284h2.665v10.657h-2.665Zm-.377-14.275c0-.844.71-1.599 1.687-1.599.977 0 1.732.688 1.732 1.599 0 .91-.755 1.598-1.732 1.598s-1.687-.755-1.687-1.598Zm5.652 8.902c0-3.352 2.575-5.594 5.794-5.594 3.22 0 5.795 2.242 5.795 5.594 0 3.353-2.575 5.684-5.795 5.684-3.219 0-5.794-2.331-5.794-5.684Zm2.708 0c0 1.666.977 3.464 3.086 3.464 2.11 0 3.086-1.798 3.086-3.464 0-1.665-.976-3.419-3.086-3.419-2.109 0-3.086 1.754-3.086 3.42Zm11.464 5.373V37.284h2.531v1.71h.045c.466-1.066 1.731-2.02 3.308-2.02 2.775 0 3.929 2.131 3.929 4.307v6.66h-2.664v-5.905c0-1.266-.289-2.842-1.998-2.842-1.687 0-2.487 1.465-2.487 2.886v5.861h-2.664Zm20.493-9.347-1.732 1.532a3.017 3.017 0 0 0-2.331-1.154c-.844 0-1.71.31-1.71 1.154 0 .822.822 1.044 2.309 1.399 1.577.377 3.442 1.088 3.442 3.175 0 2.597-2.109 3.552-4.441 3.552-1.643 0-3.352-.622-4.373-1.754l1.754-1.643a3.47 3.47 0 0 0 2.73 1.332c.777 0 1.71-.31 1.71-1.265 0-.888-.822-1.155-2.442-1.532-1.577-.378-3.153-1.021-3.153-3.02 0-2.375 2.131-3.396 4.241-3.396 1.532 0 3.13.533 3.996 1.62ZM39.886 124.284l1.404.959c-.977 1.332-2.593 2.273-4.796 2.273-3.854 0-6.625-2.753-6.625-6.625 0-3.925 2.878-6.589 6.696-6.589 1.723 0 3.588.675 4.512 1.954l-1.386 1.065c-.604-.852-1.83-1.474-3.126-1.474-2.913 0-4.777 2.291-4.777 5.044 0 2.824 1.829 5.062 4.724 5.062 1.403 0 2.629-.586 3.374-1.669Zm4.814-4.227h.035c.391-.835 1.457-1.51 2.665-1.51 2.166 0 3.143 1.545 3.143 3.428v5.222h-1.67v-4.654c0-1.367-.354-2.575-1.9-2.575-1.314 0-2.273 1.101-2.273 2.771v4.458h-1.67v-13.428h1.67v6.288Zm13.907 1.918v-.231c0-1.243-.835-1.847-2.078-1.847-.942 0-1.83.408-2.398.977l-.888-1.066c.817-.782 2.078-1.261 3.445-1.261 2.416 0 3.517 1.439 3.517 3.303v3.677c0 .568.036 1.261.125 1.67h-1.51a5.478 5.478 0 0 1-.142-1.208h-.054c-.604.906-1.563 1.421-2.824 1.421-1.332 0-3.054-.657-3.054-2.593 0-2.54 3.019-2.842 5.86-2.842Zm0 1.208h-.409c-1.652 0-3.747.177-3.747 1.598 0 .995.888 1.314 1.722 1.314 1.563 0 2.434-1.048 2.434-2.468v-.444Zm4.386-2.594c0-.444-.017-1.261-.07-1.811h1.58c.036.426.071 1.065.071 1.421h.054a2.852 2.852 0 0 1 2.575-1.652c.23 0 .462.018.657.071l-.071 1.545a3.355 3.355 0 0 0-.764-.089c-1.598 0-2.362 1.297-2.362 2.7v4.423h-1.67v-6.608Zm10.348-1.811v1.367h-2.238v4.387c0 1.013.355 1.421 1.19 1.421.302 0 .693-.071.977-.213l.053 1.368c-.39.142-.906.231-1.42.231-1.582 0-2.452-.888-2.452-2.629v-4.565h-1.616v-1.367h1.616v-2.416h1.652v2.416h2.238Zm14.69 4.191c0 2.594-1.971 4.458-4.547 4.458-2.575 0-4.529-1.864-4.529-4.458 0-2.593 1.954-4.422 4.53-4.422 2.575 0 4.546 1.829 4.546 4.422Zm-1.74 0c0-1.598-.995-3.037-2.807-3.037-1.793 0-2.806 1.439-2.806 3.037 0 1.599 1.013 3.055 2.806 3.055 1.812 0 2.807-1.456 2.807-3.055Zm8.016-4.191v1.367h-1.954v7.052h-1.67v-7.052h-1.669v-1.367h1.67v-1.759c0-1.971.87-3.463 3.144-3.463.39 0 .728.036 1.047.124l-.195 1.439a2.95 2.95 0 0 0-.835-.124c-1.26 0-1.492.994-1.492 2.024v1.759h1.954Zm7.964 5.328-1.261 3.091h-1.953l5.452-12.575h1.599l5.399 12.575h-1.989l-1.279-3.091h-5.968Zm2.984-7.442-2.362 5.897h4.707l-2.345-5.897Zm14.883 3.268-1.208.977c-.355-.55-1.137-.959-1.936-.959-1.74 0-2.753 1.421-2.753 3.037 0 1.599 1.013 3.037 2.771 3.037.853 0 1.581-.355 2.025-.923l1.119 1.012c-.711.817-1.794 1.314-3.144 1.314-2.593 0-4.529-1.758-4.529-4.44 0-2.646 1.918-4.44 4.493-4.44 1.19 0 2.469.479 3.162 1.385Zm8.776 0-1.207.977c-.356-.55-1.137-.959-1.936-.959-1.741 0-2.753 1.421-2.753 3.037 0 1.599 1.012 3.037 2.77 3.037.853 0 1.581-.355 2.025-.923l1.119 1.012c-.71.817-1.794 1.314-3.144 1.314-2.593 0-4.529-1.758-4.529-4.44 0-2.646 1.919-4.44 4.494-4.44 1.19 0 2.469.479 3.161 1.385Zm10.198 3.037c0 2.594-1.972 4.458-4.547 4.458-2.575 0-4.529-1.864-4.529-4.458 0-2.593 1.954-4.422 4.529-4.422s4.547 1.829 4.547 4.422Zm-1.741 0c0-1.598-.994-3.037-2.806-3.037-1.794 0-2.806 1.439-2.806 3.037 0 1.599 1.012 3.055 2.806 3.055 1.812 0 2.806-1.456 2.806-3.055Zm11.569 4.228h-1.581a20.504 20.504 0 0 1-.071-1.386h-.035c-.427.888-1.528 1.616-2.753 1.616-2.167 0-3.144-1.545-3.144-3.427v-5.222h1.67v4.653c0 1.386.373 2.593 1.918 2.593 1.332 0 2.255-1.101 2.255-2.77v-4.476h1.67v6.607c0 .444.018 1.261.071 1.812Zm2.754-8.419h1.58c.036.426.071 1.03.071 1.385h.054c.408-.906 1.527-1.616 2.735-1.616 2.167 0 3.144 1.545 3.144 3.428v5.222h-1.67v-4.672c0-1.367-.373-2.575-1.918-2.575-1.315 0-2.256 1.101-2.256 2.771v4.476h-1.669v-6.608c0-.444-.018-1.261-.071-1.811Zm14.529 0v1.367h-2.238v4.387c0 1.013.355 1.421 1.19 1.421.302 0 .692-.071.977-.213l.053 1.368a4.335 4.335 0 0 1-1.421.231c-1.581 0-2.451-.888-2.451-2.629v-4.565h-1.616v-1.367h1.616v-2.416h1.652v2.416h2.238Zm7.426 1.154-1.155.977c-.373-.604-1.101-1.048-1.954-1.048-.763 0-1.563.302-1.563 1.101 0 .711.64.977 1.919 1.261 1.598.356 2.824 1.013 2.824 2.487 0 1.989-1.652 2.717-3.357 2.717-1.279 0-2.593-.497-3.393-1.509l1.19-1.013a2.766 2.766 0 0 0 2.238 1.173c.835 0 1.67-.302 1.67-1.226 0-.781-.764-1.066-2.202-1.403-1.119-.266-2.451-.746-2.451-2.327 0-1.811 1.58-2.575 3.179-2.575 1.19 0 2.451.479 3.055 1.385Z" fill="#000"/><path d="m57.05 253.596.55.353c-.461.698-1.355 1.297-2.603 1.297-2.102 0-3.625-1.542-3.625-3.654 0-2.113 1.552-3.655 3.625-3.655 1.022 0 1.995.422 2.476 1.1l-.59.433c-.294-.452-.992-.914-1.876-.914-1.798 0-2.888 1.415-2.888 3.036s1.1 3.035 2.888 3.035c.796 0 1.562-.314 2.044-1.031Zm2.415-2.368h.02c.245-.53.893-.874 1.542-.874 1.169 0 1.748.756 1.748 1.896v2.819h-.668v-2.544c0-.963-.285-1.611-1.247-1.611-.708 0-1.395.57-1.395 1.798v2.357h-.669v-7.427h.669v3.586Zm5.413 1.189h3.134c-.04-.865-.57-1.503-1.523-1.503-.894 0-1.552.717-1.611 1.503Zm3.811.216c0 .088 0 .196-.01.314h-3.811c.02.924.737 1.67 1.68 1.67.688 0 1.218-.383 1.474-.795l.5.393c-.54.687-1.218.972-1.974.972-1.366 0-2.378-1.031-2.378-2.417 0-1.385 1.012-2.416 2.319-2.416 1.444 0 2.2 1.021 2.2 2.279Zm5.269-1.483-.52.373c-.217-.354-.679-.609-1.18-.609-1.07 0-1.758.805-1.758 1.856 0 1.042.678 1.847 1.749 1.847.58 0 .982-.245 1.247-.599l.501.373c-.393.482-.953.796-1.748.796-1.484 0-2.457-1.031-2.457-2.417 0-1.385.973-2.416 2.457-2.416.618 0 1.316.265 1.709.796Zm1.768-3.508v4.903h.03l2.122-2.073h.962l-2.318 2.102 2.554 2.495h-.982l-2.338-2.416h-.03v2.416h-.668v-7.427h.668Zm4.998 2.83v4.597h-.668v-4.597h.668Zm.138-1.769a.478.478 0 0 1-.472.472.478.478 0 0 1-.471-.472c0-.275.236-.471.471-.471.236 0 .472.196.472.471Zm1.601 1.769h.639c.02.245.04.589.04.786h.019c.255-.531.923-.904 1.572-.904 1.169 0 1.748.756 1.748 1.896v2.819h-.668v-2.544c0-.963-.285-1.611-1.247-1.611-.708 0-1.395.57-1.395 1.798v2.357h-.669v-3.585c0-.246-.01-.698-.039-1.012Zm5.512 6.032.482-.511c.363.471 1.06.845 1.758.845 1.316 0 1.798-.816 1.798-1.808v-.864h-.02c-.353.569-1.07.903-1.739.903-1.434 0-2.377-.992-2.377-2.338 0-1.306.943-2.377 2.377-2.377.668 0 1.376.324 1.74.913h.019v-.795h.668v4.558c0 1.002-.462 2.397-2.495 2.397-.845 0-1.67-.354-2.21-.923Zm.61-3.792c0 .962.628 1.788 1.738 1.788 1.032 0 1.768-.727 1.768-1.788 0-.963-.736-1.798-1.768-1.798-1.11 0-1.739.835-1.739 1.798ZM363.6 250.88v-2.535c-.678.02-1.218.521-1.218 1.258 0 .707.491 1.08 1.218 1.277Zm.471.835v2.701c.58-.019 1.287-.363 1.287-1.336 0-.668-.54-1.129-1.287-1.365Zm-.471 2.701v-2.819c-.894-.275-1.896-.737-1.896-1.935 0-1.14.874-1.818 1.896-1.867v-.707h.471v.707c.629.02 1.376.275 1.818.796l-.54.412c-.305-.432-.806-.648-1.278-.658v2.702c.993.344 1.995.805 1.995 2.083 0 1.09-.865 1.837-1.995 1.856v.708h-.471v-.708a2.68 2.68 0 0 1-2.073-1.041l.56-.393c.354.589 1.1.855 1.513.864Zm6.632-6.503v6.955h-.707v-6.081l-1.258 1.071-.432-.491 1.768-1.454h.629Zm5.031-.177c1.729 0 2.279 1.857 2.279 3.664 0 1.808-.55 3.645-2.279 3.645-1.749 0-2.28-1.837-2.28-3.645 0-1.807.531-3.664 2.28-3.664Zm0 .599c-1.238 0-1.562 1.68-1.562 3.065 0 1.386.324 3.036 1.562 3.036 1.218 0 1.562-1.65 1.562-3.036 0-1.385-.344-3.065-1.562-3.065Zm4.647 5.6-.795 2.309h-.56l.658-2.309h.697Zm3.603-6.199c1.729 0 2.28 1.857 2.28 3.664 0 1.808-.551 3.645-2.28 3.645-1.748 0-2.279-1.837-2.279-3.645 0-1.807.531-3.664 2.279-3.664Zm0 .599c-1.237 0-1.562 1.68-1.562 3.065 0 1.386.325 3.036 1.562 3.036 1.219 0 1.562-1.65 1.562-3.036 0-1.385-.343-3.065-1.562-3.065Zm7.133-.422v4.657h1.022v.618h-1.022v1.68h-.687v-1.68h-3.183v-.687l2.947-4.588h.923Zm-.687 4.657v-3.861h-.02l-2.426 3.861h2.446Zm6.386-4.657v4.657h1.022v.618h-1.022v1.68h-.687v-1.68h-3.183v-.687l2.947-4.588h.923Zm-.687 4.657v-3.861h-.02l-2.427 3.861h2.447Zm3.91 1.827c0 .275-.216.53-.53.53a.528.528 0 0 1-.531-.53c0-.275.216-.531.531-.531.314 0 .53.256.53.531Zm2.847-2.869v-.609h.305c.894 0 1.621-.354 1.621-1.277 0-.776-.629-1.307-1.376-1.307-.579 0-1.051.285-1.326.816l-.599-.315c.432-.746 1.12-1.1 1.964-1.1 1.091 0 2.034.658 2.034 1.867 0 .815-.521 1.405-1.208 1.591v.02c.795.167 1.405.796 1.405 1.729 0 1.326-1.032 2.102-2.24 2.102-1.012 0-1.808-.511-2.201-1.424l.668-.246c.236.658.825 1.061 1.533 1.061.795 0 1.532-.56 1.532-1.493 0-1.051-.894-1.415-1.807-1.415h-.305Zm6.445-3.792c1.729 0 2.28 1.857 2.28 3.664 0 1.808-.551 3.645-2.28 3.645-1.748 0-2.279-1.837-2.279-3.645 0-1.807.531-3.664 2.279-3.664Zm0 .599c-1.237 0-1.562 1.68-1.562 3.065 0 1.386.325 3.036 1.562 3.036 1.219 0 1.562-1.65 1.562-3.036 0-1.385-.343-3.065-1.562-3.065ZM368.756 283.828v-2.535c-.677.02-1.218.521-1.218 1.258 0 .707.491 1.08 1.218 1.277Zm.472.835v2.702c.58-.02 1.287-.364 1.287-1.337 0-.668-.54-1.129-1.287-1.365Zm-.472 2.702v-2.82c-.894-.275-1.896-.737-1.896-1.935 0-1.14.875-1.818 1.896-1.867v-.707h.472v.707c.629.02 1.375.275 1.817.796l-.54.412c-.304-.432-.805-.648-1.277-.658v2.702c.992.344 1.994.805 1.994 2.083 0 1.09-.864 1.837-1.994 1.856v.708h-.472v-.708a2.676 2.676 0 0 1-2.072-1.041l.56-.393c.353.589 1.1.855 1.512.865Zm6.632-6.504v6.955h-.707v-6.081l-1.257 1.071-.433-.491 1.769-1.454h.628Zm3.98 6.022-.796 2.309h-.56l.659-2.309h.697Zm5.706.305v.628h-4.451v-.736l2.849-2.879c.423-.432.835-.953.835-1.591 0-.806-.628-1.327-1.375-1.327s-1.287.521-1.434 1.238l-.698-.137c.197-.983 1.041-1.7 2.132-1.7 1.12 0 2.092.649 2.092 1.916 0 .894-.52 1.493-1.129 2.102l-2.506 2.486h3.685Zm3.596-6.504c1.729 0 2.279 1.857 2.279 3.665 0 1.807-.55 3.644-2.279 3.644-1.749 0-2.279-1.837-2.279-3.644 0-1.808.53-3.665 2.279-3.665Zm0 .599c-1.238 0-1.562 1.68-1.562 3.066 0 1.385.324 3.035 1.562 3.035 1.218 0 1.562-1.65 1.562-3.035 0-1.386-.344-3.066-1.562-3.066Zm5.699-.599c1.729 0 2.279 1.857 2.279 3.665 0 1.807-.55 3.644-2.279 3.644-1.749 0-2.279-1.837-2.279-3.644 0-1.808.53-3.665 2.279-3.665Zm0 .599c-1.238 0-1.562 1.68-1.562 3.066 0 1.385.324 3.035 1.562 3.035 1.218 0 1.562-1.65 1.562-3.035 0-1.386-.344-3.066-1.562-3.066Zm4.657 6.062c0 .275-.216.53-.53.53a.528.528 0 0 1-.531-.53c0-.275.216-.531.531-.531.314 0 .53.256.53.531Zm5.411-6.484v.629h-2.898l-.049 2.151c.294-.108.648-.157.962-.157 1.307 0 2.26.884 2.26 2.181 0 1.346-.933 2.328-2.309 2.328-1.002 0-1.699-.501-2.082-1.267l.638-.285c.246.57.796.943 1.405.943.943 0 1.631-.707 1.631-1.65 0-1.032-.737-1.67-1.729-1.67-.501 0-1.002.147-1.444.383l.068-3.586h3.547Zm3.881-.177c1.729 0 2.279 1.857 2.279 3.665 0 1.807-.55 3.644-2.279 3.644-1.748 0-2.279-1.837-2.279-3.644 0-1.808.531-3.665 2.279-3.665Zm0 .599c-1.238 0-1.562 1.68-1.562 3.066 0 1.385.324 3.035 1.562 3.035 1.218 0 1.562-1.65 1.562-3.035 0-1.386-.344-3.066-1.562-3.066ZM368.756 316.575v-2.535c-.677.02-1.218.521-1.218 1.258 0 .707.491 1.08 1.218 1.277Zm.472.835v2.702c.58-.02 1.287-.364 1.287-1.337 0-.668-.54-1.129-1.287-1.365Zm-.472 2.702v-2.82c-.894-.275-1.896-.737-1.896-1.935 0-1.14.875-1.818 1.896-1.867v-.707h.472v.707c.629.02 1.375.275 1.817.796l-.54.412c-.304-.432-.805-.648-1.277-.658v2.702c.992.344 1.994.805 1.994 2.083 0 1.09-.864 1.837-1.994 1.856v.708h-.472v-.708a2.676 2.676 0 0 1-2.072-1.041l.56-.393c.353.589 1.1.855 1.512.865Zm8.067-.177v.628h-4.451v-.736l2.849-2.879c.423-.432.836-.953.836-1.591 0-.806-.629-1.327-1.376-1.327-.746 0-1.287.521-1.434 1.238l-.698-.137c.197-.983 1.042-1.7 2.132-1.7 1.12 0 2.093.649 2.093 1.916 0 .894-.521 1.493-1.13 2.102l-2.505 2.486h3.684Zm2.545-.305-.796 2.309h-.56l.659-2.309h.697Zm2.857-2.407v-.609h.304c.894 0 1.621-.353 1.621-1.277 0-.776-.629-1.307-1.375-1.307-.58 0-1.051.285-1.327.816l-.599-.315c.432-.746 1.12-1.1 1.965-1.1 1.09 0 2.034.658 2.034 1.867 0 .815-.521 1.405-1.209 1.591v.02c.796.167 1.405.796 1.405 1.729 0 1.326-1.031 2.102-2.24 2.102-1.012 0-1.807-.511-2.2-1.424l.668-.246c.235.658.825 1.061 1.532 1.061.796 0 1.533-.56 1.533-1.493 0-1.051-.894-1.415-1.808-1.415h-.304Zm5.698 0v-.609h.305c.894 0 1.621-.353 1.621-1.277 0-.776-.629-1.307-1.376-1.307-.579 0-1.051.285-1.326.816l-.599-.315c.432-.746 1.12-1.1 1.965-1.1 1.09 0 2.033.658 2.033 1.867 0 .815-.52 1.405-1.208 1.591v.02c.796.167 1.405.796 1.405 1.729 0 1.326-1.032 2.102-2.24 2.102-1.012 0-1.808-.511-2.201-1.424l.668-.246c.236.658.826 1.061 1.533 1.061.796 0 1.532-.56 1.532-1.493 0-1.051-.893-1.415-1.807-1.415h-.305Zm7.114-3.615v6.955h-.708v-6.081l-1.257 1.071-.432-.491 1.768-1.454h.629Zm3.989 6.484c0 .275-.216.53-.53.53a.528.528 0 0 1-.531-.53c0-.275.216-.531.531-.531.314 0 .53.256.53.531Zm3.593-6.661c1.729 0 2.28 1.857 2.28 3.665 0 1.807-.551 3.644-2.28 3.644-1.748 0-2.279-1.837-2.279-3.644 0-1.808.531-3.665 2.279-3.665Zm0 .599c-1.237 0-1.562 1.68-1.562 3.066 0 1.385.325 3.035 1.562 3.035 1.219 0 1.562-1.65 1.562-3.035 0-1.386-.343-3.066-1.562-3.066Zm5.699-.599c1.729 0 2.279 1.857 2.279 3.665 0 1.807-.55 3.644-2.279 3.644-1.748 0-2.279-1.837-2.279-3.644 0-1.808.531-3.665 2.279-3.665Zm0 .599c-1.238 0-1.562 1.68-1.562 3.066 0 1.385.324 3.035 1.562 3.035 1.218 0 1.562-1.65 1.562-3.035 0-1.386-.344-3.066-1.562-3.066ZM211.822 318.736l-.756 1.827h-.776l3.006-6.955h.688l2.986 6.955h-.786l-.766-1.827h-3.596Zm1.798-4.342-1.532 3.694h3.065l-1.533-3.694Zm8.166 2.25-.521.373c-.216-.354-.677-.609-1.179-.609-1.07 0-1.758.805-1.758 1.857 0 1.041.678 1.847 1.749 1.847.579 0 .982-.246 1.247-.6l.501.374c-.393.481-.953.795-1.748.795-1.484 0-2.456-1.031-2.456-2.416 0-1.386.972-2.417 2.456-2.417.619 0 1.316.265 1.709.796Zm4.912 0-.521.373c-.216-.354-.677-.609-1.178-.609-1.071 0-1.759.805-1.759 1.857 0 1.041.678 1.847 1.749 1.847.579 0 .982-.246 1.247-.6l.501.374c-.393.481-.953.795-1.748.795-1.484 0-2.456-1.031-2.456-2.416 0-1.386.972-2.417 2.456-2.417.619 0 1.316.265 1.709.796Zm5.649 1.621c0 1.385-1.022 2.416-2.456 2.416-1.425 0-2.446-1.031-2.446-2.416 0-1.386 1.021-2.417 2.446-2.417 1.434 0 2.456 1.031 2.456 2.417Zm-.707 0c0-1.032-.678-1.857-1.749-1.857-1.061 0-1.739.825-1.739 1.857 0 1.031.678 1.847 1.739 1.847 1.071 0 1.749-.816 1.749-1.847Zm6.123 2.298h-.638c-.02-.245-.04-.589-.04-.785h-.019c-.256.53-.924.903-1.572.903-1.169 0-1.749-.756-1.749-1.896v-2.819h.668v2.544c0 .963.285 1.611 1.248 1.611.707 0 1.395-.569 1.395-1.797v-2.358h.668v3.586c0 .245.01.697.039 1.011Zm1.691-4.597h.638c.02.245.039.589.039.786h.02c.256-.531.924-.904 1.572-.904 1.169 0 1.749.756 1.749 1.896v2.819h-.668v-2.544c0-.963-.285-1.611-1.248-1.611-.707 0-1.395.57-1.395 1.798v2.357h-.668v-3.585c0-.246-.01-.698-.039-1.012Zm7.82 0v.56h-1.297v2.682c0 .687.285.845.688.845.187 0 .403-.059.58-.148l.029.58a2.167 2.167 0 0 1-.786.137c-.491 0-1.179-.216-1.179-1.228v-2.868h-.953v-.56h.953v-1.297h.668v1.297h1.297Zm4.002.707-.511.383c-.196-.383-.618-.648-1.129-.648-.482 0-.973.206-.973.717 0 .432.344.629 1.1.786 1.081.226 1.592.629 1.592 1.346 0 1.051-.884 1.424-1.729 1.424-.698 0-1.395-.275-1.818-.894l.531-.393c.236.403.737.718 1.277.718.57 0 1.081-.207 1.081-.806 0-.481-.482-.678-1.356-.884-.54-.128-1.316-.364-1.316-1.238 0-.933.805-1.336 1.64-1.336.639 0 1.317.304 1.611.825Zm4.611.639v3.251h-.707v-6.955h2.043c1.376 0 2.378.501 2.378 1.857 0 1.031-.767 1.68-1.779 1.788l2.034 3.31h-.864l-1.926-3.251h-1.179Zm0-3.095v2.486h1.228c1.13 0 1.778-.413 1.778-1.238 0-.914-.697-1.248-1.748-1.248h-1.258Zm5.393 3.694h3.134c-.04-.865-.57-1.503-1.523-1.503-.894 0-1.552.717-1.611 1.503Zm3.812.216c0 .089 0 .197-.01.314h-3.812c.02.924.737 1.671 1.68 1.671a1.74 1.74 0 0 0 1.473-.796l.502.393c-.541.687-1.219.972-1.975.972-1.366 0-2.378-1.031-2.378-2.416 0-1.386 1.012-2.417 2.319-2.417 1.444 0 2.201 1.022 2.201 2.279Zm5.268-1.483-.521.373c-.216-.354-.678-.609-1.179-.609-1.071 0-1.758.805-1.758 1.857 0 1.041.678 1.847 1.748 1.847.58 0 .983-.246 1.248-.6l.501.374c-.393.481-.953.795-1.749.795-1.483 0-2.456-1.031-2.456-2.416 0-1.386.973-2.417 2.456-2.417.619 0 1.317.265 1.71.796Zm1.454 1.267h3.134c-.04-.865-.57-1.503-1.523-1.503-.894 0-1.552.717-1.611 1.503Zm3.812.216c0 .089 0 .197-.01.314h-3.812c.02.924.737 1.671 1.68 1.671.688 0 1.218-.384 1.474-.796l.501.393c-.541.687-1.219.972-1.975.972-1.366 0-2.378-1.031-2.378-2.416 0-1.386 1.012-2.417 2.319-2.417 1.444 0 2.201 1.022 2.201 2.279Zm2.36 1.965c0 .275-.216.53-.531.53a.527.527 0 0 1-.53-.53c0-.275.216-.531.53-.531.315 0 .531.256.531.531Zm2.552 0c0 .275-.216.53-.531.53a.527.527 0 0 1-.53-.53c0-.275.216-.531.53-.531.315 0 .531.256.531.531Zm2.552 0c0 .275-.216.53-.531.53a.527.527 0 0 1-.53-.53c0-.275.216-.531.53-.531.315 0 .531.256.531.531ZM129.954 318.736l-.756 1.827h-.777l3.007-6.955h.687l2.987 6.955h-.786l-.766-1.827h-3.596Zm1.798-4.342-1.533 3.694h3.065l-1.532-3.694Zm8.166 2.25-.521.373c-.216-.354-.678-.609-1.179-.609-1.071 0-1.758.805-1.758 1.857 0 1.041.677 1.847 1.748 1.847.58 0 .983-.246 1.248-.6l.501.374c-.393.481-.953.795-1.749.795-1.483 0-2.456-1.031-2.456-2.416 0-1.386.973-2.417 2.456-2.417.619 0 1.317.265 1.71.796Zm4.912 0-.521.373c-.216-.354-.678-.609-1.179-.609-1.071 0-1.758.805-1.758 1.857 0 1.041.677 1.847 1.748 1.847.58 0 .983-.246 1.248-.6l.501.374c-.393.481-.953.795-1.749.795-1.483 0-2.456-1.031-2.456-2.416 0-1.386.973-2.417 2.456-2.417.619 0 1.317.265 1.71.796Zm5.649 1.621c0 1.385-1.022 2.416-2.456 2.416-1.425 0-2.447-1.031-2.447-2.416 0-1.386 1.022-2.417 2.447-2.417 1.434 0 2.456 1.031 2.456 2.417Zm-.708 0c0-1.032-.678-1.857-1.748-1.857-1.061 0-1.739.825-1.739 1.857 0 1.031.678 1.847 1.739 1.847 1.07 0 1.748-.816 1.748-1.847Zm6.124 2.298h-.639a12.42 12.42 0 0 1-.039-.785h-.02c-.255.53-.923.903-1.571.903-1.17 0-1.749-.756-1.749-1.896v-2.819h.668v2.544c0 .963.285 1.611 1.248 1.611.707 0 1.395-.569 1.395-1.797v-2.358h.668v3.586c0 .245.009.697.039 1.011Zm1.69-4.597h.639c.019.245.039.589.039.786h.02c.255-.531.923-.904 1.572-.904 1.169 0 1.748.756 1.748 1.896v2.819h-.668v-2.544c0-.963-.285-1.611-1.247-1.611-.708 0-1.395.57-1.395 1.798v2.357h-.669v-3.585c0-.246-.009-.698-.039-1.012Zm7.821 0v.56h-1.297v2.682c0 .687.285.845.688.845.186 0 .402-.059.579-.148l.03.58a2.17 2.17 0 0 1-.786.137c-.491 0-1.179-.216-1.179-1.228v-2.868h-.953v-.56h.953v-1.297h.668v1.297h1.297Zm4.002.707-.511.383c-.196-.383-.619-.648-1.13-.648-.481 0-.972.206-.972.717 0 .432.344.629 1.1.786 1.081.226 1.592.629 1.592 1.346 0 1.051-.885 1.424-1.73 1.424-.697 0-1.395-.275-1.817-.894l.531-.393a1.52 1.52 0 0 0 1.277.718c.569 0 1.08-.207 1.08-.806 0-.481-.481-.678-1.355-.884-.541-.128-1.317-.364-1.317-1.238 0-.933.806-1.336 1.641-1.336.638 0 1.316.304 1.611.825Zm4.611.639v3.251h-.708v-6.955h2.044c1.375 0 2.377.501 2.377 1.857 0 1.031-.766 1.68-1.778 1.788l2.034 3.31h-.865l-1.925-3.251h-1.179Zm0-3.095v2.486h1.228c1.13 0 1.778-.413 1.778-1.238 0-.914-.698-1.248-1.749-1.248h-1.257Zm5.392 3.694h3.134c-.039-.865-.57-1.503-1.523-1.503-.893 0-1.552.717-1.611 1.503Zm3.812.216c0 .089 0 .197-.01.314h-3.811c.019.924.736 1.671 1.679 1.671.688 0 1.219-.384 1.474-.796l.501.393c-.54.687-1.218.972-1.975.972-1.365 0-2.377-1.031-2.377-2.416 0-1.386 1.012-2.417 2.318-2.417 1.445 0 2.201 1.022 2.201 2.279Zm2.361 1.965c0 .275-.217.53-.531.53a.528.528 0 0 1-.531-.53.53.53 0 0 1 .531-.531.53.53 0 0 1 .531.531Zm2.551 0c0 .275-.216.53-.53.53a.528.528 0 0 1-.531-.53.53.53 0 0 1 .531-.531c.314 0 .53.256.53.531Zm2.552 0c0 .275-.216.53-.53.53a.528.528 0 0 1-.531-.53.53.53 0 0 1 .531-.531c.314 0 .53.256.53.531ZM55.675 281.529l-.56.452c-.295-.423-.776-.698-1.434-.698-.688 0-1.484.413-1.484 1.307 0 .884.737 1.11 1.513 1.366.983.324 2.063.638 2.063 2.033s-1.169 2.004-2.269 2.004c-.845 0-1.69-.344-2.19-1.031l.608-.452c.305.491.865.874 1.592.874.717 0 1.542-.452 1.542-1.346 0-.972-.815-1.218-1.7-1.493-.923-.285-1.866-.688-1.866-1.945 0-1.346 1.199-1.916 2.22-1.916.934 0 1.631.393 1.965.845Zm4.475 3.468v-.147c0-.796-.433-1.189-1.228-1.189-.54 0-1.042.216-1.366.54l-.373-.442c.373-.373 1.021-.658 1.807-.658.993 0 1.788.55 1.788 1.67v2.014c0 .354.03.776.079 1.031h-.6a4.583 4.583 0 0 1-.068-.746h-.02c-.422.609-.933.864-1.67.864-.697 0-1.591-.373-1.591-1.395 0-1.414 1.562-1.542 3.242-1.542Zm0 .521h-.197c-1.09 0-2.358.117-2.358.992 0 .658.56.874 1.081.874.943 0 1.474-.707 1.474-1.523v-.343Zm6.102-2.299-1.867 4.597h-.736l-1.877-4.597h.747l1.493 3.89h.02l1.503-3.89h.717Zm1.722 0v4.597h-.668v-4.597h.668Zm.138-1.769a.478.478 0 0 1-.472.472.478.478 0 0 1-.472-.472c0-.275.236-.471.472-.471s.472.196.472.471Zm1.601 1.769h.639c.02.245.039.589.039.786h.02c.255-.531.923-.904 1.571-.904 1.17 0 1.75.756 1.75 1.896v2.819h-.669v-2.544c0-.963-.285-1.611-1.248-1.611-.707 0-1.395.57-1.395 1.798v2.357h-.668v-3.585c0-.246-.01-.698-.039-1.012Zm5.512 6.032.481-.511c.364.471 1.061.845 1.759.845 1.316 0 1.798-.816 1.798-1.808v-.864h-.02c-.354.569-1.07.903-1.739.903-1.434 0-2.377-.992-2.377-2.338 0-1.306.943-2.377 2.377-2.377.668 0 1.375.324 1.739.913h.02v-.795h.668v4.558c0 1.002-.462 2.397-2.496 2.397-.845 0-1.67-.353-2.21-.923Zm.609-3.792c0 .962.629 1.788 1.739 1.788 1.031 0 1.768-.727 1.768-1.788 0-.963-.737-1.798-1.768-1.798-1.11 0-1.739.835-1.739 1.798Zm8.79-1.533-.51.383c-.196-.383-.619-.648-1.13-.648-.481 0-.972.206-.972.717 0 .432.344.629 1.1.786 1.08.226 1.592.629 1.592 1.346 0 1.051-.885 1.424-1.73 1.424-.697 0-1.395-.275-1.817-.894l.53-.393c.236.403.737.718 1.278.718.57 0 1.08-.207 1.08-.806 0-.481-.481-.678-1.355-.884-.54-.128-1.317-.364-1.317-1.238 0-.933.806-1.336 1.64-1.336.64 0 1.317.304 1.612.825ZM52.453 318.736l-.757 1.827h-.776l3.006-6.955h.688l2.987 6.955h-.786l-.767-1.827h-3.595Zm1.798-4.342-1.533 3.694h3.065l-1.532-3.694Zm8.165 2.25-.52.373c-.216-.354-.678-.609-1.18-.609-1.07 0-1.758.805-1.758 1.857 0 1.041.678 1.847 1.749 1.847.58 0 .982-.246 1.248-.6l.5.374c-.392.481-.952.795-1.748.795-1.483 0-2.456-1.031-2.456-2.416 0-1.386.973-2.417 2.456-2.417.619 0 1.316.265 1.71.796Zm4.913 0-.521.373c-.216-.354-.678-.609-1.18-.609-1.07 0-1.758.805-1.758 1.857 0 1.041.678 1.847 1.75 1.847.579 0 .981-.246 1.247-.6l.5.374c-.392.481-.952.795-1.748.795-1.483 0-2.456-1.031-2.456-2.416 0-1.386.973-2.417 2.456-2.417.619 0 1.317.265 1.71.796Zm5.648 1.621c0 1.385-1.021 2.416-2.456 2.416-1.424 0-2.446-1.031-2.446-2.416 0-1.386 1.022-2.417 2.446-2.417 1.435 0 2.456 1.031 2.456 2.417Zm-.707 0c0-1.032-.678-1.857-1.749-1.857-1.06 0-1.739.825-1.739 1.857 0 1.031.678 1.847 1.74 1.847 1.07 0 1.748-.816 1.748-1.847Zm6.124 2.298h-.639a12 12 0 0 1-.04-.785h-.019c-.255.53-.923.903-1.572.903-1.169 0-1.748-.756-1.748-1.896v-2.819h.668v2.544c0 .963.285 1.611 1.247 1.611.708 0 1.395-.569 1.395-1.797v-2.358h.668v3.586c0 .245.01.697.04 1.011Zm1.69-4.597h.638c.02.245.04.589.04.786h.02c.255-.531.923-.904 1.571-.904 1.17 0 1.749.756 1.749 1.896v2.819h-.668v-2.544c0-.963-.285-1.611-1.248-1.611-.707 0-1.395.57-1.395 1.798v2.357h-.668v-3.585c0-.246-.01-.698-.039-1.012Zm7.82 0v.56h-1.296v2.682c0 .687.285.845.687.845.187 0 .403-.059.58-.148l.03.58a2.167 2.167 0 0 1-.786.137c-.492 0-1.18-.216-1.18-1.228v-2.868h-.952v-.56h.953v-1.297h.668v1.297h1.296Zm4.003.707-.511.383c-.197-.383-.62-.648-1.13-.648-.481 0-.973.206-.973.717 0 .432.344.629 1.1.786 1.081.226 1.592.629 1.592 1.346 0 1.051-.884 1.424-1.729 1.424-.697 0-1.395-.275-1.817-.894l.53-.393c.236.403.737.718 1.277.718.57 0 1.081-.207 1.081-.806 0-.481-.481-.678-1.356-.884-.54-.128-1.316-.364-1.316-1.238 0-.933.805-1.336 1.64-1.336.64 0 1.317.304 1.612.825Zm4.61.639v3.251h-.707v-6.955h2.044c1.375 0 2.377.501 2.377 1.857 0 1.031-.766 1.68-1.778 1.788l2.033 3.31h-.864l-1.926-3.251h-1.178Zm0-3.095v2.486h1.229c1.13 0 1.778-.413 1.778-1.238 0-.914-.698-1.248-1.749-1.248h-1.258Zm5.393 3.694h3.134c-.039-.865-.57-1.503-1.523-1.503-.894 0-1.552.717-1.611 1.503Zm3.812.216c0 .089 0 .197-.01.314H101.9c.02.924.737 1.671 1.68 1.671.688 0 1.218-.384 1.474-.796l.501.393c-.54.687-1.218.972-1.975.972-1.365 0-2.377-1.031-2.377-2.416 0-1.386 1.012-2.417 2.318-2.417 1.444 0 2.201 1.022 2.201 2.279Zm2.36 1.965c0 .275-.216.53-.53.53a.528.528 0 0 1-.531-.53c0-.275.216-.531.531-.531.314 0 .53.256.53.531Zm2.552 0c0 .275-.216.53-.53.53a.528.528 0 0 1-.531-.53c0-.275.216-.531.531-.531.314 0 .53.256.53.531Zm2.552 0c0 .275-.216.53-.53.53a.528.528 0 0 1-.531-.53c0-.275.216-.531.531-.531.314 0 .53.256.53.531Z" fill="#0D333F"/><path d="M34.671 79.124v-7.86h3.064c1.188 0 2.409.544 2.409 1.977 0 .888-.555 1.476-1.365 1.72v.022c.987.133 1.698.8 1.698 1.854 0 1.71-1.487 2.287-2.975 2.287h-2.83Zm1.399-6.705v2.043h1.243c.933 0 1.432-.389 1.432-1.066 0-.7-.5-.977-1.554-.977H36.07Zm0 3.242v2.286h1.254c.722 0 1.754-.144 1.754-1.177 0-.82-.566-1.11-1.698-1.11h-1.31Zm9.03 3.463v-.677h-.033c-.267.466-.9.81-1.654.81-.855 0-1.998-.41-1.998-1.654 0-1.587 1.998-1.81 3.663-1.81v-.133c0-.654-.555-.976-1.221-.976a2.13 2.13 0 0 0-1.454.61l-.689-.81c.6-.555 1.443-.844 2.254-.844 1.909 0 2.375 1.177 2.375 2.242v3.242H45.1Zm-.022-2.242v-.19h-.3c-.844 0-2.031.1-2.031.889 0 .51.477.666.932.666.91 0 1.399-.522 1.399-1.365Zm2.817 2.242v-5.328h1.266v.854h.022c.233-.532.866-1.01 1.654-1.01 1.387 0 1.965 1.066 1.965 2.154v3.33H51.47V76.17c0-.633-.145-1.42-1-1.42-.843 0-1.243.732-1.243 1.442v2.93h-1.332Zm6.483 0v-8.392h1.332v5.306h.034l2.02-2.242h1.71l-2.31 2.408 2.454 2.92h-1.765l-2.11-2.73h-.033v2.73h-1.332Zm8.947-4.263h-.932v-1.065h.932v-1.543h1.31v1.543h1.332v1.065h-1.332v2.476c0 .477.111.821.7.821.177 0 .41-.033.566-.11l.044 1.043a2.758 2.758 0 0 1-.888.144c-1.41 0-1.732-.866-1.732-1.887V74.86Zm3.606 4.263v-5.328h1.277v.888h.022c.289-.61.855-1.044 1.554-1.044.1 0 .233.011.322.033v1.221a1.554 1.554 0 0 0-.41-.055c-1.2 0-1.433 1.043-1.433 1.432v2.853h-1.332Zm7.21 0v-.677h-.032c-.267.466-.9.81-1.654.81-.855 0-1.999-.41-1.999-1.654 0-1.587 1.998-1.81 3.664-1.81v-.133c0-.654-.555-.976-1.222-.976a2.13 2.13 0 0 0-1.454.61l-.688-.81c.6-.555 1.443-.844 2.254-.844 1.909 0 2.375 1.177 2.375 2.242v3.242h-1.243Zm-.021-2.242v-.19h-.3c-.844 0-2.032.1-2.032.889 0 .51.478.666.933.666.91 0 1.399-.522 1.399-1.365Zm2.817 2.242v-5.328h1.266v.854h.022c.233-.532.866-1.01 1.654-1.01 1.387 0 1.965 1.066 1.965 2.154v3.33H80.51V76.17c0-.633-.144-1.42-.999-1.42-.843 0-1.243.732-1.243 1.442v2.93h-1.332Zm10.246-4.673-.866.765a1.51 1.51 0 0 0-1.165-.577c-.422 0-.855.156-.855.577 0 .411.41.522 1.155.7.788.189 1.72.544 1.72 1.587 0 1.299-1.054 1.776-2.22 1.776-.821 0-1.676-.31-2.187-.877l.877-.821c.289.377.788.666 1.366.666.388 0 .854-.156.854-.633 0-.444-.41-.577-1.22-.766-.789-.189-1.577-.51-1.577-1.51 0-1.187 1.066-1.698 2.12-1.698.766 0 1.565.267 1.998.81Zm4.455 4.673v-.677h-.033c-.266.466-.899.81-1.654.81-.855 0-1.998-.41-1.998-1.654 0-1.587 1.998-1.81 3.663-1.81v-.133c0-.654-.555-.976-1.22-.976a2.13 2.13 0 0 0-1.455.61l-.688-.81c.6-.555 1.443-.844 2.253-.844 1.91 0 2.376 1.177 2.376 2.242v3.242h-1.244Zm-.022-2.242v-.19h-.3c-.843 0-2.03.1-2.03.889 0 .51.476.666.931.666.91 0 1.4-.522 1.4-1.365Zm7.369-2.41-.91.8c-.211-.3-.666-.522-1.1-.522-.976 0-1.465.877-1.465 1.71 0 .832.5 1.71 1.51 1.71.41 0 .866-.167 1.121-.478l.833.844c-.444.477-1.177.743-1.965.743-1.576 0-2.886-1.043-2.886-2.82 0-1.731 1.287-2.819 2.853-2.819.777 0 1.587.311 2.009.833Zm1.035.39h-.932v-1.066h.932v-1.543h1.31v1.543h1.332v1.065h-1.332v2.476c0 .477.111.821.7.821.177 0 .41-.033.566-.11l.044 1.043a2.755 2.755 0 0 1-.888.144c-1.41 0-1.732-.866-1.732-1.887V74.86Zm3.629 4.262v-5.328h1.332v5.328h-1.332Zm-.189-7.138c0-.422.355-.8.844-.8.488 0 .865.345.865.8 0 .455-.377.8-.865.8-.489 0-.844-.378-.844-.8Zm2.826 4.451c0-1.676 1.288-2.797 2.897-2.797 1.61 0 2.897 1.121 2.897 2.797 0 1.677-1.287 2.842-2.897 2.842-1.609 0-2.897-1.165-2.897-2.841Zm1.354 0c0 .833.489 1.732 1.543 1.732 1.055 0 1.543-.899 1.543-1.731 0-.833-.488-1.71-1.543-1.71-1.054 0-1.543.877-1.543 1.71Zm5.732 2.687v-5.328h1.266v.854h.022c.233-.532.866-1.01 1.654-1.01 1.387 0 1.965 1.066 1.965 2.154v3.33h-1.332V76.17c0-.633-.145-1.42-1-1.42-.843 0-1.243.732-1.243 1.442v2.93h-1.332Zm10.246-4.673-.865.765a1.512 1.512 0 0 0-1.166-.577c-.422 0-.855.156-.855.577 0 .411.411.522 1.155.7.788.189 1.72.544 1.72 1.587 0 1.299-1.054 1.776-2.22 1.776-.821 0-1.676-.31-2.187-.877l.877-.821c.289.377.788.666 1.366.666.388 0 .854-.156.854-.633 0-.444-.41-.577-1.221-.766-.788-.189-1.576-.51-1.576-1.51 0-1.187 1.066-1.698 2.12-1.698.766 0 1.565.267 1.998.81ZM163.44 79.124v-7.86h2.73c1.477 0 2.898.589 2.898 2.254 0 1.132-.7 1.876-1.799 2.12l2.098 3.486h-1.687l-1.82-3.33h-1.022v3.33h-1.398Zm1.398-4.474h1.144c.788 0 1.687-.188 1.687-1.143 0-.855-.844-1.066-1.565-1.066h-1.266v2.21Zm6.407 1.277h2.731c0-.688-.388-1.288-1.254-1.288-.788 0-1.421.544-1.477 1.288Zm4.063.6c0 .121 0 .232-.011.355h-4.052c.056.754.744 1.31 1.521 1.31.666 0 1.11-.267 1.41-.689l.888.71c-.522.711-1.276 1.066-2.287 1.066-1.643 0-2.864-1.054-2.864-2.786 0-1.72 1.21-2.853 2.82-2.853 1.487 0 2.575.966 2.575 2.886Zm5.842-2.054-.911.799c-.21-.3-.666-.522-1.098-.522-.977 0-1.466.877-1.466 1.71 0 .832.5 1.71 1.51 1.71.411 0 .866-.167 1.121-.478l.833.844c-.444.477-1.177.743-1.965.743-1.576 0-2.886-1.043-2.886-2.82 0-1.731 1.287-2.819 2.853-2.819.777 0 1.587.311 2.009.833Zm1.89 1.454h2.731c0-.688-.389-1.288-1.255-1.288-.788 0-1.421.544-1.476 1.288Zm4.063.6c0 .121 0 .232-.011.355h-4.052c.055.754.744 1.31 1.521 1.31.666 0 1.11-.267 1.41-.689l.888.71c-.522.711-1.277 1.066-2.287 1.066-1.643 0-2.864-1.054-2.864-2.786 0-1.72 1.21-2.853 2.819-2.853 1.488 0 2.576.966 2.576 2.886Zm1.312 2.597v-5.328h1.332v5.328h-1.332Zm-.189-7.138c0-.422.356-.8.844-.8.489 0 .866.345.866.8 0 .455-.377.8-.866.8-.488 0-.844-.378-.844-.8Zm3.137 1.81h1.277v.743h.033c.267-.421.866-.899 1.843-.899 1.521 0 2.586 1.221 2.586 2.797 0 1.555-.999 2.842-2.619 2.842-.744 0-1.421-.333-1.765-.865h-.023v3.374h-1.332v-7.992Zm4.385 2.641c0-.832-.499-1.709-1.532-1.709-.977 0-1.565.9-1.565 1.732s.588 1.71 1.565 1.71c1.033 0 1.532-.9 1.532-1.733Zm2.806-1.576h-.932v-1.065h.932v-1.543h1.31v1.543h1.332v1.065h-1.332v2.476c0 .477.111.821.7.821.177 0 .41-.033.566-.11l.044 1.043a2.755 2.755 0 0 1-.888.144c-1.41 0-1.732-.866-1.732-1.887V74.86Zm7.392-.41-.866.765a1.509 1.509 0 0 0-1.166-.577c-.421 0-.854.156-.854.577 0 .411.41.522 1.154.7.788.189 1.721.544 1.721 1.587 0 1.299-1.055 1.776-2.22 1.776-.822 0-1.677-.31-2.187-.877l.877-.821c.288.377.788.666 1.365.666.389 0 .855-.156.855-.633 0-.444-.411-.577-1.221-.766-.788-.189-1.577-.51-1.577-1.51 0-1.187 1.066-1.698 2.121-1.698.766 0 1.565.267 1.998.81ZM245.585 79.124v-7.86h2.731c1.476 0 2.897.589 2.897 2.254 0 1.132-.699 1.876-1.798 2.12l2.098 3.486h-1.688l-1.82-3.33h-1.021v3.33h-1.399Zm1.399-4.474h1.143c.788 0 1.687-.188 1.687-1.143 0-.855-.843-1.066-1.565-1.066h-1.265v2.21Zm10.248-.854v5.328h-1.266v-.855h-.022c-.233.533-.866 1.01-1.654 1.01-1.388 0-1.965-1.065-1.965-2.153v-3.33h1.332v2.952c0 .633.144 1.421.999 1.421.844 0 1.244-.732 1.244-1.443v-2.93h1.332Zm1.621 5.328v-8.392h1.332v8.392h-1.332Zm3.969-3.197h2.731c0-.688-.389-1.288-1.255-1.288-.788 0-1.42.544-1.476 1.288Zm4.063.6c0 .121 0 .232-.011.355h-4.052c.056.754.744 1.31 1.521 1.31.666 0 1.11-.267 1.41-.689l.888.71c-.522.711-1.277 1.066-2.287 1.066-1.643 0-2.864-1.054-2.864-2.786 0-1.72 1.21-2.853 2.82-2.853 1.487 0 2.575.966 2.575 2.886Zm5.075-2.076-.866.765a1.508 1.508 0 0 0-1.165-.577c-.422 0-.855.156-.855.577 0 .411.411.522 1.155.7.788.189 1.72.544 1.72 1.587 0 1.299-1.054 1.776-2.22 1.776-.821 0-1.676-.31-2.187-.877l.877-.821c.289.377.788.666 1.366.666.388 0 .854-.156.854-.633 0-.444-.41-.577-1.221-.766-.788-.189-1.576-.51-1.576-1.51 0-1.187 1.066-1.698 2.12-1.698.766 0 1.565.267 1.998.81Z" fill="#BABEC5"/><path d="m317.817 72.264-1.066.843c-.41-.566-1.154-.81-1.787-.81-1.62 0-2.719 1.254-2.719 2.875 0 1.71 1.043 2.897 2.664 2.897.843 0 1.509-.366 1.909-.91l1.121.788c-.688.866-1.709 1.377-3.041 1.377-2.454 0-4.196-1.699-4.196-4.152 0-2.52 1.842-4.107 4.262-4.107 1.022 0 2.231.377 2.853 1.199Zm3.889 1.376c1.387 0 1.964 1.066 1.964 2.154v3.33h-1.332v-2.93c0-.633-.133-1.41-.988-1.41-.843 0-1.254.721-1.254 1.431v2.909h-1.332v-8.392h1.332v3.807h.022c.211-.444.799-.899 1.588-.899Zm6.826 5.484v-.677h-.033c-.266.466-.899.81-1.654.81-.855 0-1.998-.41-1.998-1.654 0-1.587 1.998-1.81 3.663-1.81v-.133c0-.654-.555-.976-1.221-.976-.566 0-1.11.266-1.454.61l-.688-.81c.599-.555 1.443-.844 2.253-.844 1.909 0 2.376 1.177 2.376 2.242v3.242h-1.244Zm-.022-2.242v-.19h-.3c-.843 0-2.031.1-2.031.889 0 .51.477.666.932.666.911 0 1.399-.522 1.399-1.365Zm2.818 2.242v-5.328h1.276v.888h.022c.289-.61.855-1.044 1.554-1.044.1 0 .234.011.322.033v1.221a1.546 1.546 0 0 0-.41-.055c-1.199 0-1.432 1.043-1.432 1.432v2.853h-1.332Zm4.08-4.263h-.933v-1.065h.933v-1.543h1.309v1.543h1.332v1.065h-1.332v2.476c0 .477.111.821.7.821.177 0 .41-.033.566-.11l.044 1.043a2.755 2.755 0 0 1-.888.144c-1.41 0-1.731-.866-1.731-1.887V74.86Zm6.07 1.576c0-1.676 1.288-2.797 2.897-2.797 1.61 0 2.897 1.121 2.897 2.797 0 1.677-1.287 2.842-2.897 2.842-1.609 0-2.897-1.165-2.897-2.841Zm1.354 0c0 .833.489 1.732 1.543 1.732 1.055 0 1.543-.899 1.543-1.731 0-.833-.488-1.71-1.543-1.71-1.054 0-1.543.877-1.543 1.71Zm5.943 2.687V74.86h-1.01v-1.065h1.01v-.789c0-1.276.499-2.409 2.153-2.409.289 0 .478.023.678.078l-.089 1.132a1.762 1.762 0 0 0-.511-.077c-.766 0-.899.666-.899 1.199v.866h1.232v1.065h-1.232v4.263h-1.332Zm9.742 0v-.677h-.033c-.266.466-.899.81-1.654.81-.855 0-1.998-.41-1.998-1.654 0-1.587 1.998-1.81 3.663-1.81v-.133c0-.654-.555-.976-1.221-.976-.566 0-1.11.266-1.454.61l-.688-.81c.599-.555 1.443-.844 2.253-.844 1.909 0 2.376 1.177 2.376 2.242v3.242h-1.244Zm-.022-2.242v-.19h-.3c-.843 0-2.031.1-2.031.889 0 .51.477.666.932.666.911 0 1.399-.522 1.399-1.365Zm7.369-2.41-.91.8c-.211-.3-.666-.522-1.099-.522-.977 0-1.466.877-1.466 1.71 0 .832.5 1.71 1.51 1.71.411 0 .866-.167 1.121-.478l.833.844c-.444.477-1.177.743-1.965.743-1.576 0-2.886-1.043-2.886-2.82 0-1.731 1.287-2.819 2.853-2.819.777 0 1.587.311 2.009.833Zm5.42 0-.91.8c-.211-.3-.666-.522-1.099-.522-.977 0-1.465.877-1.465 1.71 0 .832.499 1.71 1.509 1.71.411 0 .866-.167 1.121-.478l.833.844c-.444.477-1.177.743-1.965.743-1.576 0-2.886-1.043-2.886-2.82 0-1.731 1.288-2.819 2.853-2.819.777 0 1.587.311 2.009.833Zm.558 1.966c0-1.677 1.288-2.798 2.898-2.798 1.609 0 2.897 1.121 2.897 2.797 0 1.677-1.288 2.842-2.897 2.842-1.61 0-2.898-1.165-2.898-2.841Zm1.355 0c0 .832.488 1.731 1.543 1.731 1.054 0 1.543-.899 1.543-1.731 0-.833-.489-1.71-1.543-1.71-1.055 0-1.543.877-1.543 1.71Zm10.594-2.642v5.328h-1.266v-.855h-.022c-.233.533-.866 1.01-1.654 1.01-1.388 0-1.965-1.065-1.965-2.153v-3.33h1.332v2.952c0 .633.144 1.421.999 1.421.844 0 1.243-.732 1.243-1.443v-2.93h1.333Zm1.598 5.328v-5.328h1.266v.854h.022c.233-.532.866-1.01 1.654-1.01 1.388 0 1.965 1.066 1.965 2.154v3.33h-1.332V76.17c0-.633-.144-1.42-.999-1.42-.844 0-1.244.732-1.244 1.442v2.93h-1.332Zm6.628-4.263h-.933v-1.065h.933v-1.543h1.31v1.543h1.332v1.065h-1.332v2.476c0 .477.111.821.699.821.178 0 .411-.033.566-.11l.045 1.043a2.76 2.76 0 0 1-.888.144c-1.41 0-1.732-.866-1.732-1.887V74.86Zm7.391-.41-.866.765a1.508 1.508 0 0 0-1.165-.577c-.422 0-.855.156-.855.577 0 .411.411.522 1.154.7.789.189 1.721.544 1.721 1.587 0 1.299-1.054 1.776-2.22 1.776-.821 0-1.676-.31-2.187-.877l.877-.821c.289.377.788.666 1.365.666.389 0 .855-.156.855-.633 0-.444-.411-.577-1.221-.766-.788-.189-1.576-.51-1.576-1.51 0-1.187 1.066-1.698 2.12-1.698.766 0 1.565.267 1.998.81Z" fill="#0D333F"/><rect x="335.963" y="104.976" width="69.599" height="31.082" rx="2.22" fill="#0A8543"/><path d="M350.171 124.517v-7.859h1.854l3.652 5.884h.022v-5.884h1.399v7.859h-1.776l-3.73-6.072h-.022v6.072h-1.399Zm9.616-3.197h2.731c0-.688-.389-1.287-1.254-1.287-.789 0-1.421.544-1.477 1.287Zm4.063.6c0 .122 0 .233-.011.355h-4.052c.056.755.744 1.31 1.521 1.31.666 0 1.11-.266 1.41-.688l.888.71c-.522.711-1.277 1.066-2.287 1.066-1.643 0-2.864-1.055-2.864-2.786 0-1.721 1.21-2.853 2.82-2.853 1.487 0 2.575.965 2.575 2.886Zm2.389 2.597-1.854-5.328h1.443l1.111 3.819h.022l1.143-3.819h1.421l1.154 3.819h.023l1.132-3.819h1.388l-1.843 5.328h-1.354l-1.21-3.729h-.023l-1.199 3.729h-1.354Z" fill="#fff"/><path fill-rule="evenodd" clip-rule="evenodd" d="M383.311 117.914a.672.672 0 0 0-.95.949l4.258 4.258a.67.67 0 0 0 .584.188.67.67 0 0 0 .584-.188l4.258-4.258a.671.671 0 1 0-.95-.949l-3.892 3.892-3.892-3.892Z" fill="#fff"/><rect x="29.536" y="155.485" width="113.489" height="25.77" rx="1.665" stroke="#BABEC5" stroke-width="1.11"/><path d="M40.948 172.37v-7.859h3.064c1.188 0 2.408.544 2.408 1.976 0 .888-.555 1.476-1.365 1.72v.022c.988.134 1.699.8 1.699 1.854 0 1.71-1.488 2.287-2.975 2.287h-2.831Zm1.399-6.705v2.043h1.243c.932 0 1.432-.389 1.432-1.066 0-.699-.5-.977-1.554-.977h-1.121Zm0 3.241v2.287H43.6c.721 0 1.754-.144 1.754-1.176 0-.822-.566-1.111-1.698-1.111h-1.31Zm9.03 3.464v-.677h-.034c-.266.466-.899.81-1.654.81-.855 0-1.998-.411-1.998-1.654 0-1.587 1.998-1.809 3.663-1.809v-.134c0-.654-.555-.976-1.22-.976a2.13 2.13 0 0 0-1.455.61l-.688-.81c.6-.555 1.443-.844 2.253-.844 1.91 0 2.376 1.177 2.376 2.242v3.242h-1.243Zm-.023-2.242v-.189h-.3c-.843 0-2.03.1-2.03.888 0 .511.477.666.932.666.91 0 1.398-.522 1.398-1.365Zm2.876-2.021h-.933v-1.065h.933v-1.543h1.31v1.543h1.332v1.065H55.54v2.476c0 .477.11.821.7.821.177 0 .41-.033.565-.111l.045 1.044a2.78 2.78 0 0 1-.888.144c-1.41 0-1.732-.866-1.732-1.887v-2.487Zm8.157-.388-.91.799c-.211-.3-.666-.522-1.099-.522-.977 0-1.465.877-1.465 1.71 0 .832.5 1.709 1.51 1.709.41 0 .865-.166 1.12-.477l.833.844c-.444.477-1.177.743-1.965.743-1.576 0-2.886-1.043-2.886-2.819 0-1.732 1.288-2.82 2.853-2.82.777 0 1.587.311 2.01.833Zm3.833-.833c1.388 0 1.965 1.066 1.965 2.154v3.33h-1.332v-2.931c0-.632-.133-1.409-.988-1.409-.844 0-1.254.721-1.254 1.432v2.908h-1.333v-8.392h1.333v3.807h.022c.21-.444.799-.899 1.587-.899Zm9.602 5.484v-.677h-.033c-.267.466-.9.81-1.654.81-.855 0-1.998-.411-1.998-1.654 0-1.587 1.998-1.809 3.663-1.809v-.134c0-.654-.555-.976-1.221-.976a2.13 2.13 0 0 0-1.454.61l-.689-.81c.6-.555 1.443-.844 2.254-.844 1.91 0 2.375 1.177 2.375 2.242v3.242h-1.243Zm-.022-2.242v-.189h-.3c-.844 0-2.031.1-2.031.888 0 .511.477.666.932.666.91 0 1.399-.522 1.399-1.365Zm7.368-2.409-.91.799c-.21-.3-.666-.522-1.099-.522-.977 0-1.465.877-1.465 1.71 0 .832.5 1.709 1.51 1.709.41 0 .866-.166 1.12-.477l.833.844c-.444.477-1.176.743-1.964.743-1.577 0-2.887-1.043-2.887-2.819 0-1.732 1.288-2.82 2.853-2.82.777 0 1.588.311 2.01.833Zm1.036.388h-.932v-1.065h.932v-1.543h1.31v1.543h1.332v1.065h-1.332v2.476c0 .477.11.821.7.821.177 0 .41-.033.565-.111l.045 1.044a2.78 2.78 0 0 1-.888.144c-1.41 0-1.732-.866-1.732-1.887v-2.487Zm3.628 4.263v-5.328h1.332v5.328h-1.332Zm-.188-7.138c0-.422.355-.799.843-.799.489 0 .866.344.866.799 0 .455-.377.799-.866.799-.488 0-.843-.377-.843-.799Zm2.825 4.452c0-1.677 1.288-2.798 2.898-2.798s2.897 1.121 2.897 2.798c0 1.676-1.288 2.841-2.897 2.841-1.61 0-2.898-1.165-2.898-2.841Zm1.355 0c0 .832.488 1.731 1.543 1.731 1.054 0 1.543-.899 1.543-1.731 0-.833-.489-1.71-1.543-1.71-1.055 0-1.543.877-1.543 1.71Zm5.732 2.686v-5.328h1.265v.854h.022c.233-.533.866-1.01 1.654-1.01 1.388 0 1.965 1.066 1.965 2.154v3.33h-1.332v-2.953c0-.633-.144-1.421-.999-1.421-.844 0-1.243.733-1.243 1.443v2.931h-1.332Zm10.246-4.673-.866.765a1.51 1.51 0 0 0-1.165-.577c-.422 0-.855.156-.855.577 0 .411.411.522 1.154.7.788.189 1.721.544 1.721 1.587 0 1.299-1.055 1.776-2.22 1.776-.822 0-1.676-.311-2.187-.877l.877-.821c.288.377.788.666 1.365.666.389 0 .855-.155.855-.633 0-.444-.411-.577-1.221-.766-.788-.188-1.576-.51-1.576-1.509 0-1.188 1.065-1.699 2.12-1.699.766 0 1.565.267 1.998.811Z" fill="#0D333F"/><path fill-rule="evenodd" clip-rule="evenodd" d="M123.549 165.766a.672.672 0 0 0-.95.95l4.258 4.258a.672.672 0 0 0 .584.187.67.67 0 0 0 .584-.187l4.258-4.258a.672.672 0 0 0-.95-.95l-3.892 3.893-3.892-3.893Z" fill="#09222A"/><rect x="153.016" y="155.604" width="163.181" height="25.532" rx="1.665" stroke="#BABEC5" stroke-width="1.11"/><path d="m174.056 174.082-3.71-3.709a5.546 5.546 0 0 0-8.275-7.357 5.544 5.544 0 0 0 3.372 9.457 5.541 5.541 0 0 0 3.926-1.13l3.71 3.717a.694.694 0 0 0 .753.15.694.694 0 0 0 .375-.904.692.692 0 0 0-.151-.224Zm-10.977-4.17a4.126 4.126 0 0 1-.894-4.5 4.137 4.137 0 0 1 1.521-1.853 4.135 4.135 0 0 1 4.588 0 4.137 4.137 0 0 1 1.757 4.238 4.133 4.133 0 0 1-4.051 3.326 4.122 4.122 0 0 1-2.921-1.211Z" fill="#0D333F"/><path d="m188.083 165.274-.91.999c-.3-.389-.889-.677-1.444-.677-.643 0-1.387.311-1.387 1.077 0 .721.61.932 1.498 1.21 1.011.31 2.298.754 2.298 2.297 0 1.688-1.321 2.509-2.864 2.509-1.021 0-2.076-.388-2.697-1.121l.999-.932c.388.532 1.099.865 1.721.865.654 0 1.42-.322 1.42-1.165 0-.822-.821-1.055-1.809-1.366-.955-.299-1.987-.765-1.987-2.231 0-1.598 1.454-2.309 2.875-2.309.788 0 1.687.278 2.287.844Zm2.411 4.018h2.731c0-.688-.389-1.287-1.255-1.287-.788 0-1.42.544-1.476 1.287Zm4.063.6c0 .122 0 .233-.011.355h-4.052c.056.755.744 1.31 1.521 1.31.666 0 1.11-.266 1.41-.688l.888.71c-.522.711-1.277 1.066-2.287 1.066-1.643 0-2.864-1.055-2.864-2.786 0-1.721 1.21-2.853 2.82-2.853 1.487 0 2.575.965 2.575 2.886Zm4.533 2.597v-.677h-.033c-.267.466-.899.811-1.654.811-.855 0-1.998-.411-1.998-1.654 0-1.588 1.998-1.81 3.663-1.81v-.133c0-.655-.555-.977-1.221-.977a2.13 2.13 0 0 0-1.454.611l-.689-.811c.6-.555 1.443-.843 2.254-.843 1.909 0 2.375 1.176 2.375 2.242v3.241h-1.243Zm-.022-2.242v-.189h-.3c-.844 0-2.031.1-2.031.888 0 .511.477.666.932.666.91 0 1.399-.521 1.399-1.365Zm2.817 2.242v-5.328h1.277v.888h.022c.289-.61.855-1.043 1.554-1.043.1 0 .233.011.322.033v1.221a1.571 1.571 0 0 0-.411-.055c-1.199 0-1.432 1.043-1.432 1.431v2.853h-1.332Zm8.4-4.651-.91.799c-.211-.299-.666-.521-1.099-.521-.977 0-1.466.877-1.466 1.709 0 .833.5 1.71 1.51 1.71.411 0 .866-.167 1.121-.478l.833.844c-.444.477-1.177.744-1.965.744-1.576 0-2.886-1.044-2.886-2.82 0-1.732 1.287-2.819 2.853-2.819.777 0 1.587.31 2.009.832Zm3.833-.832c1.387 0 1.965 1.065 1.965 2.153v3.33h-1.332v-2.93c0-.633-.134-1.41-.988-1.41-.844 0-1.255.722-1.255 1.432v2.908h-1.332v-8.392h1.332v3.808h.022c.211-.444.8-.899 1.588-.899Zm6.46 1.221h-.932v-1.066h.932v-1.543h1.31v1.543h1.332v1.066h-1.332v2.475c0 .477.111.822.699.822.178 0 .411-.034.567-.111l.044 1.043a2.75 2.75 0 0 1-.888.144c-1.41 0-1.732-.865-1.732-1.887v-2.486Zm3.606 4.262v-5.328h1.277v.888h.022c.289-.61.855-1.043 1.554-1.043.1 0 .233.011.322.033v1.221a1.571 1.571 0 0 0-.411-.055c-1.199 0-1.432 1.043-1.432 1.431v2.853h-1.332Zm7.211 0v-.677h-.033c-.267.466-.9.811-1.654.811-.855 0-1.999-.411-1.999-1.654 0-1.588 1.999-1.81 3.664-1.81v-.133c0-.655-.555-.977-1.221-.977a2.13 2.13 0 0 0-1.455.611l-.688-.811c.6-.555 1.443-.843 2.254-.843 1.909 0 2.375 1.176 2.375 2.242v3.241h-1.243Zm-.022-2.242v-.189h-.3c-.844 0-2.032.1-2.032.888 0 .511.478.666.933.666.91 0 1.399-.521 1.399-1.365Zm2.817 2.242v-5.328h1.266v.855h.022c.233-.533.866-1.01 1.654-1.01 1.387 0 1.965 1.065 1.965 2.153v3.33h-1.333v-2.952c0-.633-.144-1.421-.999-1.421-.843 0-1.243.732-1.243 1.443v2.93h-1.332Zm10.246-4.673-.865.766a1.511 1.511 0 0 0-1.166-.577c-.422 0-.855.155-.855.577 0 .411.411.522 1.155.699.788.189 1.72.544 1.72 1.588 0 1.298-1.054 1.776-2.22 1.776-.821 0-1.676-.311-2.187-.877l.877-.822c.289.378.788.666 1.366.666.388 0 .854-.155.854-.632 0-.444-.41-.578-1.221-.766-.788-.189-1.576-.511-1.576-1.51 0-1.188 1.066-1.698 2.12-1.698.766 0 1.565.266 1.998.81Zm4.455 4.673v-.677h-.033c-.266.466-.899.811-1.654.811-.855 0-1.998-.411-1.998-1.654 0-1.588 1.998-1.81 3.663-1.81v-.133c0-.655-.555-.977-1.221-.977a2.13 2.13 0 0 0-1.454.611l-.688-.811c.599-.555 1.443-.843 2.253-.843 1.91 0 2.376 1.176 2.376 2.242v3.241h-1.244Zm-.022-2.242v-.189h-.299c-.844 0-2.032.1-2.032.888 0 .511.477.666.933.666.91 0 1.398-.521 1.398-1.365Zm7.369-2.409-.91.799c-.211-.299-.666-.521-1.099-.521-.977 0-1.466.877-1.466 1.709 0 .833.5 1.71 1.51 1.71.411 0 .866-.167 1.121-.478l.833.844c-.444.477-1.177.744-1.965.744-1.576 0-2.886-1.044-2.886-2.82 0-1.732 1.288-2.819 2.853-2.819.777 0 1.587.31 2.009.832Zm1.035.389h-.932v-1.066h.932v-1.543h1.31v1.543h1.332v1.066h-1.332v2.475c0 .477.111.822.7.822.177 0 .41-.034.566-.111l.044 1.043a2.75 2.75 0 0 1-.888.144c-1.41 0-1.732-.865-1.732-1.887v-2.486Zm3.629 4.262v-5.328h1.332v5.328h-1.332Zm-.189-7.137c0-.422.355-.8.844-.8.488 0 .865.344.865.8 0 .455-.377.799-.865.799-.489 0-.844-.378-.844-.799Zm2.826 4.451c0-1.676 1.288-2.797 2.897-2.797 1.61 0 2.898 1.121 2.898 2.797 0 1.676-1.288 2.842-2.898 2.842-1.609 0-2.897-1.166-2.897-2.842Zm1.354 0c0 .833.489 1.732 1.543 1.732 1.055 0 1.543-.899 1.543-1.732s-.488-1.71-1.543-1.71c-1.054 0-1.543.877-1.543 1.71Zm5.732 2.686v-5.328h1.266v.855h.022c.233-.533.866-1.01 1.654-1.01 1.387 0 1.965 1.065 1.965 2.153v3.33H274.2v-2.952c0-.633-.145-1.421-.999-1.421-.844 0-1.244.732-1.244 1.443v2.93h-1.332Zm10.246-4.673-.865.766a1.511 1.511 0 0 0-1.166-.577c-.422 0-.855.155-.855.577 0 .411.411.522 1.155.699.788.189 1.72.544 1.72 1.588 0 1.298-1.054 1.776-2.22 1.776-.821 0-1.676-.311-2.187-.877l.877-.822c.289.378.788.666 1.366.666.388 0 .854-.155.854-.632 0-.444-.41-.578-1.221-.766-.788-.189-1.576-.511-1.576-1.51 0-1.188 1.066-1.698 2.12-1.698.766 0 1.566.266 1.998.81Z" fill="#BABEC5"/><rect x="326.187" y="155.485" width="58.489" height="25.77" rx="1.665" stroke="#BABEC5" stroke-width="1.11"/><path d="m336.644 172.37 3.419-7.859h1.21l3.386 7.859h-1.599l-.733-1.798h-3.407l-.711 1.798h-1.565Zm2.753-2.997h2.442l-1.21-3.197-1.232 3.197Zm5.995 2.997v-8.392h1.332v8.392h-1.332Zm2.97 0v-8.392h1.332v8.392h-1.332Z" fill="#0D333F"/><path fill-rule="evenodd" clip-rule="evenodd" d="M365.2 165.766a.672.672 0 0 0-.95.95l4.258 4.258a.672.672 0 0 0 .584.187.67.67 0 0 0 .584-.187l4.258-4.258a.672.672 0 0 0-.95-.95l-3.892 3.893-3.892-3.893Z" fill="#09222A"/><path d="M144.529 255.069v-6.955h2.073c1.061 0 2.24.383 2.24 1.778 0 .727-.491 1.326-1.228 1.493v.02c.904.098 1.572.727 1.572 1.739 0 1.159-.993 1.925-2.594 1.925h-2.063Zm.707-6.346v2.436h1.425c.678 0 1.473-.294 1.473-1.218 0-.884-.756-1.218-1.67-1.218h-1.228Zm0 3.016v2.721h1.317c1.021 0 1.915-.383 1.915-1.355 0-.914-.658-1.366-1.788-1.366h-1.444Zm8.397.511v-.148c0-.795-.432-1.188-1.228-1.188-.54 0-1.041.216-1.365.54l-.374-.442c.374-.373 1.022-.658 1.808-.658.992 0 1.788.55 1.788 1.67v2.014c0 .353.03.776.079 1.031h-.6a4.618 4.618 0 0 1-.068-.746h-.02c-.422.609-.933.864-1.67.864-.698 0-1.592-.373-1.592-1.395 0-1.414 1.562-1.542 3.242-1.542Zm0 .52h-.196c-1.091 0-2.358.118-2.358.993 0 .658.56.874 1.081.874.943 0 1.473-.707 1.473-1.523v-.344Zm2.311-2.298h.638c.02.245.04.589.04.786h.019c.256-.531.924-.904 1.572-.904 1.169 0 1.749.756 1.749 1.896v2.819h-.668v-2.544c0-.963-.285-1.611-1.248-1.611-.707 0-1.395.57-1.395 1.798v2.357h-.668v-3.585c0-.246-.01-.698-.039-1.012Zm6.435-2.83v4.903h.03l2.122-2.073h.962l-2.318 2.102 2.554 2.495h-.982l-2.338-2.416h-.03v2.416h-.668v-7.427h.668Z" fill="#0D333F"/><path d="M136.896 251.962a.549.549 0 0 0-.765.007.546.546 0 0 0-.006.765l.705.705h-7.415a.548.548 0 0 0-.546.546.547.547 0 0 0 .546.546h7.416l-.706.706a.542.542 0 0 0-.007.779.555.555 0 0 0 .39.159.53.53 0 0 0 .388-.166l1.638-1.638a.545.545 0 0 0 0-.771l-1.638-1.638ZM130.667 251.642a.542.542 0 0 0 .938-.384.553.553 0 0 0-.167-.388l-.705-.705h7.415a.55.55 0 0 0 .546-.546.547.547 0 0 0-.546-.546h-7.415l.705-.706a.546.546 0 0 0-.771-.771l-1.638 1.637a.546.546 0 0 0 0 .772l1.638 1.637Z" fill="#393A3D"/><path d="M144.529 287.816v-6.955h2.073c1.061 0 2.24.383 2.24 1.778 0 .727-.491 1.326-1.228 1.493v.02c.904.098 1.572.727 1.572 1.739 0 1.159-.993 1.925-2.594 1.925h-2.063Zm.707-6.346v2.436h1.425c.678 0 1.473-.294 1.473-1.218 0-.884-.756-1.218-1.67-1.218h-1.228Zm0 3.016v2.721h1.317c1.021 0 1.915-.383 1.915-1.355 0-.914-.658-1.366-1.788-1.366h-1.444Zm8.397.511v-.147c0-.796-.432-1.189-1.228-1.189-.54 0-1.041.216-1.365.54l-.374-.442c.374-.373 1.022-.658 1.808-.658.992 0 1.788.55 1.788 1.67v2.014c0 .354.03.776.079 1.031h-.6a4.618 4.618 0 0 1-.068-.746h-.02c-.422.609-.933.864-1.67.864-.698 0-1.592-.373-1.592-1.395 0-1.414 1.562-1.542 3.242-1.542Zm0 .521h-.196c-1.091 0-2.358.117-2.358.992 0 .658.56.874 1.081.874.943 0 1.473-.707 1.473-1.523v-.343Zm2.311-2.299h.638c.02.245.04.589.04.786h.019c.256-.531.924-.904 1.572-.904 1.169 0 1.749.756 1.749 1.896v2.819h-.668v-2.544c0-.963-.285-1.611-1.248-1.611-.707 0-1.395.57-1.395 1.798v2.357h-.668v-3.585c0-.246-.01-.698-.039-1.012Zm6.435-2.83v4.903h.03l2.122-2.073h.962l-2.318 2.102 2.554 2.495h-.982l-2.338-2.416h-.03v2.416h-.668v-7.427h.668Z" fill="#0D333F"/><path d="M136.896 284.709a.549.549 0 0 0-.765.007.546.546 0 0 0-.006.765l.705.705h-7.415a.548.548 0 0 0-.546.546.547.547 0 0 0 .546.546h7.416l-.706.706a.542.542 0 0 0-.007.779.555.555 0 0 0 .39.159.53.53 0 0 0 .388-.166l1.638-1.637a.55.55 0 0 0 0-.772l-1.638-1.638ZM130.667 284.389a.542.542 0 0 0 .938-.384.553.553 0 0 0-.167-.388l-.705-.705h7.415a.55.55 0 0 0 .546-.546.547.547 0 0 0-.546-.546h-7.415l.705-.706a.544.544 0 0 0-.387-.925.544.544 0 0 0-.384.154l-1.638 1.637a.546.546 0 0 0 0 .772l1.638 1.637Z" fill="#393A3D"/><path d="m232.793 253.596.55.353c-.461.698-1.355 1.297-2.603 1.297-2.102 0-3.625-1.542-3.625-3.654 0-2.113 1.552-3.655 3.625-3.655 1.022 0 1.994.422 2.476 1.1l-.59.433c-.295-.452-.992-.914-1.876-.914-1.798 0-2.889 1.415-2.889 3.036s1.101 3.035 2.889 3.035c.796 0 1.562-.314 2.043-1.031Zm2.414-2.368h.02c.245-.53.894-.874 1.542-.874 1.169 0 1.749.756 1.749 1.896v2.819h-.668v-2.544c0-.963-.285-1.611-1.248-1.611-.707 0-1.395.57-1.395 1.798v2.357h-.668v-7.427h.668v3.586Zm5.413 1.189h3.134c-.039-.865-.569-1.503-1.522-1.503-.894 0-1.553.717-1.612 1.503Zm3.812.216c0 .088 0 .196-.01.314h-3.811c.019.924.736 1.67 1.68 1.67.687 0 1.218-.383 1.473-.795l.501.393c-.54.687-1.218.972-1.974.972-1.366 0-2.378-1.031-2.378-2.416 0-1.386 1.012-2.417 2.319-2.417 1.444 0 2.2 1.021 2.2 2.279Zm5.269-1.483-.521.373c-.216-.354-.678-.609-1.179-.609-1.071 0-1.759.805-1.759 1.857 0 1.041.678 1.846 1.749 1.846.58 0 .983-.245 1.248-.599l.501.374c-.393.481-.953.795-1.749.795-1.483 0-2.456-1.031-2.456-2.416 0-1.386.973-2.417 2.456-2.417.619 0 1.317.265 1.71.796Zm1.768-3.508v4.903h.029l2.122-2.073h.963l-2.318 2.102 2.554 2.495h-.983l-2.338-2.416h-.029v2.416h-.668v-7.427h.668Zm4.998 2.83v4.597h-.668v-4.597h.668Zm.138-1.769a.479.479 0 0 1-.472.472.479.479 0 0 1-.472-.472c0-.275.236-.471.472-.471s.472.196.472.471Zm1.601 1.769h.638c.02.245.04.589.04.786h.019c.256-.531.924-.904 1.572-.904 1.169 0 1.749.756 1.749 1.896v2.819h-.668v-2.544c0-.963-.285-1.611-1.248-1.611-.707 0-1.395.57-1.395 1.798v2.357h-.668v-3.585c0-.246-.01-.698-.039-1.012Zm5.512 6.032.481-.511c.364.471 1.061.845 1.759.845 1.316 0 1.798-.816 1.798-1.808v-.864h-.02c-.354.569-1.071.903-1.739.903-1.434 0-2.377-.992-2.377-2.338 0-1.306.943-2.377 2.377-2.377.668 0 1.375.324 1.739.913h.02v-.795h.668v4.558c0 1.002-.462 2.397-2.496 2.397-.845 0-1.67-.354-2.21-.923Zm.609-3.792c0 .962.629 1.788 1.739 1.788 1.031 0 1.768-.727 1.768-1.788 0-.963-.737-1.798-1.768-1.798-1.11 0-1.739.835-1.739 1.798Z" fill="#0D333F"/><path d="M219.855 251.962a.545.545 0 0 0-.771.772l.705.705h-7.415a.546.546 0 0 0 0 1.092h7.416l-.706.706a.558.558 0 0 0-.123.177.547.547 0 0 0 .894.595l1.638-1.638a.546.546 0 0 0 0-.771l-1.638-1.638ZM213.626 251.642a.547.547 0 0 0 .898-.172.55.55 0 0 0-.126-.6l-.706-.705h7.415a.547.547 0 0 0 0-1.092h-7.415l.706-.706a.549.549 0 0 0-.007-.765.546.546 0 0 0-.765-.006l-1.637 1.637a.542.542 0 0 0 0 .772l1.637 1.637Z" fill="#393A3D"/><path d="m231.418 281.529-.56.452c-.295-.423-.776-.698-1.434-.698-.688 0-1.484.413-1.484 1.307 0 .884.737 1.11 1.513 1.366.982.324 2.063.638 2.063 2.033s-1.169 2.004-2.269 2.004c-.845 0-1.69-.344-2.191-1.031l.609-.452a1.85 1.85 0 0 0 1.592.874c.717 0 1.542-.452 1.542-1.346 0-.972-.816-1.218-1.7-1.493-.923-.285-1.866-.688-1.866-1.945 0-1.346 1.198-1.916 2.22-1.916.933 0 1.631.393 1.965.845Zm4.474 3.468v-.147c0-.796-.432-1.189-1.228-1.189-.54 0-1.041.216-1.365.54l-.374-.442c.374-.373 1.022-.658 1.808-.658.992 0 1.788.55 1.788 1.67v2.014c0 .354.029.776.079 1.031h-.6a4.618 4.618 0 0 1-.068-.746h-.02c-.423.609-.933.864-1.67.864-.698 0-1.592-.373-1.592-1.395 0-1.414 1.562-1.542 3.242-1.542Zm0 .521h-.196c-1.091 0-2.358.117-2.358.992 0 .658.56.874 1.081.874.943 0 1.473-.707 1.473-1.523v-.343Zm6.103-2.299-1.867 4.597h-.737l-1.876-4.597h.747l1.493 3.89h.02l1.503-3.89h.717Zm1.722 0v4.597h-.668v-4.597h.668Zm.137-1.769a.478.478 0 0 1-.471.472.479.479 0 0 1-.472-.472c0-.275.236-.471.472-.471s.471.196.471.471Zm1.602 1.769h.638c.02.245.04.589.04.786h.019c.256-.531.924-.904 1.572-.904 1.169 0 1.749.756 1.749 1.896v2.819h-.668v-2.544c0-.963-.285-1.611-1.248-1.611-.707 0-1.395.57-1.395 1.798v2.357h-.668v-3.585c0-.246-.01-.698-.039-1.012Zm5.512 6.032.481-.511c.363.471 1.061.845 1.758.845 1.317 0 1.798-.816 1.798-1.808v-.864h-.019c-.354.569-1.071.903-1.739.903-1.435 0-2.378-.992-2.378-2.338 0-1.306.943-2.377 2.378-2.377.668 0 1.375.324 1.739.913h.019v-.795h.668v4.558c0 1.002-.461 2.397-2.495 2.397-.845 0-1.67-.353-2.21-.923Zm.609-3.792c0 .962.628 1.788 1.739 1.788 1.031 0 1.768-.727 1.768-1.788 0-.963-.737-1.798-1.768-1.798-1.111 0-1.739.835-1.739 1.798Zm8.791-1.533-.511.383c-.197-.383-.619-.648-1.13-.648-.481 0-.973.206-.973.717 0 .432.344.629 1.101.786 1.08.226 1.591.629 1.591 1.346 0 1.051-.884 1.424-1.729 1.424-.697 0-1.395-.275-1.817-.894l.53-.393c.236.403.737.718 1.277.718.57 0 1.081-.207 1.081-.806 0-.481-.481-.678-1.356-.884-.54-.128-1.316-.364-1.316-1.238 0-.933.805-1.336 1.64-1.336.639 0 1.317.304 1.612.825Z" fill="#0D333F"/><path d="M219.855 284.709a.545.545 0 0 0-.771.772l.705.705h-7.415a.547.547 0 0 0 0 1.092h7.416l-.706.706a.558.558 0 0 0-.123.177.547.547 0 0 0 .894.595l1.638-1.637a.547.547 0 0 0 0-.772l-1.638-1.638ZM213.626 284.389a.547.547 0 0 0 .898-.172.55.55 0 0 0-.126-.6l-.706-.705h7.415a.547.547 0 0 0 0-1.092h-7.415l.706-.706a.547.547 0 0 0-.388-.925.546.546 0 0 0-.384.154l-1.637 1.637a.542.542 0 0 0 0 .772l1.637 1.637Z" fill="#393A3D"/><path d="M302.443 88.325c0-.613.497-1.11 1.11-1.11H406.79c.613 0 1.11.497 1.11 1.11v1.11H302.443v-1.11Z" fill="#2CA01C"/></g></g></g><defs><clipPath id="b"><rect x="9" y="7.29" width="414.926" height="325.71" rx="12" fill="#fff"/></clipPath><clipPath id="c"><path fill="#fff" transform="translate(9 7.29)" d="M0 0h599.439v437.368H0z"/></clipPath><filter id="a" x=".119" y=".63" width="432.687" height="343.471" filterUnits="userSpaceOnUse" color-interpolation-filters="sRGB"><feFlood flood-opacity="0" result="BackgroundImageFix"/><feColorMatrix in="SourceAlpha" values="0 0 0 0 0 0 0 0 0 0 0 0 0 0 0 0 0 0 127 0" result="hardAlpha"/><feOffset dy="2.22"/><feGaussianBlur stdDeviation="4.44"/><feColorMatrix values="0 0 0 0 0 0 0 0 0 0 0 0 0 0 0 0 0 0 0.2 0"/><feBlend in2="BackgroundImageFix" result="effect1_dropShadow_6021_52"/><feBlend in="SourceGraphic" in2="effect1_dropShadow_6021_52" result="shape"/></filter><filter id="d" x=".119" y="1.74" width="617.2" height="455.129" filterUnits="userSpaceOnUse" color-interpolation-filters="sRGB"><feFlood flood-opacity="0" result="BackgroundImageFix"/><feColorMatrix in="SourceAlpha" values="0 0 0 0 0 0 0 0 0 0 0 0 0 0 0 0 0 0 127 0" result="hardAlpha"/><feMorphology radius="3.33" operator="dilate" in="SourceAlpha" result="effect1_dropShadow_6021_52"/><feOffset dy="3.33"/><feGaussianBlur stdDeviation="2.775"/><feComposite in2="hardAlpha" operator="out"/><feColorMatrix values="0 0 0 0 0 0 0 0 0 0 0 0 0 0 0 0 0 0 0.05 0"/><feBlend in2="BackgroundImageFix" result="effect1_dropShadow_6021_52"/><feBlend in="SourceGraphic" in2="effect1_dropShadow_6021_52" result="shape"/></filter></defs></svg>