<?xml version="1.0" encoding="UTF-8"?>
<!DOCTYPE svg PUBLIC "-//W3C//DTD SVG 1.1//EN" "http://www.w3.org/Graphics/SVG/1.1/DTD/svg11.dtd">
<!-- Creator: CorelDRAW -->
<svg xmlns="http://www.w3.org/2000/svg" xml:space="preserve" width="2.16189in" height="0.547705in" version="1.1" style="shape-rendering:geometricPrecision; text-rendering:geometricPrecision; image-rendering:optimizeQuality; fill-rule:evenodd; clip-rule:evenodd"
viewBox="0 0 1534.21 388.69"
 xmlns:xlink="http://www.w3.org/1999/xlink"
 xmlns:xodm="http://www.corel.com/coreldraw/odm/2003">
 <defs>
  <style type="text/css">
   <![CDATA[
    .fil2 {fill:#000066}
    .fil0 {fill:#000066;fill-rule:nonzero}
    .fil1 {fill:red;fill-rule:nonzero}
   ]]>
  </style>
 </defs>
 <g id="Layer_x0020_1">
  <metadata id="CorelCorpID_0Corel-Layer"/>
  <path class="fil0" d="M412.93 314.43l0 -66.16 17.22 -14.85 33.75 52.65c10.8,17.21 31.73,28.35 51.98,28.35l16.54 0 -68.18 -109.7 -3.38 2.36 71.56 -61.43 -51.98 0 -67.51 58.06 0 -64.75 -10.13 0c-20.25,0 -33.75,13.5 -33.75,33.75l0 141.71 43.88 0zm279.82 0c0,-20.25 -13.5,-33.75 -33.75,-33.75l-35.44 0c-24.98,0 -39.83,-12.15 -44.56,-33.75l111.39 0c0,-63.79 -18.9,-106.32 -78.64,-106.32 -54.01,0 -80,35.44 -80,89.11 0,53.67 29.03,84.72 75.27,84.72l85.74 0zm-114.42 -101.26c3.38,-22.62 13.84,-37.13 34.43,-37.13 18.9,0 31.05,10.8 36.12,37.13l-70.54 0zm292.3 101.26c0,-20.25 -13.5,-33.75 -33.75,-33.75l-35.44 0c-24.98,0 -39.83,-12.15 -44.56,-33.75l111.39 0c0,-63.79 -18.9,-106.32 -78.64,-106.32 -54.01,0 -80,35.44 -80,89.11 0,53.67 29.03,84.72 75.27,84.72l85.74 0zm-114.42 -101.26c3.38,-22.62 13.84,-37.13 34.43,-37.13 18.9,0 31.05,10.8 36.12,37.13l-70.54 0zm148.18 175.52c20.25,0 33.75,-13.5 33.75,-33.75l0 -62.11c11.82,19.24 31.39,26.67 56.71,26.67 41.18,0 76.28,-36.11 76.28,-89.78 0,-53.67 -35.1,-89.11 -76.62,-89.11 -25.99,0 -44.89,7.09 -56.37,24.98l0 -19.92 -43.88 0 0 243.02 10.13 0zm121.17 -158.64c0,32.07 -17.89,54 -43.88,54 -25.99,0 -43.54,-21.94 -43.54,-54 0,-32.07 17.55,-54 43.54,-54 25.99,0 43.88,21.94 43.88,54zm116.45 2.87c0,-20.25 -13.5,-33.75 -33.75,-33.75l-10.13 0 0 115.26 43.88 0 0 -81.51zm154.93 47.75c0,20.25 13.5,33.75 33.75,33.75l10.13 0 0 -94.17c0,-44.22 -30.38,-79.66 -84.38,-79.66 -53.67,0 -84.05,35.44 -84.05,79.66l0 94.17 10.13 0c20.25,0 33.75,-13.5 33.75,-33.75l0 -57.72c0,-24.98 11.48,-46.92 40.17,-46.92 29.03,0 40.5,21.94 40.5,46.92l0 57.72zm60.42 -54.34c0,51.64 35.1,86.41 76.28,86.41 25.31,0 44.89,-7.09 56.71,-25.65l0 11.14c0,32.07 -18.23,56.71 -50.97,56.71l-30.72 0c-21.6,0 -36.11,13.5 -36.11,33.75l82.7 0c48.6,0 78.98,-30.04 78.98,-82.36l0 -160.67 -43.88 0 0 18.9c-11.48,-17.21 -30.38,-23.96 -56.37,-23.96 -41.52,0 -76.62,34.09 -76.62,85.73zm45.57 0.34c0,-30.04 17.89,-50.63 43.88,-50.63 25.99,0 43.54,20.59 43.54,50.63 0,30.04 -17.55,50.63 -43.54,50.63 -25.99,0 -43.88,-20.59 -43.88,-50.63z"/>
  <path class="fil1" d="M1093.06 166.01c0,16.2 10.46,27 27,27 16.2,0 27,-10.8 27,-27 0,-16.2 -10.8,-27 -27,-27 -16.54,0 -27,10.8 -27,27z"/>
  <path class="fil0" d="M373.36 113.86c9.23,0 15.39,-6.16 15.39,-15.39l0 -72.55 -20.01 0 0 87.95 4.62 0zm49.1 -45.14c0,-9.24 -6.16,-15.39 -15.39,-15.39l-4.62 0 0 60.54 20.01 0 0 -45.14zm107.75 13.75l0 -30.17 24.47 0 0 -15.39 -24.47 0 0 -11.31 -20.01 0 0 57.64c0,16.31 8.31,30.63 29.86,30.63l22.93 0c0,-9.23 -4.46,-15.39 -14.31,-15.39l-7.39 0c-9.7,0 -11.08,-7.85 -11.08,-16.01z"/>
  <path class="fil0" d="M400.14 38.27c0,7.39 4.77,12.32 12.31,12.32 7.39,0 12.32,-4.93 12.32,-12.32 0,-7.39 -4.93,-12.31 -12.32,-12.31 -7.54,0 -12.31,4.93 -12.31,12.31z"/>
  <path class="fil0" d="M492.42 68.31l-50.41 0.09c-7.03,-3.66 -11.69,-9.83 -11.69,-20.43 0,-13.62 11.7,-22.3 29.24,-22.3l33.71 0c0,9.29 -6,15.48 -14.77,15.48l-15.55 0c-7.85,0 -11.7,2.17 -11.7,5.88 0,2.79 0.47,6.8 13.08,9.45 11.61,2.43 23.12,4.02 28.08,11.82z"/>
  <path class="fil0" d="M435.24 71.23l50.41 -0.09c7.03,3.66 11.69,9.83 11.69,20.43 0,13.62 -11.7,22.3 -29.24,22.3l-33.71 0c0,-9.29 6,-15.48 14.77,-15.48l15.55 0c7.85,0 11.7,-2.17 11.7,-5.88 0,-2.79 -0.47,-6.8 -13.08,-9.45 -11.61,-2.43 -23.12,-4.02 -28.08,-11.82z"/>
  <path class="fil2" d="M50.76 0l245.33 0c27.92,0 50.76,22.84 50.76,50.76l0 245.33c0,27.92 -22.84,50.76 -50.76,50.76l-245.33 0c-27.92,0 -50.76,-22.84 -50.76,-50.76l0 -245.33c0,-27.92 22.84,-50.76 50.76,-50.76zm75.58 213.52l10.12 0 0 -77.52 -28.79 0 0 51.05c13.3,0.75 19.8,6.99 18.67,26.47zm-58.67 -59.55l0 59.55 54.98 0c1.32,-22.8 -7.81,-24.36 -26.07,-24.36l0 -53.15c-17,-2.68 -28.57,1.05 -28.91,17.97zm156.14 6.28l19.05 0c5.02,0 7.53,1.85 7.53,5.54 0,3.69 -2.51,5.54 -7.53,5.54l-19.05 0 0 -11.08zm0 35.54l18.05 0c12.18,0 21.49,-2.66 27.91,-7.97 6.28,-5.09 9.42,-12.4 9.42,-21.93 0,-9.52 -3.14,-16.83 -9.42,-21.92 -6.42,-5.32 -15.72,-7.97 -27.91,-7.97l-46.84 0 -34.33 0 -24.23 38.76 24.23 38.76 34.33 0 28.79 0 0 -17.72zm-28.79 -59.8l0 24.25 12.03 0 0 10.89 -12.03 0 0 42.38 -30.14 -38.76 30.14 -38.76z"/>
 </g>
</svg>
