<?xml version="1.0" encoding="UTF-8"?>
<!DOCTYPE svg PUBLIC "-//W3C//DTD SVG 1.1//EN" "http://www.w3.org/Graphics/SVG/1.1/DTD/svg11.dtd">
<!-- Creator: CorelDRAW -->
<svg xmlns="http://www.w3.org/2000/svg" xml:space="preserve" width="2.57701in" height="2.57701in" version="1.1" style="shape-rendering:geometricPrecision; text-rendering:geometricPrecision; image-rendering:optimizeQuality; fill-rule:evenodd; clip-rule:evenodd"
viewBox="0 0 2576.59 2576.59"
 xmlns:xlink="http://www.w3.org/1999/xlink"
 xmlns:xodm="http://www.corel.com/coreldraw/odm/2003">
 <defs>
  <style type="text/css">
   <![CDATA[
    .fil0 {fill:#06003C}
   ]]>
  </style>
 </defs>
 <g id="Layer_x0020_1">
  <metadata id="CorelCorpID_0Corel-Layer"/>
  <path class="fil0" d="M377.06 0l1822.46 0c207.38,0 377.06,169.68 377.06,377.06l0 1822.46c0,207.39 -169.68,377.06 -377.06,377.06l-1822.46 0c-207.39,0 -377.06,-169.68 -377.06,-377.06l0 -1822.46c0,-207.38 169.68,-377.06 377.06,-377.06zm561.44 1586.16l75.17 0 0 -575.85 -213.89 0 0 379.21c98.79,5.54 147.1,51.96 138.71,196.63zm-435.81 -442.35l0 442.35 408.44 0c9.82,-169.36 -58.04,-180.98 -193.66,-180.98l0 -394.87c-126.31,-19.87 -212.2,7.8 -214.78,133.5zm1159.88 46.67l141.5 0c37.29,0 55.94,13.71 55.94,41.14 0,27.42 -18.65,41.13 -55.94,41.13l-141.5 0 0 -82.27zm0 264.05l134.1 0c90.49,0 159.59,-19.74 207.3,-59.23 46.62,-37.85 69.93,-92.13 69.93,-162.89 0,-70.75 -23.31,-125.04 -69.93,-162.88 -47.71,-39.49 -116.81,-59.23 -207.3,-59.23l-347.98 0 -255.02 0 -179.99 287.92 179.99 287.93 255.02 0 213.89 0 0 -131.62zm-213.89 -444.23l0 180.18 89.38 0 0 80.86 -89.38 0 0 314.81 -223.9 -287.93 223.9 -287.92z"/>
 </g>
</svg>
